{"glyphs":{"0":{"ha":883,"x_min":31,"x_max":874,"o":"m 64 521 q 148 770 97 668 q 265 936 199 873 q 405 1027 330 999 q 560 1056 480 1056 q 711 1027 644 1056 q 818 936 778 999 q 867 770 859 873 q 842 521 874 668 q 724 207 799 324 q 553 38 649 90 q 353 -14 458 -14 q 210 15 277 -14 q 99 106 144 43 q 43 271 55 169 q 64 521 31 374 m 286 521 q 249 266 251 360 q 276 133 248 173 q 356 94 304 94 q 457 133 410 94 q 544 266 503 173 q 619 521 584 360 q 658 775 656 682 q 633 908 661 869 q 551 948 606 948 q 452 908 499 948 q 364 775 406 869 q 286 521 322 682 "},"1":{"ha":781,"x_min":-17,"x_max":660,"o":"m -17 36 l -17 85 q -10 108 -17 104 q 15 111 -3 111 l 192 111 q 222 118 215 111 q 233 144 228 125 l 375 780 q 370 806 375 800 q 346 813 365 813 l 204 813 q 180 816 188 813 q 173 838 173 820 l 173 890 q 183 919 173 914 q 215 924 193 924 q 337 934 281 925 q 441 973 394 943 q 526 1067 489 1003 q 545 1089 535 1081 q 577 1097 555 1097 l 610 1097 q 635 1093 627 1097 q 639 1072 643 1089 l 434 149 q 439 117 428 124 q 476 111 449 111 l 626 111 q 651 108 642 111 q 660 87 660 104 l 660 35 q 656 7 660 13 q 631 0 651 0 l 17 0 q -11 6 -6 0 q -17 36 -17 13 "},"2":{"ha":891,"x_min":-47,"x_max":895,"o":"m 800 290 q 748 122 792 190 q 635 20 703 54 q 492 -14 568 -14 q 387 -1 433 -14 q 303 28 341 11 q 229 57 265 44 q 155 69 193 69 q 106 57 124 69 q 76 22 87 44 q 66 6 70 11 q 43 0 62 0 l -23 0 q -42 5 -38 0 q -47 25 -47 10 q -13 157 -45 91 q 73 285 19 223 q 196 402 127 347 q 342 502 265 458 q 448 567 391 531 q 556 647 505 603 q 639 739 606 690 q 672 840 672 788 q 630 937 672 908 q 508 966 588 966 q 411 953 458 966 q 332 921 363 940 q 301 885 301 902 q 315 867 301 874 q 345 849 328 859 q 377 819 363 838 q 390 765 390 799 q 353 682 390 711 q 273 653 317 653 q 211 667 240 653 q 164 709 182 681 q 146 779 146 738 q 179 889 146 839 q 270 977 213 940 q 404 1035 328 1015 q 564 1056 479 1056 q 736 1035 662 1056 q 853 965 811 1014 q 895 830 895 915 q 868 729 895 776 q 794 641 840 682 q 689 565 747 600 q 567 498 631 529 q 442 438 503 466 q 320 369 379 408 q 214 293 260 331 q 142 224 167 255 q 117 193 128 210 q 99 164 105 176 q 100 151 94 152 q 116 158 110 149 q 131 181 122 167 q 158 210 140 195 q 230 244 184 232 q 315 256 276 256 q 387 247 356 256 q 444 226 417 238 q 500 205 471 214 q 569 195 530 195 q 661 221 628 195 q 699 291 694 247 q 704 311 701 308 q 726 315 707 315 l 777 315 q 798 311 794 315 q 800 290 802 307 "},"3":{"ha":797,"x_min":-31,"x_max":806,"o":"m -31 224 q 6 319 -31 285 q 96 354 42 354 q 176 327 145 354 q 206 256 206 301 q 197 214 206 230 q 174 189 187 199 q 151 170 160 179 q 141 150 141 162 q 160 115 141 131 q 214 89 180 99 q 290 79 247 79 q 404 111 353 79 q 483 198 454 144 q 513 319 513 253 q 498 400 513 367 q 449 453 483 433 q 358 482 415 474 q 332 483 343 484 q 315 488 321 483 q 308 510 308 492 l 308 562 q 314 584 308 579 q 331 589 320 589 q 355 590 341 588 q 484 639 431 599 q 567 735 538 678 q 596 849 596 791 q 548 937 596 908 q 428 966 501 966 q 349 948 381 966 q 318 907 318 931 q 328 887 318 895 q 353 870 339 879 q 377 844 367 860 q 387 801 387 828 q 355 731 387 760 q 276 703 323 703 q 217 716 246 703 q 168 757 188 729 q 149 826 149 784 q 191 940 149 888 q 308 1024 232 992 q 488 1056 384 1056 q 657 1031 585 1056 q 767 959 728 1007 q 806 842 806 911 q 770 711 806 764 q 675 622 734 658 q 547 560 616 586 q 504 547 517 547 q 492 537 492 547 q 506 527 492 528 q 545 519 520 527 q 647 474 609 500 q 702 409 685 447 q 719 316 719 371 q 684 182 719 242 q 591 77 650 121 q 456 10 531 33 q 300 -14 381 -14 q 117 20 191 -14 q 6 108 44 53 q -31 224 -31 163 "},"4":{"ha":830,"x_min":5,"x_max":817,"o":"m 701 86 l 701 22 q 697 3 701 7 q 676 0 692 0 l 260 0 q 235 5 241 0 q 229 28 229 9 l 229 84 q 234 106 229 101 q 255 111 239 111 l 367 111 q 390 117 383 111 q 399 138 396 122 l 429 270 q 425 297 434 292 q 394 302 416 302 l 70 302 q 46 306 51 302 q 33 320 40 310 l 13 349 q 7 366 5 360 q 14 385 8 373 q 88 490 40 442 q 198 584 137 539 q 324 676 260 630 q 447 771 388 722 q 549 878 506 821 q 610 1004 592 935 q 618 1032 615 1023 q 648 1042 622 1042 l 779 1042 q 810 1036 804 1042 q 813 1010 817 1031 q 762 883 803 940 q 662 777 722 825 q 535 686 603 728 q 401 606 467 644 q 282 531 335 567 q 200 455 229 494 q 189 435 192 444 q 194 419 186 426 q 225 413 201 413 l 439 413 q 457 419 453 413 q 465 438 460 424 l 479 497 q 489 520 485 515 q 506 533 493 526 q 553 562 526 546 q 605 600 580 578 q 642 652 630 622 q 650 668 646 662 q 669 674 655 674 l 694 674 q 714 669 709 674 q 715 652 719 665 l 669 449 q 673 422 665 431 q 700 413 681 413 l 776 413 q 795 408 791 413 q 799 388 799 403 l 799 332 q 794 308 799 313 q 770 302 790 302 l 665 302 q 640 296 646 302 q 631 272 635 290 l 601 142 q 602 117 597 123 q 628 111 608 111 l 674 111 q 696 107 691 111 q 701 86 701 103 "},"5":{"ha":809,"x_min":-19,"x_max":860,"o":"m -19 207 q 19 302 -19 270 q 105 333 56 333 q 183 305 151 333 q 215 235 215 277 q 203 190 215 207 q 179 159 191 172 q 167 129 167 145 q 200 88 167 104 q 281 72 233 72 q 374 102 327 72 q 458 183 420 132 q 519 297 496 233 q 542 427 542 360 q 499 560 542 525 q 385 595 455 595 q 294 574 340 595 q 210 506 249 552 q 194 491 201 497 q 166 485 186 485 l 129 485 q 102 494 106 485 q 103 522 99 503 l 275 1015 q 287 1037 281 1032 q 313 1042 294 1042 l 491 1042 q 615 1038 565 1042 q 698 1040 665 1035 q 752 1069 731 1045 q 764 1081 758 1076 q 785 1086 770 1086 l 841 1086 q 857 1071 860 1086 l 850 1042 q 819 964 841 999 q 751 902 797 928 q 627 861 706 876 q 425 847 549 847 l 332 847 q 310 842 315 847 q 300 822 306 837 l 240 658 q 225 622 232 638 q 222 603 217 605 q 240 611 228 599 q 269 635 251 622 q 359 677 304 660 q 478 694 413 694 q 628 663 566 694 q 724 572 691 631 q 757 431 757 513 q 719 253 757 335 q 616 112 681 172 q 470 19 551 52 q 302 -14 388 -14 q 134 15 207 -14 q 22 93 62 44 q -19 207 -19 143 "},"6":{"ha":844,"x_min":40,"x_max":838,"o":"m 649 939 q 636 963 649 953 q 589 973 622 973 q 475 928 528 973 q 378 800 422 884 q 302 599 335 717 q 294 573 297 581 q 294 563 292 565 q 303 567 298 560 q 320 584 308 574 q 424 644 365 622 q 552 667 484 667 q 688 631 629 667 q 772 521 747 594 q 773 337 797 448 q 684 140 747 217 q 536 24 621 62 q 357 -14 451 -14 q 206 13 273 -14 q 98 101 139 40 q 48 264 56 163 q 72 514 40 365 q 152 739 100 639 q 276 910 205 839 q 430 1018 347 981 q 604 1056 514 1056 q 780 1002 721 1056 q 838 876 838 949 q 801 777 838 812 q 715 743 763 743 q 630 768 663 743 q 597 838 597 794 q 610 886 597 868 q 636 915 623 903 q 649 939 649 926 m 563 326 q 556 492 586 435 q 457 550 526 550 q 366 524 410 550 q 290 454 322 499 q 245 354 258 410 q 244 167 219 236 q 354 97 269 97 q 447 126 406 97 q 518 206 489 155 q 563 326 547 258 "},"7":{"ha":782,"x_min":110,"x_max":890,"o":"m 113 744 q 174 920 131 851 q 277 1022 217 989 q 401 1056 336 1056 q 488 1043 452 1056 q 555 1014 524 1031 q 617 985 585 997 q 693 972 650 972 q 749 987 730 972 q 778 1026 768 1001 q 785 1038 782 1034 q 801 1042 789 1042 l 869 1042 q 887 1037 885 1042 q 888 1018 890 1032 q 857 939 883 986 q 792 836 831 892 q 705 722 752 780 q 611 609 658 663 q 524 510 565 554 q 405 378 447 428 q 362 288 362 328 q 374 246 362 262 q 403 215 387 230 q 433 177 420 200 q 446 115 446 155 q 430 53 446 83 q 385 5 415 24 q 315 -14 356 -14 q 216 25 256 -14 q 175 144 175 65 q 208 269 175 206 q 293 398 240 333 q 407 529 346 463 q 468 595 433 559 q 538 670 502 631 q 607 747 574 709 q 663 817 640 785 q 682 845 675 833 q 685 862 689 858 q 670 857 679 867 q 648 838 661 846 q 606 818 629 826 q 551 810 582 810 q 481 817 509 810 q 430 833 453 824 q 384 850 408 842 q 327 857 360 857 q 246 830 273 857 q 207 745 219 802 q 205 731 206 736 q 193 726 204 726 l 133 726 q 113 744 110 726 "},"8":{"ha":816,"x_min":-6,"x_max":818,"o":"m 223 300 q 214 186 208 235 q 247 110 220 138 q 321 83 273 83 q 405 110 367 83 q 469 186 442 138 q 511 300 497 235 q 519 408 524 358 q 488 488 513 458 q 417 517 463 517 q 330 488 369 517 q 264 408 291 458 q 223 300 236 358 m 158 792 q 224 928 176 868 q 347 1022 272 988 q 515 1056 421 1056 q 685 1022 615 1056 q 787 928 756 988 q 801 792 818 868 q 732 661 783 714 q 609 580 681 608 q 585 572 594 574 q 574 563 575 569 q 581 555 573 558 q 601 547 588 552 q 710 449 676 515 q 724 292 745 383 q 652 136 706 205 q 516 26 599 67 q 320 -14 432 -14 q 136 26 212 -14 q 27 136 60 67 q 13 292 -6 205 q 97 450 33 384 q 253 547 160 515 q 273 553 264 551 q 284 563 283 556 q 277 571 285 569 q 258 578 269 574 q 168 659 196 606 q 158 792 140 713 m 364 780 q 358 690 353 728 q 383 629 363 651 q 438 608 403 608 q 504 629 475 608 q 554 690 533 651 q 586 780 575 728 q 594 872 597 831 q 572 935 591 912 q 518 958 553 958 q 451 935 482 958 q 398 872 420 912 q 364 780 375 831 "},"9":{"ha":844,"x_min":30,"x_max":829,"o":"m 219 103 q 233 79 219 90 q 279 69 247 69 q 393 114 340 69 q 490 242 447 158 q 567 443 534 326 q 574 469 572 461 q 574 479 577 477 q 565 475 570 481 q 548 458 560 468 q 444 398 503 420 q 316 375 384 375 q 180 411 239 375 q 96 521 121 448 q 96 705 71 594 q 185 902 122 825 q 332 1018 247 980 q 512 1056 417 1056 q 663 1028 596 1056 q 770 940 729 1001 q 820 778 812 879 q 796 528 829 676 q 716 303 768 403 q 593 132 663 203 q 438 24 522 61 q 264 -14 354 -14 q 89 40 147 -14 q 30 165 30 93 q 67 264 30 230 q 154 299 105 299 q 239 274 206 299 q 272 204 272 249 q 259 156 272 174 q 232 127 245 139 q 219 103 219 116 m 306 715 q 312 549 283 607 q 411 492 342 492 q 502 517 458 492 q 579 588 547 543 q 624 688 611 632 q 624 876 649 807 q 515 944 599 944 q 422 916 463 944 q 351 836 380 888 q 306 715 322 784 "}," ":{"ha":417,"x_min":0,"x_max":0,"o":""}," ":{"ha":417,"x_min":0,"x_max":0,"o":""}," ":{"ha":694,"x_min":0,"x_max":0,"o":""}," ":{"ha":1389,"x_min":0,"x_max":0,"o":""}," ":{"ha":694,"x_min":0,"x_max":0,"o":""}," ":{"ha":1389,"x_min":0,"x_max":0,"o":""}," ":{"ha":463,"x_min":0,"x_max":0,"o":""}," ":{"ha":347,"x_min":0,"x_max":0,"o":""}," ":{"ha":231,"x_min":0,"x_max":0,"o":""}," ":{"ha":806,"x_min":0,"x_max":0,"o":""}," ":{"ha":277,"x_min":0,"x_max":0,"o":""}," ":{"ha":231,"x_min":0,"x_max":0,"o":""}," ":{"ha":139,"x_min":0,"x_max":0,"o":""},"A":{"ha":1326,"x_min":-76,"x_max":1208,"o":"m 652 765 l 458 462 q 442 433 446 443 q 476 424 438 424 l 722 424 q 756 427 750 424 q 758 456 763 431 l 708 764 q 702 808 703 793 q 692 822 701 822 q 676 805 685 822 q 652 765 667 788 m -76 26 l -76 107 q -72 127 -76 123 q -52 132 -67 132 l 63 132 q 89 138 84 132 q 101 155 93 144 l 677 1036 q 693 1056 686 1050 q 724 1063 699 1063 l 839 1063 q 870 1060 861 1063 q 883 1048 880 1057 q 890 1021 887 1039 l 1055 162 q 1065 136 1059 141 q 1097 132 1072 132 l 1183 132 q 1204 127 1199 132 q 1208 106 1208 123 l 1208 28 q 1204 5 1208 10 q 1181 0 1199 0 l 691 0 q 671 5 676 0 q 667 25 667 9 l 667 99 q 672 125 667 119 q 699 132 678 132 l 782 132 q 808 136 805 132 q 808 159 812 141 l 790 271 q 777 296 787 293 q 742 299 768 299 l 389 299 q 356 296 365 299 q 338 278 347 293 l 261 158 q 253 137 251 142 q 282 132 254 132 l 342 132 q 363 126 357 132 q 368 105 368 121 l 368 33 q 363 6 368 12 q 337 0 358 0 l -50 0 q -72 4 -68 0 q -76 26 -76 8 "},"À":{"ha":1326,"x_min":-76,"x_max":1208,"o":"m 607 1382 q 650 1413 624 1404 q 705 1416 677 1422 q 751 1390 733 1411 l 899 1224 q 900 1199 912 1211 l 849 1146 q 839 1138 843 1140 q 828 1142 835 1137 l 629 1251 q 585 1308 591 1272 q 607 1382 578 1344 m 652 765 l 458 462 q 442 433 446 443 q 476 424 438 424 l 722 424 q 756 427 750 424 q 758 456 763 431 l 708 764 q 702 808 703 793 q 692 822 701 822 q 676 805 685 822 q 652 765 667 788 m -76 26 l -76 107 q -72 127 -76 123 q -52 132 -67 132 l 63 132 q 89 138 84 132 q 101 155 93 144 l 677 1036 q 693 1056 686 1050 q 724 1063 699 1063 l 839 1063 q 870 1060 861 1063 q 883 1048 880 1057 q 890 1021 887 1039 l 1055 162 q 1065 136 1059 141 q 1097 132 1072 132 l 1183 132 q 1204 127 1199 132 q 1208 106 1208 123 l 1208 28 q 1204 5 1208 10 q 1181 0 1199 0 l 691 0 q 671 5 676 0 q 667 25 667 9 l 667 99 q 672 125 667 119 q 699 132 678 132 l 782 132 q 808 136 805 132 q 808 159 812 141 l 790 271 q 777 296 787 293 q 742 299 768 299 l 389 299 q 356 296 365 299 q 338 278 347 293 l 261 158 q 253 137 251 142 q 282 132 254 132 l 342 132 q 363 126 357 132 q 368 105 368 121 l 368 33 q 363 6 368 12 q 337 0 358 0 l -50 0 q -72 4 -68 0 q -76 26 -76 8 "},"Á":{"ha":1326,"x_min":-76,"x_max":1208,"o":"m 1035 1382 q 1056 1307 1063 1344 q 1013 1251 1049 1271 l 817 1144 q 804 1139 808 1138 q 792 1147 799 1140 l 742 1199 q 742 1223 730 1212 l 891 1390 q 938 1417 910 1412 q 992 1413 965 1422 q 1035 1382 1019 1404 m 652 765 l 458 462 q 442 433 446 443 q 476 424 438 424 l 722 424 q 756 427 750 424 q 758 456 763 431 l 708 764 q 702 808 703 793 q 692 822 701 822 q 676 805 685 822 q 652 765 667 788 m -76 26 l -76 107 q -72 127 -76 123 q -52 132 -67 132 l 63 132 q 89 138 84 132 q 101 155 93 144 l 677 1036 q 693 1056 686 1050 q 724 1063 699 1063 l 839 1063 q 870 1060 861 1063 q 883 1048 880 1057 q 890 1021 887 1039 l 1055 162 q 1065 136 1059 141 q 1097 132 1072 132 l 1183 132 q 1204 127 1199 132 q 1208 106 1208 123 l 1208 28 q 1204 5 1208 10 q 1181 0 1199 0 l 691 0 q 671 5 676 0 q 667 25 667 9 l 667 99 q 672 125 667 119 q 699 132 678 132 l 782 132 q 808 136 805 132 q 808 159 812 141 l 790 271 q 777 296 787 293 q 742 299 768 299 l 389 299 q 356 296 365 299 q 338 278 347 293 l 261 158 q 253 137 251 142 q 282 132 254 132 l 342 132 q 363 126 357 132 q 368 105 368 121 l 368 33 q 363 6 368 12 q 337 0 358 0 l -50 0 q -72 4 -68 0 q -76 26 -76 8 "},"Â":{"ha":1326,"x_min":-76,"x_max":1208,"o":"m 642 1156 l 611 1189 q 606 1200 604 1197 q 615 1211 607 1203 l 781 1366 q 797 1376 789 1374 q 819 1378 804 1378 l 913 1378 q 933 1375 927 1378 q 943 1366 939 1373 l 1040 1210 q 1042 1201 1043 1205 q 1035 1191 1041 1197 l 1000 1157 q 988 1149 991 1149 q 977 1156 985 1150 l 868 1253 q 833 1254 853 1267 l 666 1152 q 652 1148 657 1147 q 642 1156 647 1150 m 652 765 l 458 462 q 442 433 446 443 q 476 424 438 424 l 722 424 q 756 427 750 424 q 758 456 763 431 l 708 764 q 702 808 703 793 q 692 822 701 822 q 676 805 685 822 q 652 765 667 788 m -76 26 l -76 107 q -72 127 -76 123 q -52 132 -67 132 l 63 132 q 89 138 84 132 q 101 155 93 144 l 677 1036 q 693 1056 686 1050 q 724 1063 699 1063 l 839 1063 q 870 1060 861 1063 q 883 1048 880 1057 q 890 1021 887 1039 l 1055 162 q 1065 136 1059 141 q 1097 132 1072 132 l 1183 132 q 1204 127 1199 132 q 1208 106 1208 123 l 1208 28 q 1204 5 1208 10 q 1181 0 1199 0 l 691 0 q 671 5 676 0 q 667 25 667 9 l 667 99 q 672 125 667 119 q 699 132 678 132 l 782 132 q 808 136 805 132 q 808 159 812 141 l 790 271 q 777 296 787 293 q 742 299 768 299 l 389 299 q 356 296 365 299 q 338 278 347 293 l 261 158 q 253 137 251 142 q 282 132 254 132 l 342 132 q 363 126 357 132 q 368 105 368 121 l 368 33 q 363 6 368 12 q 337 0 358 0 l -50 0 q -72 4 -68 0 q -76 26 -76 8 "},"Ã":{"ha":1326,"x_min":-76,"x_max":1208,"o":"m 940 1149 q 864 1166 890 1149 q 817 1201 837 1182 q 781 1232 799 1218 q 735 1245 764 1245 q 692 1230 710 1245 q 664 1190 674 1215 q 644 1181 656 1181 l 588 1181 q 575 1186 576 1181 q 578 1201 574 1191 q 619 1285 592 1246 q 685 1350 647 1325 q 769 1374 723 1374 q 844 1358 819 1374 q 887 1323 869 1342 q 923 1292 904 1306 q 967 1278 942 1278 q 1006 1291 989 1278 q 1033 1328 1022 1303 q 1041 1339 1038 1335 q 1053 1343 1044 1343 l 1113 1343 q 1124 1340 1123 1343 q 1123 1328 1125 1336 q 1084 1236 1110 1276 q 1022 1173 1058 1196 q 940 1149 985 1149 m 652 765 l 458 462 q 442 433 446 443 q 476 424 438 424 l 722 424 q 756 427 750 424 q 758 456 763 431 l 708 764 q 702 808 703 793 q 692 822 701 822 q 676 805 685 822 q 652 765 667 788 m -76 26 l -76 107 q -72 127 -76 123 q -52 132 -67 132 l 63 132 q 89 138 84 132 q 101 155 93 144 l 677 1036 q 693 1056 686 1050 q 724 1063 699 1063 l 839 1063 q 870 1060 861 1063 q 883 1048 880 1057 q 890 1021 887 1039 l 1055 162 q 1065 136 1059 141 q 1097 132 1072 132 l 1183 132 q 1204 127 1199 132 q 1208 106 1208 123 l 1208 28 q 1204 5 1208 10 q 1181 0 1199 0 l 691 0 q 671 5 676 0 q 667 25 667 9 l 667 99 q 672 125 667 119 q 699 132 678 132 l 782 132 q 808 136 805 132 q 808 159 812 141 l 790 271 q 777 296 787 293 q 742 299 768 299 l 389 299 q 356 296 365 299 q 338 278 347 293 l 261 158 q 253 137 251 142 q 282 132 254 132 l 342 132 q 363 126 357 132 q 368 105 368 121 l 368 33 q 363 6 368 12 q 337 0 358 0 l -50 0 q -72 4 -68 0 q -76 26 -76 8 "},"Ä":{"ha":1326,"x_min":-76,"x_max":1208,"o":"m 981 1174 q 910 1203 940 1174 q 881 1274 881 1233 q 910 1345 881 1315 q 981 1374 940 1374 q 1051 1345 1022 1374 q 1081 1274 1081 1315 q 1051 1203 1081 1233 q 981 1174 1022 1174 m 675 1174 q 605 1203 634 1174 q 575 1274 575 1233 q 605 1345 575 1315 q 675 1374 634 1374 q 746 1345 717 1374 q 775 1274 775 1315 q 746 1203 775 1233 q 675 1174 717 1174 m 652 765 l 458 462 q 442 433 446 443 q 476 424 438 424 l 722 424 q 756 427 750 424 q 758 456 763 431 l 708 764 q 702 808 703 793 q 692 822 701 822 q 676 805 685 822 q 652 765 667 788 m -76 26 l -76 107 q -72 127 -76 123 q -52 132 -67 132 l 63 132 q 89 138 84 132 q 101 155 93 144 l 677 1036 q 693 1056 686 1050 q 724 1063 699 1063 l 839 1063 q 870 1060 861 1063 q 883 1048 880 1057 q 890 1021 887 1039 l 1055 162 q 1065 136 1059 141 q 1097 132 1072 132 l 1183 132 q 1204 127 1199 132 q 1208 106 1208 123 l 1208 28 q 1204 5 1208 10 q 1181 0 1199 0 l 691 0 q 671 5 676 0 q 667 25 667 9 l 667 99 q 672 125 667 119 q 699 132 678 132 l 782 132 q 808 136 805 132 q 808 159 812 141 l 790 271 q 777 296 787 293 q 742 299 768 299 l 389 299 q 356 296 365 299 q 338 278 347 293 l 261 158 q 253 137 251 142 q 282 132 254 132 l 342 132 q 363 126 357 132 q 368 105 368 121 l 368 33 q 363 6 368 12 q 337 0 358 0 l -50 0 q -72 4 -68 0 q -76 26 -76 8 "},"Å":{"ha":1326,"x_min":-76,"x_max":1208,"o":"m 831 1235 q 881 1255 859 1235 q 909 1302 903 1274 q 903 1353 916 1333 q 861 1373 890 1373 q 811 1353 833 1373 q 782 1302 789 1333 q 789 1255 776 1274 q 831 1235 802 1235 m 819 1153 q 716 1197 748 1153 q 697 1301 683 1241 q 731 1376 706 1342 q 793 1431 756 1410 q 872 1451 830 1451 q 976 1407 943 1451 q 994 1301 1008 1363 q 960 1228 985 1262 q 898 1173 934 1194 q 819 1153 861 1153 m 652 765 l 458 462 q 442 433 446 443 q 476 424 438 424 l 722 424 q 756 427 750 424 q 758 456 763 431 l 708 764 q 702 808 703 793 q 692 822 701 822 q 676 805 685 822 q 652 765 667 788 m -76 26 l -76 107 q -72 127 -76 123 q -52 132 -67 132 l 63 132 q 89 138 84 132 q 101 155 93 144 l 677 1036 q 693 1056 686 1050 q 724 1063 699 1063 l 839 1063 q 870 1060 861 1063 q 883 1048 880 1057 q 890 1021 887 1039 l 1055 162 q 1065 136 1059 141 q 1097 132 1072 132 l 1183 132 q 1204 127 1199 132 q 1208 106 1208 123 l 1208 28 q 1204 5 1208 10 q 1181 0 1199 0 l 691 0 q 671 5 676 0 q 667 25 667 9 l 667 99 q 672 125 667 119 q 699 132 678 132 l 782 132 q 808 136 805 132 q 808 159 812 141 l 790 271 q 777 296 787 293 q 742 299 768 299 l 389 299 q 356 296 365 299 q 338 278 347 293 l 261 158 q 253 137 251 142 q 282 132 254 132 l 342 132 q 363 126 357 132 q 368 105 368 121 l 368 33 q 363 6 368 12 q 337 0 358 0 l -50 0 q -72 4 -68 0 q -76 26 -76 8 "},"Ā":{"ha":1326,"x_min":-76,"x_max":1208,"o":"m 658 1172 l 658 1229 q 661 1243 658 1239 q 672 1248 663 1248 l 968 1248 q 986 1244 981 1248 q 992 1226 992 1240 l 992 1170 q 990 1154 992 1159 q 976 1149 988 1149 l 683 1149 q 664 1153 669 1149 q 658 1172 658 1157 m 652 765 l 458 462 q 442 433 446 443 q 476 424 438 424 l 722 424 q 756 427 750 424 q 758 456 763 431 l 708 764 q 702 808 703 793 q 692 822 701 822 q 676 805 685 822 q 652 765 667 788 m -76 26 l -76 107 q -72 127 -76 123 q -52 132 -67 132 l 63 132 q 89 138 84 132 q 101 155 93 144 l 677 1036 q 693 1056 686 1050 q 724 1063 699 1063 l 839 1063 q 870 1060 861 1063 q 883 1048 880 1057 q 890 1021 887 1039 l 1055 162 q 1065 136 1059 141 q 1097 132 1072 132 l 1183 132 q 1204 127 1199 132 q 1208 106 1208 123 l 1208 28 q 1204 5 1208 10 q 1181 0 1199 0 l 691 0 q 671 5 676 0 q 667 25 667 9 l 667 99 q 672 125 667 119 q 699 132 678 132 l 782 132 q 808 136 805 132 q 808 159 812 141 l 790 271 q 777 296 787 293 q 742 299 768 299 l 389 299 q 356 296 365 299 q 338 278 347 293 l 261 158 q 253 137 251 142 q 282 132 254 132 l 342 132 q 363 126 357 132 q 368 105 368 121 l 368 33 q 363 6 368 12 q 337 0 358 0 l -50 0 q -72 4 -68 0 q -76 26 -76 8 "},"Ă":{"ha":1326,"x_min":-76,"x_max":1208,"o":"m 831 1146 q 729 1170 763 1146 q 688 1240 695 1194 q 694 1347 681 1285 q 713 1360 697 1360 l 757 1360 q 767 1349 768 1360 q 782 1295 764 1315 q 850 1274 799 1274 q 925 1292 898 1274 q 965 1340 952 1310 q 971 1355 969 1349 q 986 1360 974 1360 l 1036 1360 q 1048 1357 1047 1360 q 1047 1343 1049 1353 q 973 1199 1024 1252 q 831 1146 922 1146 m 652 765 l 458 462 q 442 433 446 443 q 476 424 438 424 l 722 424 q 756 427 750 424 q 758 456 763 431 l 708 764 q 702 808 703 793 q 692 822 701 822 q 676 805 685 822 q 652 765 667 788 m -76 26 l -76 107 q -72 127 -76 123 q -52 132 -67 132 l 63 132 q 89 138 84 132 q 101 155 93 144 l 677 1036 q 693 1056 686 1050 q 724 1063 699 1063 l 839 1063 q 870 1060 861 1063 q 883 1048 880 1057 q 890 1021 887 1039 l 1055 162 q 1065 136 1059 141 q 1097 132 1072 132 l 1183 132 q 1204 127 1199 132 q 1208 106 1208 123 l 1208 28 q 1204 5 1208 10 q 1181 0 1199 0 l 691 0 q 671 5 676 0 q 667 25 667 9 l 667 99 q 672 125 667 119 q 699 132 678 132 l 782 132 q 808 136 805 132 q 808 159 812 141 l 790 271 q 777 296 787 293 q 742 299 768 299 l 389 299 q 356 296 365 299 q 338 278 347 293 l 261 158 q 253 137 251 142 q 282 132 254 132 l 342 132 q 363 126 357 132 q 368 105 368 121 l 368 33 q 363 6 368 12 q 337 0 358 0 l -50 0 q -72 4 -68 0 q -76 26 -76 8 "},"Ą":{"ha":1326,"x_min":-76,"x_max":1208,"o":"m 827 -301 q 744 -290 780 -301 q 691 -254 708 -278 q 678 -189 674 -229 q 710 -119 683 -151 q 776 -59 738 -87 q 856 -9 815 -32 q 928 33 897 15 q 955 38 942 41 q 972 30 968 35 q 982 13 981 19 q 972 -4 983 6 q 927 -44 953 -22 q 880 -90 901 -65 q 852 -144 858 -115 q 858 -186 846 -170 q 901 -203 871 -203 q 946 -192 927 -203 q 979 -167 965 -181 q 1001 -162 992 -154 l 1023 -183 q 1028 -192 1028 -188 q 1022 -203 1027 -195 q 947 -271 992 -241 q 827 -301 901 -301 m 652 765 l 458 462 q 442 433 446 443 q 476 424 438 424 l 722 424 q 756 427 750 424 q 758 456 763 431 l 708 764 q 702 808 703 793 q 692 822 701 822 q 676 805 685 822 q 652 765 667 788 m -76 26 l -76 107 q -72 127 -76 123 q -52 132 -67 132 l 63 132 q 89 138 84 132 q 101 155 93 144 l 677 1036 q 693 1056 686 1050 q 724 1063 699 1063 l 839 1063 q 870 1060 861 1063 q 883 1048 880 1057 q 890 1021 887 1039 l 1055 162 q 1065 136 1059 141 q 1097 132 1072 132 l 1183 132 q 1204 127 1199 132 q 1208 106 1208 123 l 1208 28 q 1204 5 1208 10 q 1181 0 1199 0 l 691 0 q 671 5 676 0 q 667 25 667 9 l 667 99 q 672 125 667 119 q 699 132 678 132 l 782 132 q 808 136 805 132 q 808 159 812 141 l 790 271 q 777 296 787 293 q 742 299 768 299 l 389 299 q 356 296 365 299 q 338 278 347 293 l 261 158 q 253 137 251 142 q 282 132 254 132 l 342 132 q 363 126 357 132 q 368 105 368 121 l 368 33 q 363 6 368 12 q 337 0 358 0 l -50 0 q -72 4 -68 0 q -76 26 -76 8 "},"B":{"ha":1121,"x_min":-62,"x_max":1100,"o":"m 558 0 l -25 0 q -56 5 -49 0 q -62 35 -62 10 l -62 107 q -58 126 -62 121 q -40 132 -54 132 l 83 132 q 116 138 109 132 q 128 165 124 143 l 280 876 q 279 905 285 899 q 242 910 274 910 l 163 910 q 130 916 138 910 q 122 948 122 922 l 122 1010 q 131 1036 122 1031 q 159 1042 139 1042 l 753 1042 q 949 1009 872 1042 q 1063 920 1026 976 q 1100 795 1100 865 q 1042 636 1100 693 q 881 553 985 578 q 849 549 860 549 q 838 541 838 549 q 847 534 838 533 q 876 529 857 534 q 1003 459 961 508 q 1044 323 1044 410 q 1017 191 1044 250 q 932 89 990 131 q 782 23 874 46 q 558 0 690 0 m 544 132 q 664 149 616 132 q 741 195 712 167 q 782 259 769 224 q 794 330 794 294 q 775 414 794 381 q 722 461 756 446 q 642 476 688 476 l 465 476 q 435 470 442 476 q 424 444 428 464 l 365 165 q 364 138 360 144 q 394 132 368 132 l 544 132 m 485 601 l 642 601 q 718 612 679 601 q 790 647 756 624 q 844 704 824 669 q 864 785 864 738 q 831 878 864 847 q 739 910 797 910 l 550 910 q 525 905 528 910 q 517 883 522 900 l 464 631 q 462 608 460 615 q 485 601 463 601 "},"C":{"ha":1156,"x_min":56,"x_max":1203,"o":"m 1066 351 q 989 219 1038 285 q 870 99 940 153 q 709 12 800 45 q 507 -21 619 -21 q 275 27 376 -21 q 114 175 173 76 q 56 427 56 274 q 85 616 56 524 q 171 789 115 708 q 306 932 227 870 q 483 1028 385 993 q 694 1063 581 1063 q 862 1035 794 1063 q 972 965 930 1008 q 992 947 988 951 q 1010 959 996 942 l 1055 1022 q 1070 1036 1063 1031 q 1095 1042 1077 1042 l 1181 1042 q 1200 1038 1198 1042 q 1200 1019 1203 1034 l 1131 675 q 1123 652 1128 658 q 1097 646 1118 646 l 1022 646 q 1000 650 1003 646 q 997 670 996 655 q 967 811 1003 752 q 866 901 931 869 q 719 933 801 933 q 550 889 626 933 q 422 773 475 846 q 341 611 369 700 q 313 431 313 522 q 341 258 313 325 q 424 158 370 190 q 553 126 478 126 q 664 145 611 126 q 762 198 716 165 q 845 273 808 231 q 910 358 883 315 q 925 380 917 372 q 954 389 933 389 l 1028 389 q 1069 382 1063 389 q 1066 351 1076 374 "},"Ç":{"ha":1156,"x_min":56,"x_max":1203,"o":"m 256 -352 l 257 -312 q 266 -298 260 -301 q 283 -294 272 -294 q 343 -286 311 -292 q 399 -269 375 -281 q 427 -238 422 -258 q 414 -201 433 -214 q 363 -183 394 -188 q 301 -174 332 -177 q 280 -168 282 -172 q 287 -154 278 -163 l 428 -3 q 450 3 435 3 l 492 3 q 512 1 508 3 q 508 -10 516 -2 l 446 -78 q 435 -94 435 -90 q 454 -99 436 -97 q 546 -133 515 -103 q 564 -220 577 -162 q 522 -298 553 -268 q 448 -343 491 -327 q 359 -365 406 -359 q 272 -372 313 -371 q 256 -352 253 -373 m 1066 351 q 989 219 1038 285 q 870 99 940 153 q 709 12 800 45 q 507 -21 619 -21 q 275 27 376 -21 q 114 175 173 76 q 56 427 56 274 q 85 616 56 524 q 171 789 115 708 q 306 932 227 870 q 483 1028 385 993 q 694 1063 581 1063 q 862 1035 794 1063 q 972 965 930 1008 q 992 947 988 951 q 1010 959 996 942 l 1055 1022 q 1070 1036 1063 1031 q 1095 1042 1077 1042 l 1181 1042 q 1200 1038 1198 1042 q 1200 1019 1203 1034 l 1131 675 q 1123 652 1128 658 q 1097 646 1118 646 l 1022 646 q 1000 650 1003 646 q 997 670 996 655 q 967 811 1003 752 q 866 901 931 869 q 719 933 801 933 q 550 889 626 933 q 422 773 475 846 q 341 611 369 700 q 313 431 313 522 q 341 258 313 325 q 424 158 370 190 q 553 126 478 126 q 664 145 611 126 q 762 198 716 165 q 845 273 808 231 q 910 358 883 315 q 925 380 917 372 q 954 389 933 389 l 1028 389 q 1069 382 1063 389 q 1066 351 1076 374 "},"Ć":{"ha":1156,"x_min":56,"x_max":1203,"o":"m 1001 1382 q 1023 1307 1030 1344 q 979 1251 1015 1271 l 783 1144 q 770 1139 775 1138 q 759 1147 766 1140 l 708 1199 q 708 1223 697 1212 l 858 1390 q 905 1417 877 1412 q 959 1413 932 1422 q 1001 1382 985 1404 m 1066 351 q 989 219 1038 285 q 870 99 940 153 q 709 12 800 45 q 507 -21 619 -21 q 275 27 376 -21 q 114 175 173 76 q 56 427 56 274 q 85 616 56 524 q 171 789 115 708 q 306 932 227 870 q 483 1028 385 993 q 694 1063 581 1063 q 862 1035 794 1063 q 972 965 930 1008 q 992 947 988 951 q 1010 959 996 942 l 1055 1022 q 1070 1036 1063 1031 q 1095 1042 1077 1042 l 1181 1042 q 1200 1038 1198 1042 q 1200 1019 1203 1034 l 1131 675 q 1123 652 1128 658 q 1097 646 1118 646 l 1022 646 q 1000 650 1003 646 q 997 670 996 655 q 967 811 1003 752 q 866 901 931 869 q 719 933 801 933 q 550 889 626 933 q 422 773 475 846 q 341 611 369 700 q 313 431 313 522 q 341 258 313 325 q 424 158 370 190 q 553 126 478 126 q 664 145 611 126 q 762 198 716 165 q 845 273 808 231 q 910 358 883 315 q 925 380 917 372 q 954 389 933 389 l 1028 389 q 1069 382 1063 389 q 1066 351 1076 374 "},"Ĉ":{"ha":1156,"x_min":56,"x_max":1203,"o":"m 608 1156 l 578 1189 q 572 1200 571 1197 q 582 1211 574 1203 l 747 1366 q 763 1376 756 1374 q 786 1378 771 1378 l 880 1378 q 900 1375 894 1378 q 910 1366 906 1373 l 1006 1210 q 1009 1201 1010 1205 q 1001 1191 1008 1197 l 967 1157 q 955 1149 958 1149 q 944 1156 951 1150 l 835 1253 q 800 1254 819 1267 l 633 1152 q 619 1148 624 1147 q 608 1156 614 1150 m 1066 351 q 989 219 1038 285 q 870 99 940 153 q 709 12 800 45 q 507 -21 619 -21 q 275 27 376 -21 q 114 175 173 76 q 56 427 56 274 q 85 616 56 524 q 171 789 115 708 q 306 932 227 870 q 483 1028 385 993 q 694 1063 581 1063 q 862 1035 794 1063 q 972 965 930 1008 q 992 947 988 951 q 1010 959 996 942 l 1055 1022 q 1070 1036 1063 1031 q 1095 1042 1077 1042 l 1181 1042 q 1200 1038 1198 1042 q 1200 1019 1203 1034 l 1131 675 q 1123 652 1128 658 q 1097 646 1118 646 l 1022 646 q 1000 650 1003 646 q 997 670 996 655 q 967 811 1003 752 q 866 901 931 869 q 719 933 801 933 q 550 889 626 933 q 422 773 475 846 q 341 611 369 700 q 313 431 313 522 q 341 258 313 325 q 424 158 370 190 q 553 126 478 126 q 664 145 611 126 q 762 198 716 165 q 845 273 808 231 q 910 358 883 315 q 925 380 917 372 q 954 389 933 389 l 1028 389 q 1069 382 1063 389 q 1066 351 1076 374 "},"Ċ":{"ha":1156,"x_min":56,"x_max":1203,"o":"m 809 1201 q 733 1233 765 1201 q 701 1309 701 1265 q 733 1386 701 1354 q 809 1418 765 1418 q 886 1386 854 1418 q 917 1309 917 1354 q 886 1233 917 1265 q 809 1201 854 1201 m 1066 351 q 989 219 1038 285 q 870 99 940 153 q 709 12 800 45 q 507 -21 619 -21 q 275 27 376 -21 q 114 175 173 76 q 56 427 56 274 q 85 616 56 524 q 171 789 115 708 q 306 932 227 870 q 483 1028 385 993 q 694 1063 581 1063 q 862 1035 794 1063 q 972 965 930 1008 q 992 947 988 951 q 1010 959 996 942 l 1055 1022 q 1070 1036 1063 1031 q 1095 1042 1077 1042 l 1181 1042 q 1200 1038 1198 1042 q 1200 1019 1203 1034 l 1131 675 q 1123 652 1128 658 q 1097 646 1118 646 l 1022 646 q 1000 650 1003 646 q 997 670 996 655 q 967 811 1003 752 q 866 901 931 869 q 719 933 801 933 q 550 889 626 933 q 422 773 475 846 q 341 611 369 700 q 313 431 313 522 q 341 258 313 325 q 424 158 370 190 q 553 126 478 126 q 664 145 611 126 q 762 198 716 165 q 845 273 808 231 q 910 358 883 315 q 925 380 917 372 q 954 389 933 389 l 1028 389 q 1069 382 1063 389 q 1066 351 1076 374 "},"Č":{"ha":1156,"x_min":56,"x_max":1203,"o":"m 698 1173 l 608 1322 q 604 1334 603 1329 q 614 1346 605 1339 l 651 1376 q 666 1384 663 1385 q 679 1376 670 1383 l 782 1290 q 807 1280 794 1280 q 836 1290 819 1279 l 983 1381 q 998 1386 994 1388 q 1009 1376 1003 1384 l 1032 1349 q 1039 1336 1039 1340 q 1028 1322 1039 1331 l 868 1171 q 852 1159 860 1163 q 829 1156 845 1156 l 738 1156 q 712 1160 720 1156 q 698 1173 703 1165 m 1066 351 q 989 219 1038 285 q 870 99 940 153 q 709 12 800 45 q 507 -21 619 -21 q 275 27 376 -21 q 114 175 173 76 q 56 427 56 274 q 85 616 56 524 q 171 789 115 708 q 306 932 227 870 q 483 1028 385 993 q 694 1063 581 1063 q 862 1035 794 1063 q 972 965 930 1008 q 992 947 988 951 q 1010 959 996 942 l 1055 1022 q 1070 1036 1063 1031 q 1095 1042 1077 1042 l 1181 1042 q 1200 1038 1198 1042 q 1200 1019 1203 1034 l 1131 675 q 1123 652 1128 658 q 1097 646 1118 646 l 1022 646 q 1000 650 1003 646 q 997 670 996 655 q 967 811 1003 752 q 866 901 931 869 q 719 933 801 933 q 550 889 626 933 q 422 773 475 846 q 341 611 369 700 q 313 431 313 522 q 341 258 313 325 q 424 158 370 190 q 553 126 478 126 q 664 145 611 126 q 762 198 716 165 q 845 273 808 231 q 910 358 883 315 q 925 380 917 372 q 954 389 933 389 l 1028 389 q 1069 382 1063 389 q 1066 351 1076 374 "},"D":{"ha":1233,"x_min":-62,"x_max":1178,"o":"m -62 30 l -62 103 q -53 128 -62 124 q -24 132 -44 132 l 83 132 q 112 139 106 132 q 122 163 119 145 l 273 869 q 274 904 279 898 q 233 910 268 910 l 157 910 q 127 916 133 910 q 121 946 121 922 l 121 1004 q 128 1035 121 1028 q 159 1042 136 1042 l 706 1042 q 934 1007 843 1042 q 1079 916 1025 973 q 1155 788 1133 858 q 1178 646 1178 718 q 1121 371 1178 491 q 967 168 1064 251 q 748 43 870 85 q 497 0 626 0 l -30 0 q -55 5 -48 0 q -62 30 -62 10 m 393 132 l 497 132 q 662 171 585 132 q 797 282 739 210 q 888 454 856 354 q 921 674 921 553 q 909 773 921 730 q 871 848 897 817 q 800 894 844 878 q 692 910 756 910 l 558 910 q 523 905 530 910 q 510 876 516 900 l 359 165 q 360 138 354 144 q 393 132 366 132 "},"Ď":{"ha":1233,"x_min":-62,"x_max":1178,"o":"m 641 1173 l 551 1322 q 547 1334 546 1329 q 557 1346 548 1339 l 594 1376 q 609 1384 606 1385 q 622 1376 613 1383 l 725 1290 q 750 1280 738 1280 q 779 1290 762 1279 l 926 1381 q 941 1386 937 1388 q 952 1376 946 1384 l 975 1349 q 982 1336 982 1340 q 972 1322 982 1331 l 811 1171 q 795 1159 803 1163 q 772 1156 788 1156 l 681 1156 q 655 1160 663 1156 q 641 1173 647 1165 m -62 30 l -62 103 q -53 128 -62 124 q -24 132 -44 132 l 83 132 q 112 139 106 132 q 122 163 119 145 l 273 869 q 274 904 279 898 q 233 910 268 910 l 157 910 q 127 916 133 910 q 121 946 121 922 l 121 1004 q 128 1035 121 1028 q 159 1042 136 1042 l 706 1042 q 934 1007 843 1042 q 1079 916 1025 973 q 1155 788 1133 858 q 1178 646 1178 718 q 1121 371 1178 491 q 967 168 1064 251 q 748 43 870 85 q 497 0 626 0 l -30 0 q -55 5 -48 0 q -62 30 -62 10 m 393 132 l 497 132 q 662 171 585 132 q 797 282 739 210 q 888 454 856 354 q 921 674 921 553 q 909 773 921 730 q 871 848 897 817 q 800 894 844 878 q 692 910 756 910 l 558 910 q 523 905 530 910 q 510 876 516 900 l 359 165 q 360 138 354 144 q 393 132 366 132 "},"E":{"ha":1068,"x_min":-62,"x_max":1134,"o":"m 430 467 l 362 169 q 361 139 357 147 q 394 132 365 132 l 560 132 q 716 152 651 132 q 825 223 781 172 q 898 371 869 275 q 909 396 903 389 q 940 403 915 403 l 984 403 q 1012 397 1009 403 q 1011 372 1015 390 l 937 38 q 923 7 931 14 q 884 0 915 0 l -34 0 q -56 4 -50 0 q -62 26 -62 8 l -62 95 q -56 126 -62 120 q -26 132 -50 132 l 78 132 q 113 137 106 132 q 125 165 120 142 l 287 876 q 287 903 291 897 q 256 910 283 910 l 164 910 q 137 915 144 910 q 131 941 131 920 l 131 1019 q 138 1038 131 1035 q 160 1042 146 1042 l 1095 1042 q 1131 1033 1127 1042 q 1129 1001 1134 1025 l 1065 706 q 1054 675 1060 683 q 1019 667 1049 667 l 972 667 q 949 677 949 667 q 952 703 949 687 q 952 827 965 782 q 895 891 938 872 q 774 910 852 910 l 568 910 q 535 904 542 910 q 522 877 527 899 l 463 610 q 463 592 459 596 q 483 588 467 588 l 515 588 q 625 616 582 588 q 690 694 667 644 q 704 722 699 710 q 736 733 709 733 l 769 733 q 797 727 794 733 q 796 702 800 722 l 720 369 q 711 344 716 351 q 683 338 706 338 l 643 338 q 621 347 622 338 q 621 372 619 356 q 595 458 626 426 q 500 490 565 490 l 458 490 q 437 486 441 490 q 430 467 433 482 "},"È":{"ha":1068,"x_min":-62,"x_max":1134,"o":"m 482 1382 q 525 1413 499 1404 q 580 1416 552 1422 q 626 1390 608 1411 l 774 1224 q 775 1199 787 1211 l 724 1146 q 714 1138 718 1140 q 703 1142 710 1137 l 504 1251 q 460 1308 466 1272 q 482 1382 453 1344 m 430 467 l 362 169 q 361 139 357 147 q 394 132 365 132 l 560 132 q 716 152 651 132 q 825 223 781 172 q 898 371 869 275 q 909 396 903 389 q 940 403 915 403 l 984 403 q 1012 397 1009 403 q 1011 372 1015 390 l 937 38 q 923 7 931 14 q 884 0 915 0 l -34 0 q -56 4 -50 0 q -62 26 -62 8 l -62 95 q -56 126 -62 120 q -26 132 -50 132 l 78 132 q 113 137 106 132 q 125 165 120 142 l 287 876 q 287 903 291 897 q 256 910 283 910 l 164 910 q 137 915 144 910 q 131 941 131 920 l 131 1019 q 138 1038 131 1035 q 160 1042 146 1042 l 1095 1042 q 1131 1033 1127 1042 q 1129 1001 1134 1025 l 1065 706 q 1054 675 1060 683 q 1019 667 1049 667 l 972 667 q 949 677 949 667 q 952 703 949 687 q 952 827 965 782 q 895 891 938 872 q 774 910 852 910 l 568 910 q 535 904 542 910 q 522 877 527 899 l 463 610 q 463 592 459 596 q 483 588 467 588 l 515 588 q 625 616 582 588 q 690 694 667 644 q 704 722 699 710 q 736 733 709 733 l 769 733 q 797 727 794 733 q 796 702 800 722 l 720 369 q 711 344 716 351 q 683 338 706 338 l 643 338 q 621 347 622 338 q 621 372 619 356 q 595 458 626 426 q 500 490 565 490 l 458 490 q 437 486 441 490 q 430 467 433 482 "},"É":{"ha":1068,"x_min":-62,"x_max":1134,"o":"m 910 1382 q 931 1307 938 1344 q 888 1251 924 1271 l 692 1144 q 679 1139 683 1138 q 667 1147 674 1140 l 617 1199 q 617 1223 605 1212 l 766 1390 q 813 1417 785 1412 q 867 1413 840 1422 q 910 1382 894 1404 m 430 467 l 362 169 q 361 139 357 147 q 394 132 365 132 l 560 132 q 716 152 651 132 q 825 223 781 172 q 898 371 869 275 q 909 396 903 389 q 940 403 915 403 l 984 403 q 1012 397 1009 403 q 1011 372 1015 390 l 937 38 q 923 7 931 14 q 884 0 915 0 l -34 0 q -56 4 -50 0 q -62 26 -62 8 l -62 95 q -56 126 -62 120 q -26 132 -50 132 l 78 132 q 113 137 106 132 q 125 165 120 142 l 287 876 q 287 903 291 897 q 256 910 283 910 l 164 910 q 137 915 144 910 q 131 941 131 920 l 131 1019 q 138 1038 131 1035 q 160 1042 146 1042 l 1095 1042 q 1131 1033 1127 1042 q 1129 1001 1134 1025 l 1065 706 q 1054 675 1060 683 q 1019 667 1049 667 l 972 667 q 949 677 949 667 q 952 703 949 687 q 952 827 965 782 q 895 891 938 872 q 774 910 852 910 l 568 910 q 535 904 542 910 q 522 877 527 899 l 463 610 q 463 592 459 596 q 483 588 467 588 l 515 588 q 625 616 582 588 q 690 694 667 644 q 704 722 699 710 q 736 733 709 733 l 769 733 q 797 727 794 733 q 796 702 800 722 l 720 369 q 711 344 716 351 q 683 338 706 338 l 643 338 q 621 347 622 338 q 621 372 619 356 q 595 458 626 426 q 500 490 565 490 l 458 490 q 437 486 441 490 q 430 467 433 482 "},"Ê":{"ha":1068,"x_min":-62,"x_max":1134,"o":"m 517 1156 l 486 1189 q 481 1200 479 1197 q 490 1211 482 1203 l 656 1366 q 672 1376 664 1374 q 694 1378 679 1378 l 788 1378 q 808 1375 802 1378 q 818 1366 814 1373 l 915 1210 q 917 1201 918 1205 q 910 1191 916 1197 l 875 1157 q 863 1149 866 1149 q 852 1156 860 1150 l 743 1253 q 708 1254 728 1267 l 541 1152 q 527 1148 532 1147 q 517 1156 522 1150 m 430 467 l 362 169 q 361 139 357 147 q 394 132 365 132 l 560 132 q 716 152 651 132 q 825 223 781 172 q 898 371 869 275 q 909 396 903 389 q 940 403 915 403 l 984 403 q 1012 397 1009 403 q 1011 372 1015 390 l 937 38 q 923 7 931 14 q 884 0 915 0 l -34 0 q -56 4 -50 0 q -62 26 -62 8 l -62 95 q -56 126 -62 120 q -26 132 -50 132 l 78 132 q 113 137 106 132 q 125 165 120 142 l 287 876 q 287 903 291 897 q 256 910 283 910 l 164 910 q 137 915 144 910 q 131 941 131 920 l 131 1019 q 138 1038 131 1035 q 160 1042 146 1042 l 1095 1042 q 1131 1033 1127 1042 q 1129 1001 1134 1025 l 1065 706 q 1054 675 1060 683 q 1019 667 1049 667 l 972 667 q 949 677 949 667 q 952 703 949 687 q 952 827 965 782 q 895 891 938 872 q 774 910 852 910 l 568 910 q 535 904 542 910 q 522 877 527 899 l 463 610 q 463 592 459 596 q 483 588 467 588 l 515 588 q 625 616 582 588 q 690 694 667 644 q 704 722 699 710 q 736 733 709 733 l 769 733 q 797 727 794 733 q 796 702 800 722 l 720 369 q 711 344 716 351 q 683 338 706 338 l 643 338 q 621 347 622 338 q 621 372 619 356 q 595 458 626 426 q 500 490 565 490 l 458 490 q 437 486 441 490 q 430 467 433 482 "},"Ë":{"ha":1068,"x_min":-62,"x_max":1134,"o":"m 856 1174 q 785 1203 815 1174 q 756 1274 756 1233 q 785 1345 756 1315 q 856 1374 815 1374 q 926 1345 897 1374 q 956 1274 956 1315 q 926 1203 956 1233 q 856 1174 897 1174 m 550 1174 q 480 1203 509 1174 q 450 1274 450 1233 q 480 1345 450 1315 q 550 1374 509 1374 q 621 1345 592 1374 q 650 1274 650 1315 q 621 1203 650 1233 q 550 1174 592 1174 m 430 467 l 362 169 q 361 139 357 147 q 394 132 365 132 l 560 132 q 716 152 651 132 q 825 223 781 172 q 898 371 869 275 q 909 396 903 389 q 940 403 915 403 l 984 403 q 1012 397 1009 403 q 1011 372 1015 390 l 937 38 q 923 7 931 14 q 884 0 915 0 l -34 0 q -56 4 -50 0 q -62 26 -62 8 l -62 95 q -56 126 -62 120 q -26 132 -50 132 l 78 132 q 113 137 106 132 q 125 165 120 142 l 287 876 q 287 903 291 897 q 256 910 283 910 l 164 910 q 137 915 144 910 q 131 941 131 920 l 131 1019 q 138 1038 131 1035 q 160 1042 146 1042 l 1095 1042 q 1131 1033 1127 1042 q 1129 1001 1134 1025 l 1065 706 q 1054 675 1060 683 q 1019 667 1049 667 l 972 667 q 949 677 949 667 q 952 703 949 687 q 952 827 965 782 q 895 891 938 872 q 774 910 852 910 l 568 910 q 535 904 542 910 q 522 877 527 899 l 463 610 q 463 592 459 596 q 483 588 467 588 l 515 588 q 625 616 582 588 q 690 694 667 644 q 704 722 699 710 q 736 733 709 733 l 769 733 q 797 727 794 733 q 796 702 800 722 l 720 369 q 711 344 716 351 q 683 338 706 338 l 643 338 q 621 347 622 338 q 621 372 619 356 q 595 458 626 426 q 500 490 565 490 l 458 490 q 437 486 441 490 q 430 467 433 482 "},"Ē":{"ha":1068,"x_min":-62,"x_max":1134,"o":"m 523 1172 l 523 1229 q 525 1243 523 1239 q 537 1248 528 1248 l 833 1248 q 851 1244 846 1248 q 856 1226 856 1240 l 856 1170 q 854 1154 856 1159 q 841 1149 852 1149 l 547 1149 q 528 1153 534 1149 q 523 1172 523 1157 m 430 467 l 362 169 q 361 139 357 147 q 394 132 365 132 l 560 132 q 716 152 651 132 q 825 223 781 172 q 898 371 869 275 q 909 396 903 389 q 940 403 915 403 l 984 403 q 1012 397 1009 403 q 1011 372 1015 390 l 937 38 q 923 7 931 14 q 884 0 915 0 l -34 0 q -56 4 -50 0 q -62 26 -62 8 l -62 95 q -56 126 -62 120 q -26 132 -50 132 l 78 132 q 113 137 106 132 q 125 165 120 142 l 287 876 q 287 903 291 897 q 256 910 283 910 l 164 910 q 137 915 144 910 q 131 941 131 920 l 131 1019 q 138 1038 131 1035 q 160 1042 146 1042 l 1095 1042 q 1131 1033 1127 1042 q 1129 1001 1134 1025 l 1065 706 q 1054 675 1060 683 q 1019 667 1049 667 l 972 667 q 949 677 949 667 q 952 703 949 687 q 952 827 965 782 q 895 891 938 872 q 774 910 852 910 l 568 910 q 535 904 542 910 q 522 877 527 899 l 463 610 q 463 592 459 596 q 483 588 467 588 l 515 588 q 625 616 582 588 q 690 694 667 644 q 704 722 699 710 q 736 733 709 733 l 769 733 q 797 727 794 733 q 796 702 800 722 l 720 369 q 711 344 716 351 q 683 338 706 338 l 643 338 q 621 347 622 338 q 621 372 619 356 q 595 458 626 426 q 500 490 565 490 l 458 490 q 437 486 441 490 q 430 467 433 482 "},"Ĕ":{"ha":1068,"x_min":-62,"x_max":1134,"o":"m 696 1146 q 594 1170 628 1146 q 552 1240 560 1194 q 558 1347 545 1285 q 577 1360 561 1360 l 622 1360 q 632 1349 633 1360 q 646 1295 628 1315 q 715 1274 664 1274 q 790 1292 763 1274 q 829 1340 817 1310 q 836 1355 833 1349 q 851 1360 838 1360 l 901 1360 q 913 1357 912 1360 q 911 1343 914 1353 q 838 1199 888 1252 q 696 1146 787 1146 m 430 467 l 362 169 q 361 139 357 147 q 394 132 365 132 l 560 132 q 716 152 651 132 q 825 223 781 172 q 898 371 869 275 q 909 396 903 389 q 940 403 915 403 l 984 403 q 1012 397 1009 403 q 1011 372 1015 390 l 937 38 q 923 7 931 14 q 884 0 915 0 l -34 0 q -56 4 -50 0 q -62 26 -62 8 l -62 95 q -56 126 -62 120 q -26 132 -50 132 l 78 132 q 113 137 106 132 q 125 165 120 142 l 287 876 q 287 903 291 897 q 256 910 283 910 l 164 910 q 137 915 144 910 q 131 941 131 920 l 131 1019 q 138 1038 131 1035 q 160 1042 146 1042 l 1095 1042 q 1131 1033 1127 1042 q 1129 1001 1134 1025 l 1065 706 q 1054 675 1060 683 q 1019 667 1049 667 l 972 667 q 949 677 949 667 q 952 703 949 687 q 952 827 965 782 q 895 891 938 872 q 774 910 852 910 l 568 910 q 535 904 542 910 q 522 877 527 899 l 463 610 q 463 592 459 596 q 483 588 467 588 l 515 588 q 625 616 582 588 q 690 694 667 644 q 704 722 699 710 q 736 733 709 733 l 769 733 q 797 727 794 733 q 796 702 800 722 l 720 369 q 711 344 716 351 q 683 338 706 338 l 643 338 q 621 347 622 338 q 621 372 619 356 q 595 458 626 426 q 500 490 565 490 l 458 490 q 437 486 441 490 q 430 467 433 482 "},"Ė":{"ha":1068,"x_min":-62,"x_max":1134,"o":"m 717 1201 q 641 1233 673 1201 q 609 1309 609 1265 q 641 1386 609 1354 q 717 1418 673 1418 q 794 1386 763 1418 q 826 1309 826 1354 q 794 1233 826 1265 q 717 1201 763 1201 m 430 467 l 362 169 q 361 139 357 147 q 394 132 365 132 l 560 132 q 716 152 651 132 q 825 223 781 172 q 898 371 869 275 q 909 396 903 389 q 940 403 915 403 l 984 403 q 1012 397 1009 403 q 1011 372 1015 390 l 937 38 q 923 7 931 14 q 884 0 915 0 l -34 0 q -56 4 -50 0 q -62 26 -62 8 l -62 95 q -56 126 -62 120 q -26 132 -50 132 l 78 132 q 113 137 106 132 q 125 165 120 142 l 287 876 q 287 903 291 897 q 256 910 283 910 l 164 910 q 137 915 144 910 q 131 941 131 920 l 131 1019 q 138 1038 131 1035 q 160 1042 146 1042 l 1095 1042 q 1131 1033 1127 1042 q 1129 1001 1134 1025 l 1065 706 q 1054 675 1060 683 q 1019 667 1049 667 l 972 667 q 949 677 949 667 q 952 703 949 687 q 952 827 965 782 q 895 891 938 872 q 774 910 852 910 l 568 910 q 535 904 542 910 q 522 877 527 899 l 463 610 q 463 592 459 596 q 483 588 467 588 l 515 588 q 625 616 582 588 q 690 694 667 644 q 704 722 699 710 q 736 733 709 733 l 769 733 q 797 727 794 733 q 796 702 800 722 l 720 369 q 711 344 716 351 q 683 338 706 338 l 643 338 q 621 347 622 338 q 621 372 619 356 q 595 458 626 426 q 500 490 565 490 l 458 490 q 437 486 441 490 q 430 467 433 482 "},"Ę":{"ha":1068,"x_min":-62,"x_max":1134,"o":"m 710 -284 q 627 -273 663 -284 q 574 -236 591 -261 q 561 -172 556 -212 q 593 -102 566 -134 q 659 -42 620 -69 q 739 9 698 -15 q 811 51 779 32 q 838 55 824 58 q 854 47 851 52 q 865 30 864 37 q 855 13 865 23 q 809 -26 835 -5 q 762 -73 783 -48 q 735 -126 741 -98 q 741 -169 728 -153 q 784 -185 753 -185 q 829 -175 810 -185 q 862 -150 848 -164 q 883 -145 875 -137 l 906 -166 q 910 -174 911 -171 q 904 -185 910 -178 q 829 -254 874 -224 q 710 -284 784 -284 m 430 467 l 362 169 q 361 139 357 147 q 394 132 365 132 l 560 132 q 716 152 651 132 q 825 223 781 172 q 898 371 869 275 q 909 396 903 389 q 940 403 915 403 l 984 403 q 1012 397 1009 403 q 1011 372 1015 390 l 937 38 q 923 7 931 14 q 884 0 915 0 l -34 0 q -56 4 -50 0 q -62 26 -62 8 l -62 95 q -56 126 -62 120 q -26 132 -50 132 l 78 132 q 113 137 106 132 q 125 165 120 142 l 287 876 q 287 903 291 897 q 256 910 283 910 l 164 910 q 137 915 144 910 q 131 941 131 920 l 131 1019 q 138 1038 131 1035 q 160 1042 146 1042 l 1095 1042 q 1131 1033 1127 1042 q 1129 1001 1134 1025 l 1065 706 q 1054 675 1060 683 q 1019 667 1049 667 l 972 667 q 949 677 949 667 q 952 703 949 687 q 952 827 965 782 q 895 891 938 872 q 774 910 852 910 l 568 910 q 535 904 542 910 q 522 877 527 899 l 463 610 q 463 592 459 596 q 483 588 467 588 l 515 588 q 625 616 582 588 q 690 694 667 644 q 704 722 699 710 q 736 733 709 733 l 769 733 q 797 727 794 733 q 796 702 800 722 l 720 369 q 711 344 716 351 q 683 338 706 338 l 643 338 q 621 347 622 338 q 621 372 619 356 q 595 458 626 426 q 500 490 565 490 l 458 490 q 437 486 441 490 q 430 467 433 482 "},"Ě":{"ha":1068,"x_min":-62,"x_max":1134,"o":"m 606 1173 l 516 1322 q 512 1334 511 1329 q 522 1346 513 1339 l 560 1376 q 575 1384 571 1385 q 588 1376 578 1383 l 690 1290 q 715 1280 703 1280 q 744 1290 727 1279 l 891 1381 q 907 1386 902 1388 q 917 1376 911 1384 l 940 1349 q 947 1336 947 1340 q 937 1322 947 1331 l 776 1171 q 761 1159 768 1163 q 738 1156 753 1156 l 646 1156 q 620 1160 628 1156 q 606 1173 612 1165 m 430 467 l 362 169 q 361 139 357 147 q 394 132 365 132 l 560 132 q 716 152 651 132 q 825 223 781 172 q 898 371 869 275 q 909 396 903 389 q 940 403 915 403 l 984 403 q 1012 397 1009 403 q 1011 372 1015 390 l 937 38 q 923 7 931 14 q 884 0 915 0 l -34 0 q -56 4 -50 0 q -62 26 -62 8 l -62 95 q -56 126 -62 120 q -26 132 -50 132 l 78 132 q 113 137 106 132 q 125 165 120 142 l 287 876 q 287 903 291 897 q 256 910 283 910 l 164 910 q 137 915 144 910 q 131 941 131 920 l 131 1019 q 138 1038 131 1035 q 160 1042 146 1042 l 1095 1042 q 1131 1033 1127 1042 q 1129 1001 1134 1025 l 1065 706 q 1054 675 1060 683 q 1019 667 1049 667 l 972 667 q 949 677 949 667 q 952 703 949 687 q 952 827 965 782 q 895 891 938 872 q 774 910 852 910 l 568 910 q 535 904 542 910 q 522 877 527 899 l 463 610 q 463 592 459 596 q 483 588 467 588 l 515 588 q 625 616 582 588 q 690 694 667 644 q 704 722 699 710 q 736 733 709 733 l 769 733 q 797 727 794 733 q 796 702 800 722 l 720 369 q 711 344 716 351 q 683 338 706 338 l 643 338 q 621 347 622 338 q 621 372 619 356 q 595 458 626 426 q 500 490 565 490 l 458 490 q 437 486 441 490 q 430 467 433 482 "},"F":{"ha":1068,"x_min":-62,"x_max":1142,"o":"m -62 28 l -62 103 q -57 127 -62 122 q -33 132 -51 132 l 81 132 q 108 137 103 132 q 117 160 113 142 l 280 880 q 281 904 284 899 q 253 910 277 910 l 160 910 q 130 915 135 910 q 124 945 124 921 l 124 1015 q 128 1037 124 1032 q 149 1042 133 1042 l 1103 1042 q 1138 1036 1134 1042 q 1137 1006 1142 1030 l 1066 687 q 1058 661 1062 669 q 1029 653 1053 653 l 970 653 q 945 661 947 653 q 947 685 944 669 q 948 817 961 768 q 889 888 934 867 q 764 910 844 910 l 565 910 q 530 905 539 910 q 516 878 521 900 l 449 584 q 449 570 447 576 q 463 564 451 564 l 503 564 q 623 598 576 564 q 691 690 669 632 q 698 707 695 701 q 715 713 700 713 l 773 713 q 794 708 791 713 q 794 691 798 704 l 703 308 q 695 292 701 296 q 673 289 689 289 l 626 289 q 603 296 605 289 q 603 319 601 303 q 584 425 610 390 q 487 459 557 459 l 438 459 q 425 457 430 459 q 419 449 420 456 l 352 156 q 353 136 349 140 q 375 132 356 132 l 502 132 q 521 126 518 132 q 524 105 524 121 l 524 25 q 517 4 524 8 q 494 0 511 0 l -35 0 q -57 5 -51 0 q -62 28 -62 10 "},"G":{"ha":1267,"x_min":56,"x_max":1246,"o":"m 731 528 l 1217 528 q 1240 523 1233 528 q 1246 501 1246 519 l 1246 435 q 1240 408 1246 414 q 1213 403 1235 403 l 1120 403 q 1095 397 1100 403 q 1088 376 1091 392 l 1054 232 q 1041 202 1049 210 q 1017 183 1033 194 q 907 96 976 144 q 738 14 837 49 q 513 -21 640 -21 q 276 31 378 -21 q 114 183 173 83 q 56 427 56 283 q 85 616 56 524 q 171 789 115 708 q 306 932 227 870 q 483 1028 385 993 q 694 1063 581 1063 q 856 1038 790 1063 q 965 973 922 1013 q 985 953 978 960 q 997 948 991 946 q 1016 967 1003 951 l 1059 1026 q 1074 1038 1066 1035 q 1099 1042 1083 1042 l 1175 1042 q 1199 1038 1195 1042 q 1199 1016 1203 1033 l 1131 678 q 1121 652 1128 658 q 1090 646 1114 646 l 1025 646 q 1000 651 1004 646 q 997 674 996 656 q 967 812 1003 754 q 866 901 931 870 q 719 933 801 933 q 550 889 626 933 q 422 773 475 846 q 341 611 369 700 q 313 431 313 522 q 337 262 313 332 q 412 155 362 192 q 542 117 463 117 q 684 140 626 117 q 794 210 742 163 q 813 231 807 222 q 824 260 819 240 l 854 379 q 853 399 857 394 q 833 403 849 403 l 733 403 q 710 407 715 403 q 704 428 704 411 l 704 505 q 710 524 704 520 q 731 528 717 528 "},"Ĝ":{"ha":1267,"x_min":56,"x_max":1246,"o":"m 608 1156 l 578 1189 q 572 1200 571 1197 q 582 1211 574 1203 l 747 1366 q 763 1376 756 1374 q 786 1378 771 1378 l 880 1378 q 900 1375 894 1378 q 910 1366 906 1373 l 1006 1210 q 1009 1201 1010 1205 q 1001 1191 1008 1197 l 967 1157 q 955 1149 958 1149 q 944 1156 951 1150 l 835 1253 q 800 1254 819 1267 l 633 1152 q 619 1148 624 1147 q 608 1156 614 1150 m 731 528 l 1217 528 q 1240 523 1233 528 q 1246 501 1246 519 l 1246 435 q 1240 408 1246 414 q 1213 403 1235 403 l 1120 403 q 1095 397 1100 403 q 1088 376 1091 392 l 1054 232 q 1041 202 1049 210 q 1017 183 1033 194 q 907 96 976 144 q 738 14 837 49 q 513 -21 640 -21 q 276 31 378 -21 q 114 183 173 83 q 56 427 56 283 q 85 616 56 524 q 171 789 115 708 q 306 932 227 870 q 483 1028 385 993 q 694 1063 581 1063 q 856 1038 790 1063 q 965 973 922 1013 q 985 953 978 960 q 997 948 991 946 q 1016 967 1003 951 l 1059 1026 q 1074 1038 1066 1035 q 1099 1042 1083 1042 l 1175 1042 q 1199 1038 1195 1042 q 1199 1016 1203 1033 l 1131 678 q 1121 652 1128 658 q 1090 646 1114 646 l 1025 646 q 1000 651 1004 646 q 997 674 996 656 q 967 812 1003 754 q 866 901 931 870 q 719 933 801 933 q 550 889 626 933 q 422 773 475 846 q 341 611 369 700 q 313 431 313 522 q 337 262 313 332 q 412 155 362 192 q 542 117 463 117 q 684 140 626 117 q 794 210 742 163 q 813 231 807 222 q 824 260 819 240 l 854 379 q 853 399 857 394 q 833 403 849 403 l 733 403 q 710 407 715 403 q 704 428 704 411 l 704 505 q 710 524 704 520 q 731 528 717 528 "},"Ğ":{"ha":1267,"x_min":56,"x_max":1246,"o":"m 788 1146 q 685 1170 719 1146 q 644 1240 651 1194 q 650 1347 637 1285 q 669 1360 653 1360 l 713 1360 q 724 1349 724 1360 q 738 1295 720 1315 q 806 1274 756 1274 q 881 1292 854 1274 q 921 1340 908 1310 q 927 1355 925 1349 q 942 1360 930 1360 l 992 1360 q 1005 1357 1003 1360 q 1003 1343 1006 1353 q 929 1199 980 1252 q 788 1146 878 1146 m 731 528 l 1217 528 q 1240 523 1233 528 q 1246 501 1246 519 l 1246 435 q 1240 408 1246 414 q 1213 403 1235 403 l 1120 403 q 1095 397 1100 403 q 1088 376 1091 392 l 1054 232 q 1041 202 1049 210 q 1017 183 1033 194 q 907 96 976 144 q 738 14 837 49 q 513 -21 640 -21 q 276 31 378 -21 q 114 183 173 83 q 56 427 56 283 q 85 616 56 524 q 171 789 115 708 q 306 932 227 870 q 483 1028 385 993 q 694 1063 581 1063 q 856 1038 790 1063 q 965 973 922 1013 q 985 953 978 960 q 997 948 991 946 q 1016 967 1003 951 l 1059 1026 q 1074 1038 1066 1035 q 1099 1042 1083 1042 l 1175 1042 q 1199 1038 1195 1042 q 1199 1016 1203 1033 l 1131 678 q 1121 652 1128 658 q 1090 646 1114 646 l 1025 646 q 1000 651 1004 646 q 997 674 996 656 q 967 812 1003 754 q 866 901 931 870 q 719 933 801 933 q 550 889 626 933 q 422 773 475 846 q 341 611 369 700 q 313 431 313 522 q 337 262 313 332 q 412 155 362 192 q 542 117 463 117 q 684 140 626 117 q 794 210 742 163 q 813 231 807 222 q 824 260 819 240 l 854 379 q 853 399 857 394 q 833 403 849 403 l 733 403 q 710 407 715 403 q 704 428 704 411 l 704 505 q 710 524 704 520 q 731 528 717 528 "},"Ġ":{"ha":1267,"x_min":56,"x_max":1246,"o":"m 809 1201 q 733 1233 765 1201 q 701 1309 701 1265 q 733 1386 701 1354 q 809 1418 765 1418 q 886 1386 854 1418 q 917 1309 917 1354 q 886 1233 917 1265 q 809 1201 854 1201 m 731 528 l 1217 528 q 1240 523 1233 528 q 1246 501 1246 519 l 1246 435 q 1240 408 1246 414 q 1213 403 1235 403 l 1120 403 q 1095 397 1100 403 q 1088 376 1091 392 l 1054 232 q 1041 202 1049 210 q 1017 183 1033 194 q 907 96 976 144 q 738 14 837 49 q 513 -21 640 -21 q 276 31 378 -21 q 114 183 173 83 q 56 427 56 283 q 85 616 56 524 q 171 789 115 708 q 306 932 227 870 q 483 1028 385 993 q 694 1063 581 1063 q 856 1038 790 1063 q 965 973 922 1013 q 985 953 978 960 q 997 948 991 946 q 1016 967 1003 951 l 1059 1026 q 1074 1038 1066 1035 q 1099 1042 1083 1042 l 1175 1042 q 1199 1038 1195 1042 q 1199 1016 1203 1033 l 1131 678 q 1121 652 1128 658 q 1090 646 1114 646 l 1025 646 q 1000 651 1004 646 q 997 674 996 656 q 967 812 1003 754 q 866 901 931 870 q 719 933 801 933 q 550 889 626 933 q 422 773 475 846 q 341 611 369 700 q 313 431 313 522 q 337 262 313 332 q 412 155 362 192 q 542 117 463 117 q 684 140 626 117 q 794 210 742 163 q 813 231 807 222 q 824 260 819 240 l 854 379 q 853 399 857 394 q 833 403 849 403 l 733 403 q 710 407 715 403 q 704 428 704 411 l 704 505 q 710 524 704 520 q 731 528 717 528 "},"Ģ":{"ha":1267,"x_min":56,"x_max":1246,"o":"m 331 -231 q 363 -160 331 -187 q 440 -133 395 -133 q 496 -148 469 -133 q 539 -192 522 -162 q 556 -272 556 -222 q 533 -354 556 -317 q 475 -418 511 -391 q 396 -461 439 -445 q 310 -479 353 -476 q 297 -478 300 -480 q 293 -465 293 -476 l 293 -424 q 297 -414 293 -415 q 308 -412 301 -413 q 373 -396 338 -409 q 436 -363 408 -383 q 472 -316 464 -342 q 473 -304 478 -305 q 458 -308 467 -303 q 438 -317 449 -314 q 410 -320 426 -320 q 352 -296 372 -320 q 331 -231 331 -272 m 731 528 l 1217 528 q 1240 523 1233 528 q 1246 501 1246 519 l 1246 435 q 1240 408 1246 414 q 1213 403 1235 403 l 1120 403 q 1095 397 1100 403 q 1088 376 1091 392 l 1054 232 q 1041 202 1049 210 q 1017 183 1033 194 q 907 96 976 144 q 738 14 837 49 q 513 -21 640 -21 q 276 31 378 -21 q 114 183 173 83 q 56 427 56 283 q 85 616 56 524 q 171 789 115 708 q 306 932 227 870 q 483 1028 385 993 q 694 1063 581 1063 q 856 1038 790 1063 q 965 973 922 1013 q 985 953 978 960 q 997 948 991 946 q 1016 967 1003 951 l 1059 1026 q 1074 1038 1066 1035 q 1099 1042 1083 1042 l 1175 1042 q 1199 1038 1195 1042 q 1199 1016 1203 1033 l 1131 678 q 1121 652 1128 658 q 1090 646 1114 646 l 1025 646 q 1000 651 1004 646 q 997 674 996 656 q 967 812 1003 754 q 866 901 931 870 q 719 933 801 933 q 550 889 626 933 q 422 773 475 846 q 341 611 369 700 q 313 431 313 522 q 337 262 313 332 q 412 155 362 192 q 542 117 463 117 q 684 140 626 117 q 794 210 742 163 q 813 231 807 222 q 824 260 819 240 l 854 379 q 853 399 857 394 q 833 403 849 403 l 733 403 q 710 407 715 403 q 704 428 704 411 l 704 505 q 710 524 704 520 q 731 528 717 528 "},"H":{"ha":1306,"x_min":-62,"x_max":1368,"o":"m -62 31 l -62 100 q -55 127 -62 122 q -27 132 -48 132 l 67 132 q 107 138 98 132 q 122 170 116 144 l 274 883 q 273 905 277 901 q 248 910 269 910 l 153 910 q 128 914 134 910 q 122 938 122 918 l 122 1008 q 127 1036 122 1031 q 156 1042 133 1042 l 645 1042 q 666 1036 663 1042 q 670 1013 670 1031 l 670 940 q 664 915 670 919 q 638 910 658 910 l 549 910 q 519 904 525 910 q 508 878 513 899 l 456 633 q 455 607 452 614 q 483 601 458 601 l 874 601 q 899 606 896 601 q 906 627 903 610 l 960 882 q 961 904 965 899 q 938 910 958 910 l 856 910 q 831 915 836 910 q 826 940 826 921 l 826 1017 q 832 1037 826 1033 q 852 1042 837 1042 l 1338 1042 q 1363 1039 1358 1042 q 1368 1015 1368 1035 l 1368 940 q 1363 915 1368 920 q 1340 910 1358 910 l 1238 910 q 1207 905 1213 910 q 1197 880 1201 900 l 1044 167 q 1043 138 1039 144 q 1076 132 1047 132 l 1161 132 q 1186 127 1181 132 q 1191 102 1191 122 l 1191 29 q 1186 5 1191 10 q 1162 0 1181 0 l 674 0 q 651 5 656 0 q 646 29 646 10 l 646 106 q 652 128 646 124 q 676 132 659 132 l 768 132 q 799 138 794 132 q 808 164 803 143 l 867 445 q 867 471 872 466 q 835 476 863 476 l 450 476 q 424 470 427 476 q 417 447 420 465 l 356 163 q 355 139 352 146 q 380 132 357 132 l 463 132 q 488 126 483 132 q 493 101 493 121 l 493 31 q 487 5 493 10 q 460 0 481 0 l -29 0 q -56 5 -50 0 q -62 31 -62 10 "},"Ĥ":{"ha":1306,"x_min":-62,"x_max":1368,"o":"m 588 1156 l 558 1189 q 552 1200 551 1197 q 562 1211 553 1203 l 727 1366 q 743 1376 735 1374 q 766 1378 751 1378 l 860 1378 q 880 1375 874 1378 q 890 1366 885 1373 l 986 1210 q 989 1201 990 1205 q 981 1191 988 1197 l 947 1157 q 934 1149 938 1149 q 924 1156 931 1150 l 815 1253 q 780 1254 799 1267 l 613 1152 q 599 1148 603 1147 q 588 1156 594 1150 m -62 31 l -62 100 q -55 127 -62 122 q -27 132 -48 132 l 67 132 q 107 138 98 132 q 122 170 116 144 l 274 883 q 273 905 277 901 q 248 910 269 910 l 153 910 q 128 914 134 910 q 122 938 122 918 l 122 1008 q 127 1036 122 1031 q 156 1042 133 1042 l 645 1042 q 666 1036 663 1042 q 670 1013 670 1031 l 670 940 q 664 915 670 919 q 638 910 658 910 l 549 910 q 519 904 525 910 q 508 878 513 899 l 456 633 q 455 607 452 614 q 483 601 458 601 l 874 601 q 899 606 896 601 q 906 627 903 610 l 960 882 q 961 904 965 899 q 938 910 958 910 l 856 910 q 831 915 836 910 q 826 940 826 921 l 826 1017 q 832 1037 826 1033 q 852 1042 837 1042 l 1338 1042 q 1363 1039 1358 1042 q 1368 1015 1368 1035 l 1368 940 q 1363 915 1368 920 q 1340 910 1358 910 l 1238 910 q 1207 905 1213 910 q 1197 880 1201 900 l 1044 167 q 1043 138 1039 144 q 1076 132 1047 132 l 1161 132 q 1186 127 1181 132 q 1191 102 1191 122 l 1191 29 q 1186 5 1191 10 q 1162 0 1181 0 l 674 0 q 651 5 656 0 q 646 29 646 10 l 646 106 q 652 128 646 124 q 676 132 659 132 l 768 132 q 799 138 794 132 q 808 164 803 143 l 867 445 q 867 471 872 466 q 835 476 863 476 l 450 476 q 424 470 427 476 q 417 447 420 465 l 356 163 q 355 139 352 146 q 380 132 357 132 l 463 132 q 488 126 483 132 q 493 101 493 121 l 493 31 q 487 5 493 10 q 460 0 481 0 l -29 0 q -56 5 -50 0 q -62 31 -62 10 "},"I":{"ha":674,"x_min":-42,"x_max":716,"o":"m -42 24 l -42 112 q -36 129 -42 126 q -17 132 -31 132 l 112 132 q 139 136 134 132 q 148 159 144 141 l 308 881 q 307 905 312 900 q 279 910 303 910 l 170 910 q 150 915 153 910 q 147 937 147 920 l 147 1017 q 151 1037 147 1033 q 170 1042 156 1042 l 692 1042 q 712 1037 708 1042 q 716 1016 716 1032 l 716 936 q 711 914 716 918 q 688 910 706 910 l 566 910 q 544 905 547 910 q 538 885 541 900 l 378 162 q 380 136 374 141 q 410 132 385 132 l 511 132 q 537 127 532 132 q 542 101 542 122 l 542 31 q 537 6 542 12 q 513 0 533 0 l -15 0 q -36 4 -31 0 q -42 24 -42 8 "},"Ì":{"ha":674,"x_min":-42,"x_max":716,"o":"m 286 1382 q 330 1413 303 1404 q 384 1416 356 1422 q 430 1390 412 1411 l 578 1224 q 579 1199 591 1211 l 528 1146 q 518 1138 522 1140 q 507 1142 515 1137 l 308 1251 q 264 1308 270 1272 q 286 1382 258 1344 m -42 24 l -42 112 q -36 129 -42 126 q -17 132 -31 132 l 112 132 q 139 136 134 132 q 148 159 144 141 l 308 881 q 307 905 312 900 q 279 910 303 910 l 170 910 q 150 915 153 910 q 147 937 147 920 l 147 1017 q 151 1037 147 1033 q 170 1042 156 1042 l 692 1042 q 712 1037 708 1042 q 716 1016 716 1032 l 716 936 q 711 914 716 918 q 688 910 706 910 l 566 910 q 544 905 547 910 q 538 885 541 900 l 378 162 q 380 136 374 141 q 410 132 385 132 l 511 132 q 537 127 532 132 q 542 101 542 122 l 542 31 q 537 6 542 12 q 513 0 533 0 l -15 0 q -36 4 -31 0 q -42 24 -42 8 "},"Í":{"ha":674,"x_min":-42,"x_max":742,"o":"m 714 1382 q 735 1307 742 1344 q 692 1251 728 1271 l 496 1144 q 483 1139 488 1138 q 472 1147 478 1140 l 421 1199 q 421 1223 409 1212 l 570 1390 q 617 1417 590 1412 q 671 1413 644 1422 q 714 1382 698 1404 m -42 24 l -42 112 q -36 129 -42 126 q -17 132 -31 132 l 112 132 q 139 136 134 132 q 148 159 144 141 l 308 881 q 307 905 312 900 q 279 910 303 910 l 170 910 q 150 915 153 910 q 147 937 147 920 l 147 1017 q 151 1037 147 1033 q 170 1042 156 1042 l 692 1042 q 712 1037 708 1042 q 716 1016 716 1032 l 716 936 q 711 914 716 918 q 688 910 706 910 l 566 910 q 544 905 547 910 q 538 885 541 900 l 378 162 q 380 136 374 141 q 410 132 385 132 l 511 132 q 537 127 532 132 q 542 101 542 122 l 542 31 q 537 6 542 12 q 513 0 533 0 l -15 0 q -36 4 -31 0 q -42 24 -42 8 "},"Î":{"ha":674,"x_min":-42,"x_max":722,"o":"m 321 1156 l 290 1189 q 285 1200 283 1197 q 294 1211 286 1203 l 460 1366 q 476 1376 468 1374 q 499 1378 483 1378 l 592 1378 q 612 1375 606 1378 q 622 1366 618 1373 l 719 1210 q 721 1201 722 1205 q 714 1191 720 1197 l 679 1157 q 667 1149 670 1149 q 656 1156 664 1150 l 547 1253 q 513 1254 532 1267 l 345 1152 q 331 1148 336 1147 q 321 1156 326 1150 m -42 24 l -42 112 q -36 129 -42 126 q -17 132 -31 132 l 112 132 q 139 136 134 132 q 148 159 144 141 l 308 881 q 307 905 312 900 q 279 910 303 910 l 170 910 q 150 915 153 910 q 147 937 147 920 l 147 1017 q 151 1037 147 1033 q 170 1042 156 1042 l 692 1042 q 712 1037 708 1042 q 716 1016 716 1032 l 716 936 q 711 914 716 918 q 688 910 706 910 l 566 910 q 544 905 547 910 q 538 885 541 900 l 378 162 q 380 136 374 141 q 410 132 385 132 l 511 132 q 537 127 532 132 q 542 101 542 122 l 542 31 q 537 6 542 12 q 513 0 533 0 l -15 0 q -36 4 -31 0 q -42 24 -42 8 "},"Ï":{"ha":674,"x_min":-42,"x_max":760,"o":"m 660 1174 q 589 1203 619 1174 q 560 1274 560 1233 q 589 1345 560 1315 q 660 1374 619 1374 q 731 1345 701 1374 q 760 1274 760 1315 q 731 1203 760 1233 q 660 1174 701 1174 m 354 1174 q 284 1203 313 1174 q 254 1274 254 1233 q 284 1345 254 1315 q 354 1374 313 1374 q 425 1345 396 1374 q 454 1274 454 1315 q 425 1203 454 1233 q 354 1174 396 1174 m -42 24 l -42 112 q -36 129 -42 126 q -17 132 -31 132 l 112 132 q 139 136 134 132 q 148 159 144 141 l 308 881 q 307 905 312 900 q 279 910 303 910 l 170 910 q 150 915 153 910 q 147 937 147 920 l 147 1017 q 151 1037 147 1033 q 170 1042 156 1042 l 692 1042 q 712 1037 708 1042 q 716 1016 716 1032 l 716 936 q 711 914 716 918 q 688 910 706 910 l 566 910 q 544 905 547 910 q 538 885 541 900 l 378 162 q 380 136 374 141 q 410 132 385 132 l 511 132 q 537 127 532 132 q 542 101 542 122 l 542 31 q 537 6 542 12 q 513 0 533 0 l -15 0 q -36 4 -31 0 q -42 24 -42 8 "},"Ĩ":{"ha":674,"x_min":-42,"x_max":804,"o":"m 619 1149 q 543 1166 569 1149 q 496 1201 516 1182 q 460 1232 478 1218 q 414 1245 443 1245 q 371 1230 389 1245 q 343 1190 353 1215 q 324 1181 335 1181 l 267 1181 q 254 1186 255 1181 q 257 1201 253 1191 q 298 1285 271 1246 q 364 1350 326 1325 q 449 1374 402 1374 q 523 1358 498 1374 q 566 1323 548 1342 q 602 1292 583 1306 q 646 1278 621 1278 q 685 1291 668 1278 q 713 1328 701 1303 q 720 1339 717 1335 q 733 1343 723 1343 l 792 1343 q 803 1340 802 1343 q 802 1328 804 1336 q 763 1236 789 1276 q 701 1173 738 1196 q 619 1149 665 1149 m -42 24 l -42 112 q -36 129 -42 126 q -17 132 -31 132 l 112 132 q 139 136 134 132 q 148 159 144 141 l 308 881 q 307 905 312 900 q 279 910 303 910 l 170 910 q 150 915 153 910 q 147 937 147 920 l 147 1017 q 151 1037 147 1033 q 170 1042 156 1042 l 692 1042 q 712 1037 708 1042 q 716 1016 716 1032 l 716 936 q 711 914 716 918 q 688 910 706 910 l 566 910 q 544 905 547 910 q 538 885 541 900 l 378 162 q 380 136 374 141 q 410 132 385 132 l 511 132 q 537 127 532 132 q 542 101 542 122 l 542 31 q 537 6 542 12 q 513 0 533 0 l -15 0 q -36 4 -31 0 q -42 24 -42 8 "},"Ī":{"ha":674,"x_min":-42,"x_max":716,"o":"m 327 1172 l 327 1229 q 330 1243 327 1239 q 341 1248 332 1248 l 637 1248 q 655 1244 650 1248 q 660 1226 660 1240 l 660 1170 q 658 1154 660 1159 q 645 1149 656 1149 l 351 1149 q 333 1153 338 1149 q 327 1172 327 1157 m -42 24 l -42 112 q -36 129 -42 126 q -17 132 -31 132 l 112 132 q 139 136 134 132 q 148 159 144 141 l 308 881 q 307 905 312 900 q 279 910 303 910 l 170 910 q 150 915 153 910 q 147 937 147 920 l 147 1017 q 151 1037 147 1033 q 170 1042 156 1042 l 692 1042 q 712 1037 708 1042 q 716 1016 716 1032 l 716 936 q 711 914 716 918 q 688 910 706 910 l 566 910 q 544 905 547 910 q 538 885 541 900 l 378 162 q 380 136 374 141 q 410 132 385 132 l 511 132 q 537 127 532 132 q 542 101 542 122 l 542 31 q 537 6 542 12 q 513 0 533 0 l -15 0 q -36 4 -31 0 q -42 24 -42 8 "},"Ĭ":{"ha":674,"x_min":-42,"x_max":718,"o":"m 500 1146 q 398 1170 432 1146 q 357 1240 364 1194 q 363 1347 349 1285 q 381 1360 365 1360 l 426 1360 q 436 1349 437 1360 q 450 1295 433 1315 q 519 1274 468 1274 q 594 1292 567 1274 q 633 1340 621 1310 q 640 1355 638 1349 q 655 1360 642 1360 l 705 1360 q 717 1357 716 1360 q 715 1343 718 1353 q 642 1199 692 1252 q 500 1146 591 1146 m -42 24 l -42 112 q -36 129 -42 126 q -17 132 -31 132 l 112 132 q 139 136 134 132 q 148 159 144 141 l 308 881 q 307 905 312 900 q 279 910 303 910 l 170 910 q 150 915 153 910 q 147 937 147 920 l 147 1017 q 151 1037 147 1033 q 170 1042 156 1042 l 692 1042 q 712 1037 708 1042 q 716 1016 716 1032 l 716 936 q 711 914 716 918 q 688 910 706 910 l 566 910 q 544 905 547 910 q 538 885 541 900 l 378 162 q 380 136 374 141 q 410 132 385 132 l 511 132 q 537 127 532 132 q 542 101 542 122 l 542 31 q 537 6 542 12 q 513 0 533 0 l -15 0 q -36 4 -31 0 q -42 24 -42 8 "},"Į":{"ha":674,"x_min":-42,"x_max":716,"o":"m 144 -301 q 61 -290 97 -301 q 8 -254 26 -278 q -4 -189 -9 -229 q 28 -119 1 -151 q 94 -59 55 -87 q 173 -9 133 -32 q 246 33 214 15 q 272 38 259 41 q 289 30 285 35 q 299 13 299 19 q 290 -4 300 6 q 244 -44 270 -22 q 197 -90 218 -65 q 169 -144 176 -115 q 176 -186 163 -170 q 219 -203 188 -203 q 264 -192 244 -203 q 297 -167 283 -181 q 318 -162 310 -154 l 340 -183 q 345 -192 346 -188 q 339 -203 344 -195 q 264 -271 309 -241 q 144 -301 219 -301 m -42 24 l -42 112 q -36 129 -42 126 q -17 132 -31 132 l 112 132 q 139 136 134 132 q 148 159 144 141 l 308 881 q 307 905 312 900 q 279 910 303 910 l 170 910 q 150 915 153 910 q 147 937 147 920 l 147 1017 q 151 1037 147 1033 q 170 1042 156 1042 l 692 1042 q 712 1037 708 1042 q 716 1016 716 1032 l 716 936 q 711 914 716 918 q 688 910 706 910 l 566 910 q 544 905 547 910 q 538 885 541 900 l 378 162 q 380 136 374 141 q 410 132 385 132 l 511 132 q 537 127 532 132 q 542 101 542 122 l 542 31 q 537 6 542 12 q 513 0 533 0 l -15 0 q -36 4 -31 0 q -42 24 -42 8 "},"İ":{"ha":674,"x_min":-42,"x_max":716,"o":"m 522 1201 q 445 1233 477 1201 q 413 1309 413 1265 q 445 1386 413 1354 q 522 1418 477 1418 q 598 1386 567 1418 q 630 1309 630 1354 q 598 1233 630 1265 q 522 1201 567 1201 m -42 24 l -42 112 q -36 129 -42 126 q -17 132 -31 132 l 112 132 q 139 136 134 132 q 148 159 144 141 l 308 881 q 307 905 312 900 q 279 910 303 910 l 170 910 q 150 915 153 910 q 147 937 147 920 l 147 1017 q 151 1037 147 1033 q 170 1042 156 1042 l 692 1042 q 712 1037 708 1042 q 716 1016 716 1032 l 716 936 q 711 914 716 918 q 688 910 706 910 l 566 910 q 544 905 547 910 q 538 885 541 900 l 378 162 q 380 136 374 141 q 410 132 385 132 l 511 132 q 537 127 532 132 q 542 101 542 122 l 542 31 q 537 6 542 12 q 513 0 533 0 l -15 0 q -36 4 -31 0 q -42 24 -42 8 "},"J":{"ha":918,"x_min":-49,"x_max":1008,"o":"m -49 250 q -25 354 -49 310 q 37 421 -1 398 q 120 444 75 444 q 216 410 178 444 q 254 321 254 375 q 240 258 254 280 q 209 225 226 237 q 177 202 191 213 q 163 172 163 191 q 171 148 163 163 q 200 120 178 133 q 265 108 222 108 q 384 161 329 108 q 467 333 440 215 l 590 881 q 590 905 595 901 q 562 910 585 910 l 441 910 q 417 914 423 910 q 411 935 411 917 l 411 1014 q 417 1038 411 1033 q 442 1042 424 1042 l 972 1042 q 1000 1037 991 1042 q 1008 1012 1008 1033 l 1008 944 q 1003 915 1008 921 q 975 910 998 910 l 863 910 q 833 904 837 910 q 824 877 828 898 l 703 375 q 616 166 674 254 q 471 31 558 78 q 265 -17 384 -17 q 93 21 163 -17 q -12 120 24 59 q -49 250 -49 181 "},"Ĵ":{"ha":918,"x_min":-49,"x_max":1008,"o":"m 535 1156 l 505 1189 q 499 1200 498 1197 q 509 1211 501 1203 l 674 1366 q 690 1376 683 1374 q 713 1378 698 1378 l 807 1378 q 827 1375 821 1378 q 837 1366 833 1373 l 933 1210 q 936 1201 937 1205 q 928 1191 935 1197 l 894 1157 q 882 1149 885 1149 q 871 1156 878 1150 l 762 1253 q 727 1254 747 1267 l 560 1152 q 546 1148 551 1147 q 535 1156 541 1150 m -49 250 q -25 354 -49 310 q 37 421 -1 398 q 120 444 75 444 q 216 410 178 444 q 254 321 254 375 q 240 258 254 280 q 209 225 226 237 q 177 202 191 213 q 163 172 163 191 q 171 148 163 163 q 200 120 178 133 q 265 108 222 108 q 384 161 329 108 q 467 333 440 215 l 590 881 q 590 905 595 901 q 562 910 585 910 l 441 910 q 417 914 423 910 q 411 935 411 917 l 411 1014 q 417 1038 411 1033 q 442 1042 424 1042 l 972 1042 q 1000 1037 991 1042 q 1008 1012 1008 1033 l 1008 944 q 1003 915 1008 921 q 975 910 998 910 l 863 910 q 833 904 837 910 q 824 877 828 898 l 703 375 q 616 166 674 254 q 471 31 558 78 q 265 -17 384 -17 q 93 21 163 -17 q -12 120 24 59 q -49 250 -49 181 "},"K":{"ha":1246,"x_min":-62,"x_max":1239,"o":"m -62 30 l -62 105 q -56 128 -62 124 q -31 132 -50 132 l 60 132 q 90 136 85 132 q 99 161 95 141 l 257 878 q 257 905 262 899 q 227 910 252 910 l 152 910 q 131 914 136 910 q 125 936 125 919 l 125 1022 q 130 1038 125 1035 q 147 1042 134 1042 l 588 1042 q 615 1037 608 1042 q 622 1011 622 1032 l 622 939 q 617 913 622 919 q 592 908 612 908 l 513 908 q 490 900 492 908 q 483 876 488 892 l 410 540 q 408 510 403 510 q 436 530 414 510 l 835 878 q 852 894 845 888 q 855 904 860 900 q 824 908 851 908 l 776 908 q 755 913 759 908 q 750 935 750 919 l 750 1013 q 758 1037 750 1033 q 785 1042 767 1042 l 1213 1042 q 1236 1037 1233 1042 q 1239 1013 1239 1033 l 1239 938 q 1234 914 1239 919 q 1212 908 1230 908 l 1115 908 q 1076 903 1087 908 q 1052 887 1066 899 l 708 596 q 688 568 682 574 q 722 549 693 563 q 825 475 788 517 q 881 386 862 433 q 911 294 900 339 q 934 212 922 249 q 968 154 946 176 q 1035 132 991 132 l 1120 132 q 1146 127 1141 132 q 1151 100 1151 122 l 1151 31 q 1145 5 1151 10 q 1117 0 1138 0 l 901 0 q 783 22 827 0 q 716 80 739 43 q 681 164 692 117 q 659 261 669 210 q 633 361 649 312 q 583 451 616 410 q 560 470 568 474 q 534 451 553 466 l 385 325 q 364 305 373 314 q 351 276 356 297 l 326 160 q 326 137 322 142 q 353 132 331 132 l 431 132 q 451 127 446 132 q 456 106 456 123 l 456 26 q 448 3 456 7 q 422 0 441 0 l -38 0 q -59 6 -56 0 q -62 30 -62 13 "},"Ķ":{"ha":1246,"x_min":-62,"x_max":1239,"o":"m 389 -231 q 421 -160 389 -187 q 497 -133 453 -133 q 553 -148 527 -133 q 597 -192 580 -162 q 613 -272 613 -222 q 591 -354 613 -317 q 533 -418 569 -391 q 453 -461 497 -445 q 368 -479 410 -476 q 354 -478 358 -480 q 351 -465 351 -476 l 351 -424 q 355 -414 351 -415 q 366 -412 358 -413 q 430 -396 395 -409 q 493 -363 465 -383 q 529 -316 522 -342 q 530 -304 535 -305 q 516 -308 525 -303 q 495 -317 507 -314 q 468 -320 483 -320 q 409 -296 430 -320 q 389 -231 389 -272 m -62 30 l -62 105 q -56 128 -62 124 q -31 132 -50 132 l 60 132 q 90 136 85 132 q 99 161 95 141 l 257 878 q 257 905 262 899 q 227 910 252 910 l 152 910 q 131 914 136 910 q 125 936 125 919 l 125 1022 q 130 1038 125 1035 q 147 1042 134 1042 l 588 1042 q 615 1037 608 1042 q 622 1011 622 1032 l 622 939 q 617 913 622 919 q 592 908 612 908 l 513 908 q 490 900 492 908 q 483 876 488 892 l 410 540 q 408 510 403 510 q 436 530 414 510 l 835 878 q 852 894 845 888 q 855 904 860 900 q 824 908 851 908 l 776 908 q 755 913 759 908 q 750 935 750 919 l 750 1013 q 758 1037 750 1033 q 785 1042 767 1042 l 1213 1042 q 1236 1037 1233 1042 q 1239 1013 1239 1033 l 1239 938 q 1234 914 1239 919 q 1212 908 1230 908 l 1115 908 q 1076 903 1087 908 q 1052 887 1066 899 l 708 596 q 688 568 682 574 q 722 549 693 563 q 825 475 788 517 q 881 386 862 433 q 911 294 900 339 q 934 212 922 249 q 968 154 946 176 q 1035 132 991 132 l 1120 132 q 1146 127 1141 132 q 1151 100 1151 122 l 1151 31 q 1145 5 1151 10 q 1117 0 1138 0 l 901 0 q 783 22 827 0 q 716 80 739 43 q 681 164 692 117 q 659 261 669 210 q 633 361 649 312 q 583 451 616 410 q 560 470 568 474 q 534 451 553 466 l 385 325 q 364 305 373 314 q 351 276 356 297 l 326 160 q 326 137 322 142 q 353 132 331 132 l 431 132 q 451 127 446 132 q 456 106 456 123 l 456 26 q 448 3 456 7 q 422 0 441 0 l -38 0 q -59 6 -56 0 q -62 30 -62 13 "},"L":{"ha":1053,"x_min":-62,"x_max":982,"o":"m -62 31 l -62 108 q -57 127 -62 123 q -37 132 -51 132 l 78 132 q 112 137 106 132 q 123 165 118 142 l 276 880 q 275 906 281 901 q 244 910 270 910 l 153 910 q 129 915 134 910 q 124 939 124 919 l 124 1017 q 128 1038 124 1033 q 149 1042 133 1042 l 660 1042 q 682 1037 677 1042 q 688 1014 688 1032 l 688 938 q 684 915 688 921 q 663 910 680 910 l 549 910 q 520 905 525 910 q 511 880 516 900 l 360 172 q 360 140 355 147 q 397 132 366 132 l 550 132 q 699 155 641 132 q 795 233 758 178 q 859 388 832 289 q 870 411 864 405 q 899 417 876 417 l 955 417 q 977 412 972 417 q 978 392 982 407 l 897 26 q 886 5 892 9 q 858 0 879 0 l -28 0 q -56 5 -49 0 q -62 31 -62 9 "},"Ĺ":{"ha":1053,"x_min":-62,"x_max":982,"o":"m 670 1382 q 691 1307 699 1344 q 648 1251 684 1271 l 452 1144 q 439 1139 444 1138 q 428 1147 435 1140 l 377 1199 q 377 1223 365 1212 l 526 1390 q 573 1417 546 1412 q 627 1413 601 1422 q 670 1382 654 1404 m -62 31 l -62 108 q -57 127 -62 123 q -37 132 -51 132 l 78 132 q 112 137 106 132 q 123 165 118 142 l 276 880 q 275 906 281 901 q 244 910 270 910 l 153 910 q 129 915 134 910 q 124 939 124 919 l 124 1017 q 128 1038 124 1033 q 149 1042 133 1042 l 660 1042 q 682 1037 677 1042 q 688 1014 688 1032 l 688 938 q 684 915 688 921 q 663 910 680 910 l 549 910 q 520 905 525 910 q 511 880 516 900 l 360 172 q 360 140 355 147 q 397 132 366 132 l 550 132 q 699 155 641 132 q 795 233 758 178 q 859 388 832 289 q 870 411 864 405 q 899 417 876 417 l 955 417 q 977 412 972 417 q 978 392 982 407 l 897 26 q 886 5 892 9 q 858 0 879 0 l -28 0 q -56 5 -49 0 q -62 31 -62 9 "},"Ļ":{"ha":1053,"x_min":-62,"x_max":982,"o":"m 244 -231 q 276 -160 244 -187 q 352 -133 308 -133 q 408 -148 382 -133 q 451 -192 435 -162 q 468 -272 468 -222 q 446 -354 468 -317 q 388 -418 424 -391 q 308 -461 351 -445 q 223 -479 265 -476 q 209 -478 213 -480 q 206 -465 206 -476 l 206 -424 q 209 -414 206 -415 q 221 -412 213 -413 q 285 -396 250 -409 q 348 -363 320 -383 q 384 -316 376 -342 q 385 -304 390 -305 q 371 -308 380 -303 q 350 -317 362 -314 q 323 -320 338 -320 q 264 -296 285 -320 q 244 -231 244 -272 m -62 31 l -62 108 q -57 127 -62 123 q -37 132 -51 132 l 78 132 q 112 137 106 132 q 123 165 118 142 l 276 880 q 275 906 281 901 q 244 910 270 910 l 153 910 q 129 915 134 910 q 124 939 124 919 l 124 1017 q 128 1038 124 1033 q 149 1042 133 1042 l 660 1042 q 682 1037 677 1042 q 688 1014 688 1032 l 688 938 q 684 915 688 921 q 663 910 680 910 l 549 910 q 520 905 525 910 q 511 880 516 900 l 360 172 q 360 140 355 147 q 397 132 366 132 l 550 132 q 699 155 641 132 q 795 233 758 178 q 859 388 832 289 q 870 411 864 405 q 899 417 876 417 l 955 417 q 977 412 972 417 q 978 392 982 407 l 897 26 q 886 5 892 9 q 858 0 879 0 l -28 0 q -56 5 -49 0 q -62 31 -62 9 "},"Ľ":{"ha":1078,"x_min":-62,"x_max":1078,"o":"m 799 940 q 838 1029 799 995 q 933 1063 878 1063 q 1004 1045 971 1063 q 1058 990 1037 1028 q 1078 890 1078 951 q 1051 788 1078 834 q 977 707 1023 741 q 878 654 932 674 q 772 631 824 634 q 755 632 759 630 q 751 648 751 635 l 751 700 q 756 713 751 711 q 769 715 760 714 q 850 734 806 719 q 928 776 894 750 q 973 835 963 802 q 975 850 981 849 q 957 844 968 851 q 931 833 945 838 q 897 829 916 829 q 824 860 850 829 q 799 940 799 891 m -62 31 l -62 108 q -57 127 -62 123 q -37 132 -51 132 l 78 132 q 112 137 106 132 q 123 165 118 142 l 276 880 q 275 906 281 901 q 244 910 270 910 l 153 910 q 129 915 134 910 q 124 939 124 919 l 124 1017 q 128 1038 124 1033 q 149 1042 133 1042 l 660 1042 q 682 1037 677 1042 q 688 1014 688 1032 l 688 938 q 684 915 688 921 q 663 910 680 910 l 549 910 q 520 905 525 910 q 511 880 516 900 l 360 172 q 360 140 355 147 q 397 132 366 132 l 550 132 q 699 155 641 132 q 795 233 758 178 q 859 388 832 289 q 870 411 864 405 q 899 417 876 417 l 955 417 q 977 412 972 417 q 978 392 982 407 l 897 26 q 886 5 892 9 q 858 0 879 0 l -28 0 q -56 5 -49 0 q -62 31 -62 9 "},"M":{"ha":1511,"x_min":-76,"x_max":1532,"o":"m 1068 719 l 678 11 q 663 -9 669 -3 q 631 -14 656 -14 l 553 -14 q 523 -8 528 -14 q 515 19 518 -1 l 416 736 q 410 795 410 772 q 403 819 410 819 q 391 798 395 819 q 378 742 388 777 l 235 161 q 236 136 231 140 q 268 132 242 132 l 357 132 q 377 127 373 132 q 382 106 382 122 l 382 27 q 376 4 382 8 q 351 0 371 0 l -40 0 q -69 4 -62 0 q -76 31 -76 8 l -76 106 q -72 127 -76 122 q -53 132 -67 132 l 44 132 q 83 138 77 132 q 96 169 90 144 l 274 873 q 276 904 281 898 q 238 910 271 910 l 169 910 q 141 915 147 910 q 135 941 135 919 l 135 1013 q 143 1038 135 1035 q 172 1042 152 1042 l 554 1042 q 599 1035 590 1042 q 613 996 609 1028 l 690 418 q 698 350 697 373 q 708 328 699 328 q 731 355 717 328 q 763 417 744 382 l 1093 1012 q 1114 1036 1103 1030 q 1153 1042 1124 1042 l 1504 1042 q 1526 1038 1521 1042 q 1532 1017 1532 1034 l 1532 947 q 1526 916 1532 922 q 1494 910 1520 910 l 1387 910 q 1363 907 1368 910 q 1354 888 1357 904 l 1233 167 q 1234 138 1228 144 q 1265 132 1239 132 l 1367 132 q 1392 127 1388 132 q 1397 101 1397 122 l 1397 33 q 1390 5 1397 10 q 1360 0 1383 0 l 891 0 q 862 6 869 0 q 856 34 856 11 l 856 97 q 861 126 856 120 q 891 132 867 132 l 968 132 q 997 135 989 132 q 1008 146 1006 138 q 1013 172 1010 155 l 1107 709 q 1120 764 1113 741 q 1131 798 1128 786 q 1125 810 1133 810 q 1102 784 1115 810 q 1068 719 1090 758 "},"N":{"ha":1289,"x_min":-62,"x_max":1331,"o":"m 224 910 l 155 910 q 131 914 136 910 q 125 936 125 918 l 125 1018 q 131 1038 125 1034 q 152 1042 136 1042 l 497 1042 q 534 1037 524 1042 q 554 1017 545 1033 l 882 449 q 898 416 893 431 q 911 401 903 401 q 921 413 919 401 q 928 448 923 424 l 1020 883 q 1018 905 1024 900 q 992 910 1012 910 l 918 910 q 894 915 899 910 q 890 940 890 921 l 890 1017 q 895 1038 890 1033 q 917 1042 900 1042 l 1308 1042 q 1327 1037 1323 1042 q 1331 1017 1331 1033 l 1331 935 q 1326 915 1331 919 q 1306 910 1322 910 l 1186 910 q 1163 907 1167 910 q 1155 887 1158 903 l 969 8 q 963 -9 967 -4 q 944 -14 959 -14 l 882 -14 q 857 -9 865 -14 q 842 6 849 -5 l 406 741 q 389 775 394 761 q 376 789 384 789 q 367 776 369 789 q 360 740 365 763 l 235 156 q 235 136 232 140 q 258 132 238 132 l 353 132 q 372 130 366 132 q 378 113 378 127 l 378 26 q 373 5 378 9 q 350 0 367 0 l -42 0 q -58 4 -54 0 q -62 21 -62 8 l -62 104 q -59 126 -62 121 q -39 132 -56 132 l 73 132 q 96 136 92 132 q 103 155 99 140 l 256 875 q 257 904 261 898 q 224 910 252 910 "},"Ñ":{"ha":1289,"x_min":-62,"x_max":1331,"o":"m 927 1149 q 851 1166 878 1149 q 804 1201 824 1182 q 769 1232 786 1218 q 722 1245 751 1245 q 679 1230 697 1245 q 651 1190 661 1215 q 632 1181 644 1181 l 575 1181 q 563 1186 563 1181 q 565 1201 562 1191 q 607 1285 579 1246 q 672 1350 634 1325 q 757 1374 710 1374 q 831 1358 806 1374 q 874 1323 856 1342 q 910 1292 892 1306 q 954 1278 929 1278 q 993 1291 976 1278 q 1021 1328 1010 1303 q 1028 1339 1025 1335 q 1041 1343 1031 1343 l 1101 1343 q 1111 1340 1110 1343 q 1110 1328 1113 1336 q 1072 1236 1097 1276 q 1009 1173 1046 1196 q 927 1149 973 1149 m 224 910 l 155 910 q 131 914 136 910 q 125 936 125 918 l 125 1018 q 131 1038 125 1034 q 152 1042 136 1042 l 497 1042 q 534 1037 524 1042 q 554 1017 545 1033 l 882 449 q 898 416 893 431 q 911 401 903 401 q 921 413 919 401 q 928 448 923 424 l 1020 883 q 1018 905 1024 900 q 992 910 1012 910 l 918 910 q 894 915 899 910 q 890 940 890 921 l 890 1017 q 895 1038 890 1033 q 917 1042 900 1042 l 1308 1042 q 1327 1037 1323 1042 q 1331 1017 1331 1033 l 1331 935 q 1326 915 1331 919 q 1306 910 1322 910 l 1186 910 q 1163 907 1167 910 q 1155 887 1158 903 l 969 8 q 963 -9 967 -4 q 944 -14 959 -14 l 882 -14 q 857 -9 865 -14 q 842 6 849 -5 l 406 741 q 389 775 394 761 q 376 789 384 789 q 367 776 369 789 q 360 740 365 763 l 235 156 q 235 136 232 140 q 258 132 238 132 l 353 132 q 372 130 366 132 q 378 113 378 127 l 378 26 q 373 5 378 9 q 350 0 367 0 l -42 0 q -58 4 -54 0 q -62 21 -62 8 l -62 104 q -59 126 -62 121 q -39 132 -56 132 l 73 132 q 96 136 92 132 q 103 155 99 140 l 256 875 q 257 904 261 898 q 224 910 252 910 "},"Ń":{"ha":1289,"x_min":-62,"x_max":1331,"o":"m 974 1382 q 995 1307 1002 1344 q 951 1251 988 1271 l 756 1144 q 743 1139 747 1138 q 731 1147 738 1140 l 681 1199 q 681 1223 669 1212 l 830 1390 q 877 1417 849 1412 q 931 1413 904 1422 q 974 1382 958 1404 m 224 910 l 155 910 q 131 914 136 910 q 125 936 125 918 l 125 1018 q 131 1038 125 1034 q 152 1042 136 1042 l 497 1042 q 534 1037 524 1042 q 554 1017 545 1033 l 882 449 q 898 416 893 431 q 911 401 903 401 q 921 413 919 401 q 928 448 923 424 l 1020 883 q 1018 905 1024 900 q 992 910 1012 910 l 918 910 q 894 915 899 910 q 890 940 890 921 l 890 1017 q 895 1038 890 1033 q 917 1042 900 1042 l 1308 1042 q 1327 1037 1323 1042 q 1331 1017 1331 1033 l 1331 935 q 1326 915 1331 919 q 1306 910 1322 910 l 1186 910 q 1163 907 1167 910 q 1155 887 1158 903 l 969 8 q 963 -9 967 -4 q 944 -14 959 -14 l 882 -14 q 857 -9 865 -14 q 842 6 849 -5 l 406 741 q 389 775 394 761 q 376 789 384 789 q 367 776 369 789 q 360 740 365 763 l 235 156 q 235 136 232 140 q 258 132 238 132 l 353 132 q 372 130 366 132 q 378 113 378 127 l 378 26 q 373 5 378 9 q 350 0 367 0 l -42 0 q -58 4 -54 0 q -62 21 -62 8 l -62 104 q -59 126 -62 121 q -39 132 -56 132 l 73 132 q 96 136 92 132 q 103 155 99 140 l 256 875 q 257 904 261 898 q 224 910 252 910 "},"Ņ":{"ha":1289,"x_min":-62,"x_max":1331,"o":"m 386 -231 q 418 -160 386 -187 q 494 -133 450 -133 q 551 -148 524 -133 q 594 -192 577 -162 q 610 -272 610 -222 q 588 -354 610 -317 q 530 -418 566 -391 q 451 -461 494 -445 q 365 -479 408 -476 q 351 -478 355 -480 q 348 -465 348 -476 l 348 -424 q 352 -414 348 -415 q 363 -412 356 -413 q 427 -396 392 -409 q 491 -363 463 -383 q 526 -316 519 -342 q 527 -304 533 -305 q 513 -308 522 -303 q 492 -317 504 -314 q 465 -320 481 -320 q 407 -296 427 -320 q 386 -231 386 -272 m 224 910 l 155 910 q 131 914 136 910 q 125 936 125 918 l 125 1018 q 131 1038 125 1034 q 152 1042 136 1042 l 497 1042 q 534 1037 524 1042 q 554 1017 545 1033 l 882 449 q 898 416 893 431 q 911 401 903 401 q 921 413 919 401 q 928 448 923 424 l 1020 883 q 1018 905 1024 900 q 992 910 1012 910 l 918 910 q 894 915 899 910 q 890 940 890 921 l 890 1017 q 895 1038 890 1033 q 917 1042 900 1042 l 1308 1042 q 1327 1037 1323 1042 q 1331 1017 1331 1033 l 1331 935 q 1326 915 1331 919 q 1306 910 1322 910 l 1186 910 q 1163 907 1167 910 q 1155 887 1158 903 l 969 8 q 963 -9 967 -4 q 944 -14 959 -14 l 882 -14 q 857 -9 865 -14 q 842 6 849 -5 l 406 741 q 389 775 394 761 q 376 789 384 789 q 367 776 369 789 q 360 740 365 763 l 235 156 q 235 136 232 140 q 258 132 238 132 l 353 132 q 372 130 366 132 q 378 113 378 127 l 378 26 q 373 5 378 9 q 350 0 367 0 l -42 0 q -58 4 -54 0 q -62 21 -62 8 l -62 104 q -59 126 -62 121 q -39 132 -56 132 l 73 132 q 96 136 92 132 q 103 155 99 140 l 256 875 q 257 904 261 898 q 224 910 252 910 "},"Ň":{"ha":1289,"x_min":-62,"x_max":1331,"o":"m 670 1173 l 580 1322 q 576 1334 575 1329 q 586 1346 577 1339 l 624 1376 q 639 1384 635 1385 q 651 1376 642 1383 l 754 1290 q 779 1280 767 1280 q 808 1290 791 1279 l 955 1381 q 970 1386 966 1388 q 981 1376 975 1384 l 1004 1349 q 1011 1336 1011 1340 q 1001 1322 1011 1331 l 840 1171 q 825 1159 832 1163 q 801 1156 817 1156 l 710 1156 q 684 1160 692 1156 q 670 1173 676 1165 m 224 910 l 155 910 q 131 914 136 910 q 125 936 125 918 l 125 1018 q 131 1038 125 1034 q 152 1042 136 1042 l 497 1042 q 534 1037 524 1042 q 554 1017 545 1033 l 882 449 q 898 416 893 431 q 911 401 903 401 q 921 413 919 401 q 928 448 923 424 l 1020 883 q 1018 905 1024 900 q 992 910 1012 910 l 918 910 q 894 915 899 910 q 890 940 890 921 l 890 1017 q 895 1038 890 1033 q 917 1042 900 1042 l 1308 1042 q 1327 1037 1323 1042 q 1331 1017 1331 1033 l 1331 935 q 1326 915 1331 919 q 1306 910 1322 910 l 1186 910 q 1163 907 1167 910 q 1155 887 1158 903 l 969 8 q 963 -9 967 -4 q 944 -14 959 -14 l 882 -14 q 857 -9 865 -14 q 842 6 849 -5 l 406 741 q 389 775 394 761 q 376 789 384 789 q 367 776 369 789 q 360 740 365 763 l 235 156 q 235 136 232 140 q 258 132 238 132 l 353 132 q 372 130 366 132 q 378 113 378 127 l 378 26 q 373 5 378 9 q 350 0 367 0 l -42 0 q -58 4 -54 0 q -62 21 -62 8 l -62 104 q -59 126 -62 121 q -39 132 -56 132 l 73 132 q 96 136 92 132 q 103 155 99 140 l 256 875 q 257 904 261 898 q 224 910 252 910 "},"O":{"ha":1236,"x_min":56,"x_max":1181,"o":"m 715 1063 q 961 1014 856 1063 q 1123 867 1066 965 q 1181 625 1181 769 q 1131 376 1181 493 q 991 170 1081 260 q 781 30 901 81 q 521 -21 660 -21 l 528 104 q 661 136 600 104 q 772 223 723 169 q 854 346 820 278 q 906 489 888 415 q 924 632 924 563 q 904 792 924 724 q 838 899 885 861 q 708 938 791 938 l 715 1063 m 521 -21 q 275 28 380 -21 q 113 175 171 78 q 56 417 56 272 q 106 665 56 549 q 246 872 156 782 q 456 1012 336 961 q 715 1063 576 1063 l 708 938 q 577 906 638 938 q 468 819 517 874 q 384 695 419 764 q 331 553 349 627 q 313 410 313 479 q 332 249 313 318 q 398 142 351 181 q 528 104 445 104 l 521 -21 "},"Ò":{"ha":1236,"x_min":56,"x_max":1181,"o":"m 556 1382 q 600 1413 573 1404 q 654 1416 626 1422 q 700 1390 682 1411 l 849 1224 q 849 1199 861 1211 l 798 1146 q 789 1138 792 1140 q 777 1142 785 1137 l 578 1251 q 534 1308 540 1272 q 556 1382 528 1344 m 715 1063 q 961 1014 856 1063 q 1123 867 1066 965 q 1181 625 1181 769 q 1131 376 1181 493 q 991 170 1081 260 q 781 30 901 81 q 521 -21 660 -21 l 528 104 q 661 136 600 104 q 772 223 723 169 q 854 346 820 278 q 906 489 888 415 q 924 632 924 563 q 904 792 924 724 q 838 899 885 861 q 708 938 791 938 l 715 1063 m 521 -21 q 275 28 380 -21 q 113 175 171 78 q 56 417 56 272 q 106 665 56 549 q 246 872 156 782 q 456 1012 336 961 q 715 1063 576 1063 l 708 938 q 577 906 638 938 q 468 819 517 874 q 384 695 419 764 q 331 553 349 627 q 313 410 313 479 q 332 249 313 318 q 398 142 351 181 q 528 104 445 104 l 521 -21 "},"Ó":{"ha":1236,"x_min":56,"x_max":1181,"o":"m 984 1382 q 1005 1307 1013 1344 q 962 1251 998 1271 l 766 1144 q 753 1139 758 1138 q 742 1147 749 1140 l 691 1199 q 691 1223 679 1212 l 840 1390 q 887 1417 860 1412 q 941 1413 915 1422 q 984 1382 968 1404 m 715 1063 q 961 1014 856 1063 q 1123 867 1066 965 q 1181 625 1181 769 q 1131 376 1181 493 q 991 170 1081 260 q 781 30 901 81 q 521 -21 660 -21 l 528 104 q 661 136 600 104 q 772 223 723 169 q 854 346 820 278 q 906 489 888 415 q 924 632 924 563 q 904 792 924 724 q 838 899 885 861 q 708 938 791 938 l 715 1063 m 521 -21 q 275 28 380 -21 q 113 175 171 78 q 56 417 56 272 q 106 665 56 549 q 246 872 156 782 q 456 1012 336 961 q 715 1063 576 1063 l 708 938 q 577 906 638 938 q 468 819 517 874 q 384 695 419 764 q 331 553 349 627 q 313 410 313 479 q 332 249 313 318 q 398 142 351 181 q 528 104 445 104 l 521 -21 "},"Ô":{"ha":1236,"x_min":56,"x_max":1181,"o":"m 591 1156 l 560 1189 q 555 1200 553 1197 q 565 1211 556 1203 l 730 1366 q 746 1376 738 1374 q 769 1378 753 1378 l 863 1378 q 882 1375 876 1378 q 892 1366 888 1373 l 989 1210 q 991 1201 992 1205 q 984 1191 990 1197 l 949 1157 q 937 1149 940 1149 q 926 1156 934 1150 l 817 1253 q 783 1254 802 1267 l 615 1152 q 601 1148 606 1147 q 591 1156 597 1150 m 715 1063 q 961 1014 856 1063 q 1123 867 1066 965 q 1181 625 1181 769 q 1131 376 1181 493 q 991 170 1081 260 q 781 30 901 81 q 521 -21 660 -21 l 528 104 q 661 136 600 104 q 772 223 723 169 q 854 346 820 278 q 906 489 888 415 q 924 632 924 563 q 904 792 924 724 q 838 899 885 861 q 708 938 791 938 l 715 1063 m 521 -21 q 275 28 380 -21 q 113 175 171 78 q 56 417 56 272 q 106 665 56 549 q 246 872 156 782 q 456 1012 336 961 q 715 1063 576 1063 l 708 938 q 577 906 638 938 q 468 819 517 874 q 384 695 419 764 q 331 553 349 627 q 313 410 313 479 q 332 249 313 318 q 398 142 351 181 q 528 104 445 104 l 521 -21 "},"Õ":{"ha":1236,"x_min":56,"x_max":1181,"o":"m 889 1149 q 813 1166 840 1149 q 766 1201 786 1182 q 731 1232 748 1218 q 684 1245 713 1245 q 641 1230 659 1245 q 613 1190 623 1215 q 594 1181 606 1181 l 537 1181 q 524 1186 525 1181 q 527 1201 524 1191 q 568 1285 541 1246 q 634 1350 596 1325 q 719 1374 672 1374 q 793 1358 768 1374 q 836 1323 818 1342 q 872 1292 853 1306 q 916 1278 891 1278 q 955 1291 938 1278 q 983 1328 972 1303 q 990 1339 987 1335 q 1003 1343 993 1343 l 1063 1343 q 1073 1340 1072 1343 q 1072 1328 1074 1336 q 1033 1236 1059 1276 q 971 1173 1008 1196 q 889 1149 935 1149 m 715 1063 q 961 1014 856 1063 q 1123 867 1066 965 q 1181 625 1181 769 q 1131 376 1181 493 q 991 170 1081 260 q 781 30 901 81 q 521 -21 660 -21 l 528 104 q 661 136 600 104 q 772 223 723 169 q 854 346 820 278 q 906 489 888 415 q 924 632 924 563 q 904 792 924 724 q 838 899 885 861 q 708 938 791 938 l 715 1063 m 521 -21 q 275 28 380 -21 q 113 175 171 78 q 56 417 56 272 q 106 665 56 549 q 246 872 156 782 q 456 1012 336 961 q 715 1063 576 1063 l 708 938 q 577 906 638 938 q 468 819 517 874 q 384 695 419 764 q 331 553 349 627 q 313 410 313 479 q 332 249 313 318 q 398 142 351 181 q 528 104 445 104 l 521 -21 "},"Ö":{"ha":1236,"x_min":56,"x_max":1181,"o":"m 930 1174 q 859 1203 889 1174 q 830 1274 830 1233 q 859 1345 830 1315 q 930 1374 889 1374 q 1001 1345 972 1374 q 1030 1274 1030 1315 q 1001 1203 1030 1233 q 930 1174 972 1174 m 624 1174 q 554 1203 583 1174 q 524 1274 524 1233 q 554 1345 524 1315 q 624 1374 583 1374 q 695 1345 666 1374 q 724 1274 724 1315 q 695 1203 724 1233 q 624 1174 666 1174 m 715 1063 q 961 1014 856 1063 q 1123 867 1066 965 q 1181 625 1181 769 q 1131 376 1181 493 q 991 170 1081 260 q 781 30 901 81 q 521 -21 660 -21 l 528 104 q 661 136 600 104 q 772 223 723 169 q 854 346 820 278 q 906 489 888 415 q 924 632 924 563 q 904 792 924 724 q 838 899 885 861 q 708 938 791 938 l 715 1063 m 521 -21 q 275 28 380 -21 q 113 175 171 78 q 56 417 56 272 q 106 665 56 549 q 246 872 156 782 q 456 1012 336 961 q 715 1063 576 1063 l 708 938 q 577 906 638 938 q 468 819 517 874 q 384 695 419 764 q 331 553 349 627 q 313 410 313 479 q 332 249 313 318 q 398 142 351 181 q 528 104 445 104 l 521 -21 "},"Ō":{"ha":1236,"x_min":56,"x_max":1181,"o":"m 597 1172 l 597 1229 q 600 1243 597 1239 q 611 1248 602 1248 l 907 1248 q 925 1244 920 1248 q 931 1226 931 1240 l 931 1170 q 928 1154 931 1159 q 915 1149 926 1149 l 622 1149 q 603 1153 608 1149 q 597 1172 597 1157 m 715 1063 q 961 1014 856 1063 q 1123 867 1066 965 q 1181 625 1181 769 q 1131 376 1181 493 q 991 170 1081 260 q 781 30 901 81 q 521 -21 660 -21 l 528 104 q 661 136 600 104 q 772 223 723 169 q 854 346 820 278 q 906 489 888 415 q 924 632 924 563 q 904 792 924 724 q 838 899 885 861 q 708 938 791 938 l 715 1063 m 521 -21 q 275 28 380 -21 q 113 175 171 78 q 56 417 56 272 q 106 665 56 549 q 246 872 156 782 q 456 1012 336 961 q 715 1063 576 1063 l 708 938 q 577 906 638 938 q 468 819 517 874 q 384 695 419 764 q 331 553 349 627 q 313 410 313 479 q 332 249 313 318 q 398 142 351 181 q 528 104 445 104 l 521 -21 "},"Ŏ":{"ha":1236,"x_min":56,"x_max":1181,"o":"m 770 1146 q 668 1170 702 1146 q 627 1240 634 1194 q 633 1347 619 1285 q 651 1360 635 1360 l 696 1360 q 706 1349 707 1360 q 720 1295 703 1315 q 789 1274 738 1274 q 864 1292 837 1274 q 903 1340 891 1310 q 910 1355 908 1349 q 925 1360 913 1360 l 975 1360 q 987 1357 986 1360 q 985 1343 988 1353 q 912 1199 963 1252 q 770 1146 861 1146 m 715 1063 q 961 1014 856 1063 q 1123 867 1066 965 q 1181 625 1181 769 q 1131 376 1181 493 q 991 170 1081 260 q 781 30 901 81 q 521 -21 660 -21 l 528 104 q 661 136 600 104 q 772 223 723 169 q 854 346 820 278 q 906 489 888 415 q 924 632 924 563 q 904 792 924 724 q 838 899 885 861 q 708 938 791 938 l 715 1063 m 521 -21 q 275 28 380 -21 q 113 175 171 78 q 56 417 56 272 q 106 665 56 549 q 246 872 156 782 q 456 1012 336 961 q 715 1063 576 1063 l 708 938 q 577 906 638 938 q 468 819 517 874 q 384 695 419 764 q 331 553 349 627 q 313 410 313 479 q 332 249 313 318 q 398 142 351 181 q 528 104 445 104 l 521 -21 "},"Ő":{"ha":1236,"x_min":56,"x_max":1198,"o":"m 948 1173 l 893 1213 q 883 1226 883 1222 q 890 1240 882 1231 l 1015 1420 q 1055 1452 1029 1442 q 1110 1458 1081 1463 q 1160 1433 1138 1454 q 1191 1361 1198 1397 q 1153 1301 1185 1325 l 971 1170 q 959 1165 963 1164 q 948 1173 956 1166 m 584 1174 l 530 1213 q 521 1227 520 1222 q 531 1242 522 1233 l 653 1420 q 695 1453 668 1442 q 750 1461 722 1464 q 801 1435 779 1458 q 831 1363 837 1399 q 792 1301 824 1326 l 617 1176 q 600 1166 606 1167 q 584 1174 594 1165 m 715 1063 q 961 1014 856 1063 q 1123 867 1066 965 q 1181 625 1181 769 q 1131 376 1181 493 q 991 170 1081 260 q 781 30 901 81 q 521 -21 660 -21 l 528 104 q 661 136 600 104 q 772 223 723 169 q 854 346 820 278 q 906 489 888 415 q 924 632 924 563 q 904 792 924 724 q 838 899 885 861 q 708 938 791 938 l 715 1063 m 521 -21 q 275 28 380 -21 q 113 175 171 78 q 56 417 56 272 q 106 665 56 549 q 246 872 156 782 q 456 1012 336 961 q 715 1063 576 1063 l 708 938 q 577 906 638 938 q 468 819 517 874 q 384 695 419 764 q 331 553 349 627 q 313 410 313 479 q 332 249 313 318 q 398 142 351 181 q 528 104 445 104 l 521 -21 "},"P":{"ha":1031,"x_min":-62,"x_max":1038,"o":"m 450 552 l 544 552 q 666 582 611 552 q 755 664 722 611 q 788 785 788 716 q 776 844 788 815 q 736 891 765 873 q 659 910 708 910 l 524 910 q 498 906 502 910 q 490 883 494 901 l 426 580 q 425 557 422 562 q 450 552 428 552 m 383 385 l 336 163 q 335 138 332 144 q 364 132 339 132 l 463 132 q 494 125 488 132 q 500 92 500 119 l 500 31 q 493 5 500 9 q 463 0 485 0 l -26 0 q -53 4 -44 0 q -62 27 -62 8 l -62 106 q -57 128 -62 124 q -35 132 -51 132 l 67 132 q 93 139 90 132 q 100 163 97 145 l 253 878 q 252 905 258 901 q 219 910 246 910 l 143 910 q 122 915 126 910 q 118 936 118 920 l 118 1017 q 124 1037 118 1033 q 145 1042 129 1042 l 683 1042 q 890 1009 813 1042 q 1003 919 968 977 q 1038 785 1038 861 q 998 616 1038 686 q 889 503 958 547 q 733 440 820 460 q 551 420 646 420 l 424 420 q 393 413 398 420 q 383 385 388 406 "},"Q":{"ha":1247,"x_min":66,"x_max":1191,"o":"m 323 410 q 342 249 323 318 q 409 142 362 181 q 538 104 456 104 q 672 136 610 104 q 782 223 733 169 q 865 346 831 278 q 916 489 899 415 q 934 632 934 563 q 915 792 934 724 q 848 899 895 861 q 719 938 801 938 q 588 906 649 938 q 478 819 527 874 q 395 695 430 764 q 341 553 360 627 q 323 410 323 479 m 80 -221 q 99 -148 80 -179 q 148 -96 117 -117 q 216 -62 178 -75 q 292 -43 253 -49 q 363 -37 331 -37 q 493 -60 440 -37 q 581 -115 545 -82 q 640 -181 616 -148 q 684 -236 665 -214 q 726 -259 704 -259 q 757 -250 749 -259 q 765 -228 765 -240 q 757 -207 765 -213 q 739 -189 748 -200 q 730 -149 730 -178 q 749 -95 730 -117 q 797 -62 769 -73 q 855 -51 826 -51 q 915 -65 888 -51 q 958 -102 942 -78 q 974 -157 974 -126 q 957 -235 974 -203 q 909 -290 939 -268 q 843 -324 879 -311 q 768 -342 806 -336 q 698 -347 731 -347 q 565 -325 617 -347 q 481 -269 514 -302 q 426 -203 449 -236 q 382 -148 403 -170 q 331 -126 361 -126 q 300 -133 309 -126 q 291 -153 291 -141 q 300 -174 291 -166 q 319 -194 310 -181 q 328 -235 328 -207 q 290 -309 328 -284 q 203 -333 253 -333 q 115 -302 150 -333 q 80 -221 80 -271 m 66 417 q 116 665 66 549 q 257 872 167 782 q 466 1012 347 961 q 726 1063 586 1063 q 972 1014 867 1063 q 1134 867 1076 965 q 1191 625 1191 769 q 1141 376 1191 493 q 1001 170 1091 260 q 791 30 911 81 q 531 -21 671 -21 q 286 28 390 -21 q 124 175 181 78 q 66 417 66 272 "},"R":{"ha":1174,"x_min":-49,"x_max":1129,"o":"m 1118 103 q 1053 36 1092 63 q 970 -4 1015 9 q 881 -17 926 -17 q 742 22 788 -17 q 697 128 697 60 q 707 230 697 180 q 718 327 718 281 q 706 384 718 355 q 664 432 694 413 q 575 451 633 451 l 442 451 q 415 446 422 451 q 405 424 408 441 l 350 163 q 349 139 347 145 q 375 132 352 132 l 465 132 q 487 128 481 132 q 493 109 493 125 l 493 33 q 489 6 493 13 q 463 0 484 0 l -24 0 q -44 5 -39 0 q -49 26 -49 10 l -49 105 q -44 127 -49 122 q -22 132 -39 132 l 81 132 q 108 139 105 132 q 114 164 110 146 l 267 880 q 268 905 272 900 q 241 910 265 910 l 163 910 q 137 915 142 910 q 132 941 132 921 l 132 1016 q 139 1038 132 1035 q 164 1042 145 1042 l 728 1042 q 931 1015 851 1042 q 1050 935 1010 988 q 1089 806 1089 882 q 1028 643 1089 710 q 859 542 967 576 q 821 531 834 534 q 808 522 808 528 q 821 513 808 516 q 859 501 833 510 q 935 444 911 481 q 958 349 958 408 q 951 283 958 313 q 936 227 944 252 q 928 181 928 201 q 940 152 928 164 q 968 140 951 140 q 1004 147 985 140 q 1044 181 1024 155 q 1058 194 1054 192 q 1075 184 1063 195 l 1116 143 q 1129 125 1129 131 q 1118 103 1128 119 m 480 590 l 631 590 q 709 605 670 590 q 781 646 749 619 q 833 709 814 672 q 853 789 853 745 q 818 877 853 844 q 714 910 783 910 l 544 910 q 515 905 522 910 q 503 881 508 899 l 448 622 q 449 595 444 601 q 480 590 453 590 "},"Ŕ":{"ha":1174,"x_min":-49,"x_max":1129,"o":"m 904 1382 q 925 1307 933 1344 q 882 1251 918 1271 l 686 1144 q 673 1139 678 1138 q 662 1147 669 1140 l 611 1199 q 611 1223 599 1212 l 760 1390 q 807 1417 780 1412 q 861 1413 835 1422 q 904 1382 888 1404 m 1118 103 q 1053 36 1092 63 q 970 -4 1015 9 q 881 -17 926 -17 q 742 22 788 -17 q 697 128 697 60 q 707 230 697 180 q 718 327 718 281 q 706 384 718 355 q 664 432 694 413 q 575 451 633 451 l 442 451 q 415 446 422 451 q 405 424 408 441 l 350 163 q 349 139 347 145 q 375 132 352 132 l 465 132 q 487 128 481 132 q 493 109 493 125 l 493 33 q 489 6 493 13 q 463 0 484 0 l -24 0 q -44 5 -39 0 q -49 26 -49 10 l -49 105 q -44 127 -49 122 q -22 132 -39 132 l 81 132 q 108 139 105 132 q 114 164 110 146 l 267 880 q 268 905 272 900 q 241 910 265 910 l 163 910 q 137 915 142 910 q 132 941 132 921 l 132 1016 q 139 1038 132 1035 q 164 1042 145 1042 l 728 1042 q 931 1015 851 1042 q 1050 935 1010 988 q 1089 806 1089 882 q 1028 643 1089 710 q 859 542 967 576 q 821 531 834 534 q 808 522 808 528 q 821 513 808 516 q 859 501 833 510 q 935 444 911 481 q 958 349 958 408 q 951 283 958 313 q 936 227 944 252 q 928 181 928 201 q 940 152 928 164 q 968 140 951 140 q 1004 147 985 140 q 1044 181 1024 155 q 1058 194 1054 192 q 1075 184 1063 195 l 1116 143 q 1129 125 1129 131 q 1118 103 1128 119 m 480 590 l 631 590 q 709 605 670 590 q 781 646 749 619 q 833 709 814 672 q 853 789 853 745 q 818 877 853 844 q 714 910 783 910 l 544 910 q 515 905 522 910 q 503 881 508 899 l 448 622 q 449 595 444 601 q 480 590 453 590 "},"Ŗ":{"ha":1174,"x_min":-49,"x_max":1129,"o":"m 355 -231 q 387 -160 355 -187 q 463 -133 419 -133 q 519 -148 493 -133 q 563 -192 546 -162 q 579 -272 579 -222 q 557 -354 579 -317 q 499 -418 535 -391 q 419 -461 463 -445 q 334 -479 376 -476 q 320 -478 324 -480 q 317 -465 317 -476 l 317 -424 q 320 -414 317 -415 q 332 -412 324 -413 q 396 -396 361 -409 q 459 -363 431 -383 q 495 -316 488 -342 q 496 -304 501 -305 q 482 -308 491 -303 q 461 -317 473 -314 q 434 -320 449 -320 q 375 -296 396 -320 q 355 -231 355 -272 m 1118 103 q 1053 36 1092 63 q 970 -4 1015 9 q 881 -17 926 -17 q 742 22 788 -17 q 697 128 697 60 q 707 230 697 180 q 718 327 718 281 q 706 384 718 355 q 664 432 694 413 q 575 451 633 451 l 442 451 q 415 446 422 451 q 405 424 408 441 l 350 163 q 349 139 347 145 q 375 132 352 132 l 465 132 q 487 128 481 132 q 493 109 493 125 l 493 33 q 489 6 493 13 q 463 0 484 0 l -24 0 q -44 5 -39 0 q -49 26 -49 10 l -49 105 q -44 127 -49 122 q -22 132 -39 132 l 81 132 q 108 139 105 132 q 114 164 110 146 l 267 880 q 268 905 272 900 q 241 910 265 910 l 163 910 q 137 915 142 910 q 132 941 132 921 l 132 1016 q 139 1038 132 1035 q 164 1042 145 1042 l 728 1042 q 931 1015 851 1042 q 1050 935 1010 988 q 1089 806 1089 882 q 1028 643 1089 710 q 859 542 967 576 q 821 531 834 534 q 808 522 808 528 q 821 513 808 516 q 859 501 833 510 q 935 444 911 481 q 958 349 958 408 q 951 283 958 313 q 936 227 944 252 q 928 181 928 201 q 940 152 928 164 q 968 140 951 140 q 1004 147 985 140 q 1044 181 1024 155 q 1058 194 1054 192 q 1075 184 1063 195 l 1116 143 q 1129 125 1129 131 q 1118 103 1128 119 m 480 590 l 631 590 q 709 605 670 590 q 781 646 749 619 q 833 709 814 672 q 853 789 853 745 q 818 877 853 844 q 714 910 783 910 l 544 910 q 515 905 522 910 q 503 881 508 899 l 448 622 q 449 595 444 601 q 480 590 453 590 "},"Ř":{"ha":1174,"x_min":-49,"x_max":1129,"o":"m 601 1173 l 510 1322 q 507 1334 506 1329 q 517 1346 508 1339 l 554 1376 q 569 1384 565 1385 q 582 1376 573 1383 l 685 1290 q 709 1280 697 1280 q 739 1290 722 1279 l 885 1381 q 901 1386 897 1388 q 912 1376 906 1384 l 935 1349 q 942 1336 942 1340 q 931 1322 942 1331 l 771 1171 q 755 1159 763 1163 q 732 1156 748 1156 l 640 1156 q 615 1160 623 1156 q 601 1173 606 1165 m 1118 103 q 1053 36 1092 63 q 970 -4 1015 9 q 881 -17 926 -17 q 742 22 788 -17 q 697 128 697 60 q 707 230 697 180 q 718 327 718 281 q 706 384 718 355 q 664 432 694 413 q 575 451 633 451 l 442 451 q 415 446 422 451 q 405 424 408 441 l 350 163 q 349 139 347 145 q 375 132 352 132 l 465 132 q 487 128 481 132 q 493 109 493 125 l 493 33 q 489 6 493 13 q 463 0 484 0 l -24 0 q -44 5 -39 0 q -49 26 -49 10 l -49 105 q -44 127 -49 122 q -22 132 -39 132 l 81 132 q 108 139 105 132 q 114 164 110 146 l 267 880 q 268 905 272 900 q 241 910 265 910 l 163 910 q 137 915 142 910 q 132 941 132 921 l 132 1016 q 139 1038 132 1035 q 164 1042 145 1042 l 728 1042 q 931 1015 851 1042 q 1050 935 1010 988 q 1089 806 1089 882 q 1028 643 1089 710 q 859 542 967 576 q 821 531 834 534 q 808 522 808 528 q 821 513 808 516 q 859 501 833 510 q 935 444 911 481 q 958 349 958 408 q 951 283 958 313 q 936 227 944 252 q 928 181 928 201 q 940 152 928 164 q 968 140 951 140 q 1004 147 985 140 q 1044 181 1024 155 q 1058 194 1054 192 q 1075 184 1063 195 l 1116 143 q 1129 125 1129 131 q 1118 103 1128 119 m 480 590 l 631 590 q 709 605 670 590 q 781 646 749 619 q 833 709 814 672 q 853 789 853 745 q 818 877 853 844 q 714 910 783 910 l 544 910 q 515 905 522 910 q 503 881 508 899 l 448 622 q 449 595 444 601 q 480 590 453 590 "},"Ȓ":{"ha":1174,"x_min":-49,"x_max":1129,"o":"m 726 1370 q 854 1317 824 1370 q 864 1169 883 1263 q 845 1156 861 1156 l 797 1156 q 788 1167 786 1156 q 773 1222 791 1201 q 705 1242 756 1242 q 630 1224 657 1242 q 590 1176 603 1206 q 583 1162 585 1167 q 568 1156 581 1156 l 522 1156 q 509 1159 510 1156 q 511 1173 508 1163 q 585 1317 534 1265 q 726 1370 636 1370 m 1118 103 q 1053 36 1092 63 q 970 -4 1015 9 q 881 -17 926 -17 q 742 22 788 -17 q 697 128 697 60 q 707 230 697 180 q 718 327 718 281 q 706 384 718 355 q 664 432 694 413 q 575 451 633 451 l 442 451 q 415 446 422 451 q 405 424 408 441 l 350 163 q 349 139 347 145 q 375 132 352 132 l 465 132 q 487 128 481 132 q 493 109 493 125 l 493 33 q 489 6 493 13 q 463 0 484 0 l -24 0 q -44 5 -39 0 q -49 26 -49 10 l -49 105 q -44 127 -49 122 q -22 132 -39 132 l 81 132 q 108 139 105 132 q 114 164 110 146 l 267 880 q 268 905 272 900 q 241 910 265 910 l 163 910 q 137 915 142 910 q 132 941 132 921 l 132 1016 q 139 1038 132 1035 q 164 1042 145 1042 l 728 1042 q 931 1015 851 1042 q 1050 935 1010 988 q 1089 806 1089 882 q 1028 643 1089 710 q 859 542 967 576 q 821 531 834 534 q 808 522 808 528 q 821 513 808 516 q 859 501 833 510 q 935 444 911 481 q 958 349 958 408 q 951 283 958 313 q 936 227 944 252 q 928 181 928 201 q 940 152 928 164 q 968 140 951 140 q 1004 147 985 140 q 1044 181 1024 155 q 1058 194 1054 192 q 1075 184 1063 195 l 1116 143 q 1129 125 1129 131 q 1118 103 1128 119 m 480 590 l 631 590 q 709 605 670 590 q 781 646 749 619 q 833 709 814 672 q 853 789 853 745 q 818 877 853 844 q 714 910 783 910 l 544 910 q 515 905 522 910 q 503 881 508 899 l 448 622 q 449 595 444 601 q 480 590 453 590 "},"S":{"ha":971,"x_min":-47,"x_max":1017,"o":"m 371 792 q 399 723 371 750 q 475 678 428 697 q 578 642 522 660 q 691 602 635 625 q 794 546 747 580 q 870 459 842 512 q 899 326 899 406 q 845 142 899 222 q 692 17 791 63 q 461 -28 594 -28 q 283 -1 352 -28 q 176 67 215 25 q 159 82 163 81 q 140 67 155 83 l 92 11 q 75 -2 84 2 q 49 -7 67 -7 l -10 -7 q -39 -5 -31 -7 q -43 14 -47 -3 l 42 364 q 52 384 46 378 q 76 389 58 389 l 138 389 q 162 381 159 389 q 165 355 165 373 q 176 225 155 276 q 238 144 197 174 q 330 101 278 114 q 433 89 382 89 q 549 106 503 89 q 618 149 594 122 q 653 208 643 176 q 663 271 663 240 q 634 354 663 322 q 559 407 606 386 q 457 445 513 428 q 345 483 401 463 q 242 534 289 503 q 167 613 196 565 q 139 733 139 660 q 174 874 139 812 q 267 980 208 936 q 398 1047 325 1024 q 544 1069 470 1069 q 692 1045 628 1069 q 801 978 757 1021 q 820 961 815 965 q 840 975 826 958 l 888 1026 q 904 1039 896 1035 q 930 1042 913 1042 l 983 1042 q 1013 1036 1008 1042 q 1013 1010 1017 1031 l 947 694 q 933 669 942 672 q 897 667 924 667 l 849 667 q 822 672 826 667 q 819 697 817 678 q 795 828 825 771 q 707 917 765 885 q 567 950 648 950 q 465 928 508 950 q 396 871 421 907 q 371 792 371 835 "},"Ś":{"ha":971,"x_min":-47,"x_max":1017,"o":"m 894 1382 q 915 1307 922 1344 q 872 1251 908 1271 l 676 1144 q 663 1139 667 1138 q 651 1147 658 1140 l 601 1199 q 601 1223 589 1212 l 750 1390 q 797 1417 769 1412 q 851 1413 824 1422 q 894 1382 878 1404 m 371 792 q 399 723 371 750 q 475 678 428 697 q 578 642 522 660 q 691 602 635 625 q 794 546 747 580 q 870 459 842 512 q 899 326 899 406 q 845 142 899 222 q 692 17 791 63 q 461 -28 594 -28 q 283 -1 352 -28 q 176 67 215 25 q 159 82 163 81 q 140 67 155 83 l 92 11 q 75 -2 84 2 q 49 -7 67 -7 l -10 -7 q -39 -5 -31 -7 q -43 14 -47 -3 l 42 364 q 52 384 46 378 q 76 389 58 389 l 138 389 q 162 381 159 389 q 165 355 165 373 q 176 225 155 276 q 238 144 197 174 q 330 101 278 114 q 433 89 382 89 q 549 106 503 89 q 618 149 594 122 q 653 208 643 176 q 663 271 663 240 q 634 354 663 322 q 559 407 606 386 q 457 445 513 428 q 345 483 401 463 q 242 534 289 503 q 167 613 196 565 q 139 733 139 660 q 174 874 139 812 q 267 980 208 936 q 398 1047 325 1024 q 544 1069 470 1069 q 692 1045 628 1069 q 801 978 757 1021 q 820 961 815 965 q 840 975 826 958 l 888 1026 q 904 1039 896 1035 q 930 1042 913 1042 l 983 1042 q 1013 1036 1008 1042 q 1013 1010 1017 1031 l 947 694 q 933 669 942 672 q 897 667 924 667 l 849 667 q 822 672 826 667 q 819 697 817 678 q 795 828 825 771 q 707 917 765 885 q 567 950 648 950 q 465 928 508 950 q 396 871 421 907 q 371 792 371 835 "},"Ŝ":{"ha":971,"x_min":-47,"x_max":1017,"o":"m 501 1156 l 470 1189 q 465 1200 463 1197 q 474 1211 466 1203 l 640 1366 q 656 1376 648 1374 q 678 1378 663 1378 l 772 1378 q 792 1375 786 1378 q 802 1366 798 1373 l 899 1210 q 901 1201 902 1205 q 894 1191 900 1197 l 859 1157 q 847 1149 850 1149 q 836 1156 844 1150 l 727 1253 q 692 1254 712 1267 l 525 1152 q 511 1148 516 1147 q 501 1156 506 1150 m 371 792 q 399 723 371 750 q 475 678 428 697 q 578 642 522 660 q 691 602 635 625 q 794 546 747 580 q 870 459 842 512 q 899 326 899 406 q 845 142 899 222 q 692 17 791 63 q 461 -28 594 -28 q 283 -1 352 -28 q 176 67 215 25 q 159 82 163 81 q 140 67 155 83 l 92 11 q 75 -2 84 2 q 49 -7 67 -7 l -10 -7 q -39 -5 -31 -7 q -43 14 -47 -3 l 42 364 q 52 384 46 378 q 76 389 58 389 l 138 389 q 162 381 159 389 q 165 355 165 373 q 176 225 155 276 q 238 144 197 174 q 330 101 278 114 q 433 89 382 89 q 549 106 503 89 q 618 149 594 122 q 653 208 643 176 q 663 271 663 240 q 634 354 663 322 q 559 407 606 386 q 457 445 513 428 q 345 483 401 463 q 242 534 289 503 q 167 613 196 565 q 139 733 139 660 q 174 874 139 812 q 267 980 208 936 q 398 1047 325 1024 q 544 1069 470 1069 q 692 1045 628 1069 q 801 978 757 1021 q 820 961 815 965 q 840 975 826 958 l 888 1026 q 904 1039 896 1035 q 930 1042 913 1042 l 983 1042 q 1013 1036 1008 1042 q 1013 1010 1017 1031 l 947 694 q 933 669 942 672 q 897 667 924 667 l 849 667 q 822 672 826 667 q 819 697 817 678 q 795 828 825 771 q 707 917 765 885 q 567 950 648 950 q 465 928 508 950 q 396 871 421 907 q 371 792 371 835 "},"Ş":{"ha":971,"x_min":-47,"x_max":1017,"o":"m 217 -347 l 218 -308 q 227 -293 221 -296 q 244 -289 233 -290 q 304 -281 272 -287 q 360 -265 336 -276 q 388 -233 383 -253 q 375 -196 394 -209 q 324 -178 356 -183 q 263 -169 293 -172 q 241 -163 243 -167 q 248 -149 239 -158 l 390 1 q 411 8 396 8 l 453 8 q 473 6 469 8 q 469 -6 477 3 l 407 -74 q 397 -89 396 -85 q 415 -94 397 -92 q 507 -128 476 -99 q 525 -215 538 -157 q 483 -293 515 -263 q 409 -338 452 -322 q 320 -360 367 -354 q 233 -367 274 -366 q 217 -347 215 -368 m 371 792 q 399 723 371 750 q 475 678 428 697 q 578 642 522 660 q 691 602 635 625 q 794 546 747 580 q 870 459 842 512 q 899 326 899 406 q 845 142 899 222 q 692 17 791 63 q 461 -28 594 -28 q 283 -1 352 -28 q 176 67 215 25 q 159 82 163 81 q 140 67 155 83 l 92 11 q 75 -2 84 2 q 49 -7 67 -7 l -10 -7 q -39 -5 -31 -7 q -43 14 -47 -3 l 42 364 q 52 384 46 378 q 76 389 58 389 l 138 389 q 162 381 159 389 q 165 355 165 373 q 176 225 155 276 q 238 144 197 174 q 330 101 278 114 q 433 89 382 89 q 549 106 503 89 q 618 149 594 122 q 653 208 643 176 q 663 271 663 240 q 634 354 663 322 q 559 407 606 386 q 457 445 513 428 q 345 483 401 463 q 242 534 289 503 q 167 613 196 565 q 139 733 139 660 q 174 874 139 812 q 267 980 208 936 q 398 1047 325 1024 q 544 1069 470 1069 q 692 1045 628 1069 q 801 978 757 1021 q 820 961 815 965 q 840 975 826 958 l 888 1026 q 904 1039 896 1035 q 930 1042 913 1042 l 983 1042 q 1013 1036 1008 1042 q 1013 1010 1017 1031 l 947 694 q 933 669 942 672 q 897 667 924 667 l 849 667 q 822 672 826 667 q 819 697 817 678 q 795 828 825 771 q 707 917 765 885 q 567 950 648 950 q 465 928 508 950 q 396 871 421 907 q 371 792 371 835 "},"Š":{"ha":971,"x_min":-47,"x_max":1017,"o":"m 590 1173 l 500 1322 q 496 1334 495 1329 q 506 1346 497 1339 l 544 1376 q 559 1384 555 1385 q 572 1376 563 1383 l 674 1290 q 699 1280 687 1280 q 728 1290 711 1279 l 875 1381 q 891 1386 886 1388 q 901 1376 895 1384 l 924 1349 q 931 1336 931 1340 q 921 1322 931 1331 l 760 1171 q 745 1159 752 1163 q 722 1156 738 1156 l 630 1156 q 604 1160 613 1156 q 590 1173 596 1165 m 371 792 q 399 723 371 750 q 475 678 428 697 q 578 642 522 660 q 691 602 635 625 q 794 546 747 580 q 870 459 842 512 q 899 326 899 406 q 845 142 899 222 q 692 17 791 63 q 461 -28 594 -28 q 283 -1 352 -28 q 176 67 215 25 q 159 82 163 81 q 140 67 155 83 l 92 11 q 75 -2 84 2 q 49 -7 67 -7 l -10 -7 q -39 -5 -31 -7 q -43 14 -47 -3 l 42 364 q 52 384 46 378 q 76 389 58 389 l 138 389 q 162 381 159 389 q 165 355 165 373 q 176 225 155 276 q 238 144 197 174 q 330 101 278 114 q 433 89 382 89 q 549 106 503 89 q 618 149 594 122 q 653 208 643 176 q 663 271 663 240 q 634 354 663 322 q 559 407 606 386 q 457 445 513 428 q 345 483 401 463 q 242 534 289 503 q 167 613 196 565 q 139 733 139 660 q 174 874 139 812 q 267 980 208 936 q 398 1047 325 1024 q 544 1069 470 1069 q 692 1045 628 1069 q 801 978 757 1021 q 820 961 815 965 q 840 975 826 958 l 888 1026 q 904 1039 896 1035 q 930 1042 913 1042 l 983 1042 q 1013 1036 1008 1042 q 1013 1010 1017 1031 l 947 694 q 933 669 942 672 q 897 667 924 667 l 849 667 q 822 672 826 667 q 819 697 817 678 q 795 828 825 771 q 707 917 765 885 q 567 950 648 950 q 465 928 508 950 q 396 871 421 907 q 371 792 371 835 "},"Ș":{"ha":971,"x_min":-47,"x_max":1017,"o":"m 267 -231 q 299 -160 267 -187 q 376 -133 331 -133 q 432 -148 406 -133 q 475 -192 458 -162 q 492 -272 492 -222 q 469 -354 492 -317 q 411 -418 447 -391 q 332 -461 375 -445 q 247 -479 289 -476 q 233 -478 236 -480 q 229 -465 229 -476 l 229 -424 q 233 -414 229 -415 q 244 -412 237 -413 q 309 -396 274 -409 q 372 -363 344 -383 q 408 -316 400 -342 q 409 -304 414 -305 q 394 -308 403 -303 q 374 -317 385 -314 q 347 -320 362 -320 q 288 -296 308 -320 q 267 -231 267 -272 m 371 792 q 399 723 371 750 q 475 678 428 697 q 578 642 522 660 q 691 602 635 625 q 794 546 747 580 q 870 459 842 512 q 899 326 899 406 q 845 142 899 222 q 692 17 791 63 q 461 -28 594 -28 q 283 -1 352 -28 q 176 67 215 25 q 159 82 163 81 q 140 67 155 83 l 92 11 q 75 -2 84 2 q 49 -7 67 -7 l -10 -7 q -39 -5 -31 -7 q -43 14 -47 -3 l 42 364 q 52 384 46 378 q 76 389 58 389 l 138 389 q 162 381 159 389 q 165 355 165 373 q 176 225 155 276 q 238 144 197 174 q 330 101 278 114 q 433 89 382 89 q 549 106 503 89 q 618 149 594 122 q 653 208 643 176 q 663 271 663 240 q 634 354 663 322 q 559 407 606 386 q 457 445 513 428 q 345 483 401 463 q 242 534 289 503 q 167 613 196 565 q 139 733 139 660 q 174 874 139 812 q 267 980 208 936 q 398 1047 325 1024 q 544 1069 470 1069 q 692 1045 628 1069 q 801 978 757 1021 q 820 961 815 965 q 840 975 826 958 l 888 1026 q 904 1039 896 1035 q 930 1042 913 1042 l 983 1042 q 1013 1036 1008 1042 q 1013 1010 1017 1031 l 947 694 q 933 669 942 672 q 897 667 924 667 l 849 667 q 822 672 826 667 q 819 697 817 678 q 795 828 825 771 q 707 917 765 885 q 567 950 648 950 q 465 928 508 950 q 396 871 421 907 q 371 792 371 835 "},"T":{"ha":1078,"x_min":66,"x_max":1151,"o":"m 158 33 l 158 106 q 163 127 158 123 q 185 132 167 132 l 299 132 q 333 139 327 132 q 344 168 339 145 l 501 899 q 499 913 503 910 q 481 917 494 917 l 453 917 q 328 895 376 917 q 248 823 279 874 q 191 685 217 772 q 179 658 185 666 q 148 649 172 649 l 101 649 q 69 657 72 649 q 71 687 66 665 l 145 1010 q 157 1036 150 1031 q 190 1042 165 1042 l 1106 1042 q 1145 1035 1139 1042 q 1144 998 1151 1028 l 1069 678 q 1061 655 1065 661 q 1034 649 1056 649 l 980 649 q 947 658 949 649 q 949 689 944 666 q 960 826 967 776 q 915 896 953 876 q 801 917 878 917 l 751 917 q 728 910 733 917 q 720 890 723 904 l 568 174 q 565 141 563 150 q 599 132 567 132 l 700 132 q 726 126 722 132 q 731 98 731 120 l 731 40 q 723 6 731 12 q 690 0 716 0 l 188 0 q 163 6 167 0 q 158 33 158 12 "},"Ţ":{"ha":1078,"x_min":66,"x_max":1151,"o":"m 228 -347 l 229 -308 q 238 -293 232 -296 q 255 -289 244 -290 q 315 -281 283 -287 q 371 -265 347 -276 q 399 -233 394 -253 q 386 -196 405 -209 q 335 -178 367 -183 q 274 -169 304 -172 q 252 -163 254 -167 q 259 -149 250 -158 l 401 1 q 422 8 407 8 l 465 8 q 484 6 481 8 q 481 -6 488 3 l 418 -74 q 408 -89 407 -85 q 426 -94 408 -92 q 518 -128 488 -99 q 536 -215 549 -157 q 494 -293 526 -263 q 420 -338 463 -322 q 332 -360 378 -354 q 244 -367 285 -366 q 228 -347 226 -368 m 158 33 l 158 106 q 163 127 158 123 q 185 132 167 132 l 299 132 q 333 139 327 132 q 344 168 339 145 l 501 899 q 499 913 503 910 q 481 917 494 917 l 453 917 q 328 895 376 917 q 248 823 279 874 q 191 685 217 772 q 179 658 185 666 q 148 649 172 649 l 101 649 q 69 657 72 649 q 71 687 66 665 l 145 1010 q 157 1036 150 1031 q 190 1042 165 1042 l 1106 1042 q 1145 1035 1139 1042 q 1144 998 1151 1028 l 1069 678 q 1061 655 1065 661 q 1034 649 1056 649 l 980 649 q 947 658 949 649 q 949 689 944 666 q 960 826 967 776 q 915 896 953 876 q 801 917 878 917 l 751 917 q 728 910 733 917 q 720 890 723 904 l 568 174 q 565 141 563 150 q 599 132 567 132 l 700 132 q 726 126 722 132 q 731 98 731 120 l 731 40 q 723 6 731 12 q 690 0 716 0 l 188 0 q 163 6 167 0 q 158 33 158 12 "},"Ť":{"ha":1078,"x_min":66,"x_max":1151,"o":"m 624 1173 l 534 1322 q 530 1334 529 1329 q 540 1346 531 1339 l 578 1376 q 593 1384 589 1385 q 606 1376 597 1383 l 708 1290 q 733 1280 721 1280 q 763 1290 745 1279 l 909 1381 q 925 1386 920 1388 q 935 1376 929 1384 l 958 1349 q 965 1336 965 1340 q 955 1322 965 1331 l 794 1171 q 779 1159 786 1163 q 756 1156 772 1156 l 664 1156 q 638 1160 647 1156 q 624 1173 630 1165 m 158 33 l 158 106 q 163 127 158 123 q 185 132 167 132 l 299 132 q 333 139 327 132 q 344 168 339 145 l 501 899 q 499 913 503 910 q 481 917 494 917 l 453 917 q 328 895 376 917 q 248 823 279 874 q 191 685 217 772 q 179 658 185 666 q 148 649 172 649 l 101 649 q 69 657 72 649 q 71 687 66 665 l 145 1010 q 157 1036 150 1031 q 190 1042 165 1042 l 1106 1042 q 1145 1035 1139 1042 q 1144 998 1151 1028 l 1069 678 q 1061 655 1065 661 q 1034 649 1056 649 l 980 649 q 947 658 949 649 q 949 689 944 666 q 960 826 967 776 q 915 896 953 876 q 801 917 878 917 l 751 917 q 728 910 733 917 q 720 890 723 904 l 568 174 q 565 141 563 150 q 599 132 567 132 l 700 132 q 726 126 722 132 q 731 98 731 120 l 731 40 q 723 6 731 12 q 690 0 716 0 l 188 0 q 163 6 167 0 q 158 33 158 12 "},"Ț":{"ha":1078,"x_min":66,"x_max":1151,"o":"m 278 -231 q 310 -160 278 -187 q 387 -133 342 -133 q 443 -148 417 -133 q 486 -192 469 -162 q 503 -272 503 -222 q 481 -354 503 -317 q 422 -418 458 -391 q 343 -461 386 -445 q 258 -479 300 -476 q 244 -478 247 -480 q 240 -465 240 -476 l 240 -424 q 244 -414 240 -415 q 256 -412 248 -413 q 320 -396 285 -409 q 383 -363 355 -383 q 419 -316 411 -342 q 420 -304 425 -305 q 406 -308 415 -303 q 385 -317 397 -314 q 358 -320 373 -320 q 299 -296 319 -320 q 278 -231 278 -272 m 158 33 l 158 106 q 163 127 158 123 q 185 132 167 132 l 299 132 q 333 139 327 132 q 344 168 339 145 l 501 899 q 499 913 503 910 q 481 917 494 917 l 453 917 q 328 895 376 917 q 248 823 279 874 q 191 685 217 772 q 179 658 185 666 q 148 649 172 649 l 101 649 q 69 657 72 649 q 71 687 66 665 l 145 1010 q 157 1036 150 1031 q 190 1042 165 1042 l 1106 1042 q 1145 1035 1139 1042 q 1144 998 1151 1028 l 1069 678 q 1061 655 1065 661 q 1034 649 1056 649 l 980 649 q 947 658 949 649 q 949 689 944 666 q 960 826 967 776 q 915 896 953 876 q 801 917 878 917 l 751 917 q 728 910 733 917 q 720 890 723 904 l 568 174 q 565 141 563 150 q 599 132 567 132 l 700 132 q 726 126 722 132 q 731 98 731 120 l 731 40 q 723 6 731 12 q 690 0 716 0 l 188 0 q 163 6 167 0 q 158 33 158 12 "},"U":{"ha":1213,"x_min":123,"x_max":1290,"o":"m 498 878 l 385 431 q 369 347 374 386 q 363 274 363 307 q 401 160 363 207 q 538 113 440 113 q 688 142 621 113 q 803 238 754 172 q 878 417 851 304 l 991 877 q 993 903 996 897 q 965 910 990 910 l 874 910 q 849 917 853 910 q 845 944 845 924 l 845 1013 q 848 1035 845 1029 q 867 1042 851 1042 l 1259 1042 q 1284 1036 1278 1042 q 1290 1010 1290 1031 l 1290 935 q 1283 915 1290 919 q 1261 910 1276 910 l 1171 910 q 1142 905 1148 910 q 1131 883 1136 901 l 1017 417 q 917 170 981 269 q 752 22 853 72 q 503 -28 651 -28 q 284 9 367 -28 q 164 109 201 46 q 127 253 127 173 q 133 333 127 292 q 149 417 139 374 l 263 878 q 264 904 267 898 q 235 910 260 910 l 152 910 q 128 916 133 910 q 123 940 123 922 l 123 1016 q 129 1038 123 1033 q 152 1042 135 1042 l 634 1042 q 664 1036 657 1042 q 672 1006 672 1030 l 672 938 q 666 915 672 920 q 644 910 661 910 l 539 910 q 508 905 513 910 q 498 878 503 899 "},"Ù":{"ha":1213,"x_min":123,"x_max":1290,"o":"m 584 1382 q 627 1413 601 1404 q 682 1416 654 1422 q 728 1390 710 1411 l 876 1224 q 877 1199 889 1211 l 826 1146 q 816 1138 820 1140 q 805 1142 813 1137 l 606 1251 q 562 1308 568 1272 q 584 1382 556 1344 m 498 878 l 385 431 q 369 347 374 386 q 363 274 363 307 q 401 160 363 207 q 538 113 440 113 q 688 142 621 113 q 803 238 754 172 q 878 417 851 304 l 991 877 q 993 903 996 897 q 965 910 990 910 l 874 910 q 849 917 853 910 q 845 944 845 924 l 845 1013 q 848 1035 845 1029 q 867 1042 851 1042 l 1259 1042 q 1284 1036 1278 1042 q 1290 1010 1290 1031 l 1290 935 q 1283 915 1290 919 q 1261 910 1276 910 l 1171 910 q 1142 905 1148 910 q 1131 883 1136 901 l 1017 417 q 917 170 981 269 q 752 22 853 72 q 503 -28 651 -28 q 284 9 367 -28 q 164 109 201 46 q 127 253 127 173 q 133 333 127 292 q 149 417 139 374 l 263 878 q 264 904 267 898 q 235 910 260 910 l 152 910 q 128 916 133 910 q 123 940 123 922 l 123 1016 q 129 1038 123 1033 q 152 1042 135 1042 l 634 1042 q 664 1036 657 1042 q 672 1006 672 1030 l 672 938 q 666 915 672 920 q 644 910 661 910 l 539 910 q 508 905 513 910 q 498 878 503 899 "},"Ú":{"ha":1213,"x_min":123,"x_max":1290,"o":"m 1012 1382 q 1033 1307 1040 1344 q 990 1251 1026 1271 l 794 1144 q 781 1139 785 1138 q 769 1147 776 1140 l 719 1199 q 719 1223 707 1212 l 868 1390 q 915 1417 888 1412 q 969 1413 942 1422 q 1012 1382 996 1404 m 498 878 l 385 431 q 369 347 374 386 q 363 274 363 307 q 401 160 363 207 q 538 113 440 113 q 688 142 621 113 q 803 238 754 172 q 878 417 851 304 l 991 877 q 993 903 996 897 q 965 910 990 910 l 874 910 q 849 917 853 910 q 845 944 845 924 l 845 1013 q 848 1035 845 1029 q 867 1042 851 1042 l 1259 1042 q 1284 1036 1278 1042 q 1290 1010 1290 1031 l 1290 935 q 1283 915 1290 919 q 1261 910 1276 910 l 1171 910 q 1142 905 1148 910 q 1131 883 1136 901 l 1017 417 q 917 170 981 269 q 752 22 853 72 q 503 -28 651 -28 q 284 9 367 -28 q 164 109 201 46 q 127 253 127 173 q 133 333 127 292 q 149 417 139 374 l 263 878 q 264 904 267 898 q 235 910 260 910 l 152 910 q 128 916 133 910 q 123 940 123 922 l 123 1016 q 129 1038 123 1033 q 152 1042 135 1042 l 634 1042 q 664 1036 657 1042 q 672 1006 672 1030 l 672 938 q 666 915 672 920 q 644 910 661 910 l 539 910 q 508 905 513 910 q 498 878 503 899 "},"Û":{"ha":1213,"x_min":123,"x_max":1290,"o":"m 619 1156 l 588 1189 q 583 1200 581 1197 q 592 1211 584 1203 l 758 1366 q 774 1376 766 1374 q 797 1378 781 1378 l 890 1378 q 910 1375 904 1378 q 920 1366 916 1373 l 1017 1210 q 1019 1201 1020 1205 q 1012 1191 1018 1197 l 977 1157 q 965 1149 968 1149 q 954 1156 962 1150 l 845 1253 q 810 1254 830 1267 l 643 1152 q 629 1148 634 1147 q 619 1156 624 1150 m 498 878 l 385 431 q 369 347 374 386 q 363 274 363 307 q 401 160 363 207 q 538 113 440 113 q 688 142 621 113 q 803 238 754 172 q 878 417 851 304 l 991 877 q 993 903 996 897 q 965 910 990 910 l 874 910 q 849 917 853 910 q 845 944 845 924 l 845 1013 q 848 1035 845 1029 q 867 1042 851 1042 l 1259 1042 q 1284 1036 1278 1042 q 1290 1010 1290 1031 l 1290 935 q 1283 915 1290 919 q 1261 910 1276 910 l 1171 910 q 1142 905 1148 910 q 1131 883 1136 901 l 1017 417 q 917 170 981 269 q 752 22 853 72 q 503 -28 651 -28 q 284 9 367 -28 q 164 109 201 46 q 127 253 127 173 q 133 333 127 292 q 149 417 139 374 l 263 878 q 264 904 267 898 q 235 910 260 910 l 152 910 q 128 916 133 910 q 123 940 123 922 l 123 1016 q 129 1038 123 1033 q 152 1042 135 1042 l 634 1042 q 664 1036 657 1042 q 672 1006 672 1030 l 672 938 q 666 915 672 920 q 644 910 661 910 l 539 910 q 508 905 513 910 q 498 878 503 899 "},"Ü":{"ha":1213,"x_min":123,"x_max":1290,"o":"m 958 1174 q 887 1203 917 1174 q 858 1274 858 1233 q 887 1345 858 1315 q 958 1374 917 1374 q 1028 1345 999 1374 q 1058 1274 1058 1315 q 1028 1203 1058 1233 q 958 1174 999 1174 m 652 1174 q 582 1203 611 1174 q 552 1274 552 1233 q 582 1345 552 1315 q 652 1374 611 1374 q 723 1345 694 1374 q 752 1274 752 1315 q 723 1203 752 1233 q 652 1174 694 1174 m 498 878 l 385 431 q 369 347 374 386 q 363 274 363 307 q 401 160 363 207 q 538 113 440 113 q 688 142 621 113 q 803 238 754 172 q 878 417 851 304 l 991 877 q 993 903 996 897 q 965 910 990 910 l 874 910 q 849 917 853 910 q 845 944 845 924 l 845 1013 q 848 1035 845 1029 q 867 1042 851 1042 l 1259 1042 q 1284 1036 1278 1042 q 1290 1010 1290 1031 l 1290 935 q 1283 915 1290 919 q 1261 910 1276 910 l 1171 910 q 1142 905 1148 910 q 1131 883 1136 901 l 1017 417 q 917 170 981 269 q 752 22 853 72 q 503 -28 651 -28 q 284 9 367 -28 q 164 109 201 46 q 127 253 127 173 q 133 333 127 292 q 149 417 139 374 l 263 878 q 264 904 267 898 q 235 910 260 910 l 152 910 q 128 916 133 910 q 123 940 123 922 l 123 1016 q 129 1038 123 1033 q 152 1042 135 1042 l 634 1042 q 664 1036 657 1042 q 672 1006 672 1030 l 672 938 q 666 915 672 920 q 644 910 661 910 l 539 910 q 508 905 513 910 q 498 878 503 899 "},"Ũ":{"ha":1213,"x_min":123,"x_max":1290,"o":"m 917 1149 q 841 1166 867 1149 q 794 1201 814 1182 q 758 1232 776 1218 q 712 1245 741 1245 q 669 1230 687 1245 q 641 1190 651 1215 q 622 1181 633 1181 l 565 1181 q 552 1186 553 1181 q 555 1201 551 1191 q 596 1285 569 1246 q 662 1350 624 1325 q 747 1374 700 1374 q 821 1358 796 1374 q 864 1323 846 1342 q 900 1292 881 1306 q 944 1278 919 1278 q 983 1291 966 1278 q 1010 1328 999 1303 q 1018 1339 1015 1335 q 1031 1343 1021 1343 l 1090 1343 q 1101 1340 1100 1343 q 1100 1328 1102 1336 q 1061 1236 1087 1276 q 999 1173 1035 1196 q 917 1149 963 1149 m 498 878 l 385 431 q 369 347 374 386 q 363 274 363 307 q 401 160 363 207 q 538 113 440 113 q 688 142 621 113 q 803 238 754 172 q 878 417 851 304 l 991 877 q 993 903 996 897 q 965 910 990 910 l 874 910 q 849 917 853 910 q 845 944 845 924 l 845 1013 q 848 1035 845 1029 q 867 1042 851 1042 l 1259 1042 q 1284 1036 1278 1042 q 1290 1010 1290 1031 l 1290 935 q 1283 915 1290 919 q 1261 910 1276 910 l 1171 910 q 1142 905 1148 910 q 1131 883 1136 901 l 1017 417 q 917 170 981 269 q 752 22 853 72 q 503 -28 651 -28 q 284 9 367 -28 q 164 109 201 46 q 127 253 127 173 q 133 333 127 292 q 149 417 139 374 l 263 878 q 264 904 267 898 q 235 910 260 910 l 152 910 q 128 916 133 910 q 123 940 123 922 l 123 1016 q 129 1038 123 1033 q 152 1042 135 1042 l 634 1042 q 664 1036 657 1042 q 672 1006 672 1030 l 672 938 q 666 915 672 920 q 644 910 661 910 l 539 910 q 508 905 513 910 q 498 878 503 899 "},"Ū":{"ha":1213,"x_min":123,"x_max":1290,"o":"m 625 1172 l 625 1229 q 627 1243 625 1239 q 639 1248 630 1248 l 935 1248 q 953 1244 948 1248 q 958 1226 958 1240 l 958 1170 q 956 1154 958 1159 q 943 1149 954 1149 l 649 1149 q 631 1153 636 1149 q 625 1172 625 1157 m 498 878 l 385 431 q 369 347 374 386 q 363 274 363 307 q 401 160 363 207 q 538 113 440 113 q 688 142 621 113 q 803 238 754 172 q 878 417 851 304 l 991 877 q 993 903 996 897 q 965 910 990 910 l 874 910 q 849 917 853 910 q 845 944 845 924 l 845 1013 q 848 1035 845 1029 q 867 1042 851 1042 l 1259 1042 q 1284 1036 1278 1042 q 1290 1010 1290 1031 l 1290 935 q 1283 915 1290 919 q 1261 910 1276 910 l 1171 910 q 1142 905 1148 910 q 1131 883 1136 901 l 1017 417 q 917 170 981 269 q 752 22 853 72 q 503 -28 651 -28 q 284 9 367 -28 q 164 109 201 46 q 127 253 127 173 q 133 333 127 292 q 149 417 139 374 l 263 878 q 264 904 267 898 q 235 910 260 910 l 152 910 q 128 916 133 910 q 123 940 123 922 l 123 1016 q 129 1038 123 1033 q 152 1042 135 1042 l 634 1042 q 664 1036 657 1042 q 672 1006 672 1030 l 672 938 q 666 915 672 920 q 644 910 661 910 l 539 910 q 508 905 513 910 q 498 878 503 899 "},"Ŭ":{"ha":1213,"x_min":123,"x_max":1290,"o":"m 781 1146 q 678 1170 713 1146 q 637 1240 644 1194 q 643 1347 630 1285 q 662 1360 646 1360 l 706 1360 q 717 1349 717 1360 q 731 1295 713 1315 q 799 1274 749 1274 q 874 1292 847 1274 q 914 1340 901 1310 q 920 1355 918 1349 q 935 1360 923 1360 l 985 1360 q 998 1357 997 1360 q 996 1343 999 1353 q 922 1199 973 1252 q 781 1146 872 1146 m 498 878 l 385 431 q 369 347 374 386 q 363 274 363 307 q 401 160 363 207 q 538 113 440 113 q 688 142 621 113 q 803 238 754 172 q 878 417 851 304 l 991 877 q 993 903 996 897 q 965 910 990 910 l 874 910 q 849 917 853 910 q 845 944 845 924 l 845 1013 q 848 1035 845 1029 q 867 1042 851 1042 l 1259 1042 q 1284 1036 1278 1042 q 1290 1010 1290 1031 l 1290 935 q 1283 915 1290 919 q 1261 910 1276 910 l 1171 910 q 1142 905 1148 910 q 1131 883 1136 901 l 1017 417 q 917 170 981 269 q 752 22 853 72 q 503 -28 651 -28 q 284 9 367 -28 q 164 109 201 46 q 127 253 127 173 q 133 333 127 292 q 149 417 139 374 l 263 878 q 264 904 267 898 q 235 910 260 910 l 152 910 q 128 916 133 910 q 123 940 123 922 l 123 1016 q 129 1038 123 1033 q 152 1042 135 1042 l 634 1042 q 664 1036 657 1042 q 672 1006 672 1030 l 672 938 q 666 915 672 920 q 644 910 661 910 l 539 910 q 508 905 513 910 q 498 878 503 899 "},"Ů":{"ha":1213,"x_min":123,"x_max":1290,"o":"m 790 1235 q 841 1255 819 1235 q 869 1302 863 1274 q 863 1353 876 1333 q 821 1373 849 1373 q 770 1353 792 1373 q 742 1302 749 1333 q 749 1255 736 1274 q 790 1235 762 1235 m 778 1153 q 675 1197 708 1153 q 656 1301 643 1241 q 691 1376 665 1342 q 753 1431 716 1410 q 831 1451 790 1451 q 935 1407 903 1451 q 954 1301 968 1363 q 919 1228 945 1262 q 857 1173 894 1194 q 778 1153 821 1153 m 498 878 l 385 431 q 369 347 374 386 q 363 274 363 307 q 401 160 363 207 q 538 113 440 113 q 688 142 621 113 q 803 238 754 172 q 878 417 851 304 l 991 877 q 993 903 996 897 q 965 910 990 910 l 874 910 q 849 917 853 910 q 845 944 845 924 l 845 1013 q 848 1035 845 1029 q 867 1042 851 1042 l 1259 1042 q 1284 1036 1278 1042 q 1290 1010 1290 1031 l 1290 935 q 1283 915 1290 919 q 1261 910 1276 910 l 1171 910 q 1142 905 1148 910 q 1131 883 1136 901 l 1017 417 q 917 170 981 269 q 752 22 853 72 q 503 -28 651 -28 q 284 9 367 -28 q 164 109 201 46 q 127 253 127 173 q 133 333 127 292 q 149 417 139 374 l 263 878 q 264 904 267 898 q 235 910 260 910 l 152 910 q 128 916 133 910 q 123 940 123 922 l 123 1016 q 129 1038 123 1033 q 152 1042 135 1042 l 634 1042 q 664 1036 657 1042 q 672 1006 672 1030 l 672 938 q 666 915 672 920 q 644 910 661 910 l 539 910 q 508 905 513 910 q 498 878 503 899 "},"Ű":{"ha":1213,"x_min":123,"x_max":1290,"o":"m 958 1173 l 903 1213 q 893 1226 894 1222 q 900 1240 892 1231 l 1025 1420 q 1066 1452 1040 1442 q 1120 1458 1092 1463 q 1171 1433 1149 1454 q 1202 1361 1208 1397 q 1164 1301 1195 1325 l 981 1170 q 969 1165 973 1164 q 958 1173 966 1166 m 594 1174 l 540 1213 q 532 1227 531 1222 q 541 1242 533 1233 l 663 1420 q 705 1453 678 1442 q 761 1461 732 1464 q 811 1435 790 1458 q 841 1363 847 1399 q 802 1301 835 1326 l 628 1176 q 610 1166 616 1167 q 594 1174 605 1165 m 498 878 l 385 431 q 369 347 374 386 q 363 274 363 307 q 401 160 363 207 q 538 113 440 113 q 688 142 621 113 q 803 238 754 172 q 878 417 851 304 l 991 877 q 993 903 996 897 q 965 910 990 910 l 874 910 q 849 917 853 910 q 845 944 845 924 l 845 1013 q 848 1035 845 1029 q 867 1042 851 1042 l 1259 1042 q 1284 1036 1278 1042 q 1290 1010 1290 1031 l 1290 935 q 1283 915 1290 919 q 1261 910 1276 910 l 1171 910 q 1142 905 1148 910 q 1131 883 1136 901 l 1017 417 q 917 170 981 269 q 752 22 853 72 q 503 -28 651 -28 q 284 9 367 -28 q 164 109 201 46 q 127 253 127 173 q 133 333 127 292 q 149 417 139 374 l 263 878 q 264 904 267 898 q 235 910 260 910 l 152 910 q 128 916 133 910 q 123 940 123 922 l 123 1016 q 129 1038 123 1033 q 152 1042 135 1042 l 634 1042 q 664 1036 657 1042 q 672 1006 672 1030 l 672 938 q 666 915 672 920 q 644 910 661 910 l 539 910 q 508 905 513 910 q 498 878 503 899 "},"Ų":{"ha":1213,"x_min":123,"x_max":1290,"o":"m 608 -270 q 525 -259 560 -270 q 472 -223 489 -247 q 459 -158 454 -198 q 491 -88 464 -120 q 557 -28 518 -56 q 636 23 596 -1 q 709 65 677 46 q 735 69 722 72 q 752 61 749 66 q 763 44 762 51 q 753 27 763 37 q 707 -12 733 9 q 660 -59 681 -34 q 633 -112 639 -84 q 639 -155 626 -139 q 682 -172 651 -172 q 727 -161 708 -172 q 760 -136 746 -150 q 781 -131 773 -123 l 803 -152 q 808 -160 809 -157 q 802 -172 808 -164 q 727 -240 772 -210 q 608 -270 682 -270 m 498 878 l 385 431 q 369 347 374 386 q 363 274 363 307 q 401 160 363 207 q 538 113 440 113 q 688 142 621 113 q 803 238 754 172 q 878 417 851 304 l 991 877 q 993 903 996 897 q 965 910 990 910 l 874 910 q 849 917 853 910 q 845 944 845 924 l 845 1013 q 848 1035 845 1029 q 867 1042 851 1042 l 1259 1042 q 1284 1036 1278 1042 q 1290 1010 1290 1031 l 1290 935 q 1283 915 1290 919 q 1261 910 1276 910 l 1171 910 q 1142 905 1148 910 q 1131 883 1136 901 l 1017 417 q 917 170 981 269 q 752 22 853 72 q 503 -28 651 -28 q 284 9 367 -28 q 164 109 201 46 q 127 253 127 173 q 133 333 127 292 q 149 417 139 374 l 263 878 q 264 904 267 898 q 235 910 260 910 l 152 910 q 128 916 133 910 q 123 940 123 922 l 123 1016 q 129 1038 123 1033 q 152 1042 135 1042 l 634 1042 q 664 1036 657 1042 q 672 1006 672 1030 l 672 938 q 666 915 672 920 q 644 910 661 910 l 539 910 q 508 905 513 910 q 498 878 503 899 "},"V":{"ha":1229,"x_min":90,"x_max":1340,"o":"m 411 10 l 241 879 q 231 903 238 897 q 202 910 225 910 l 120 910 q 95 916 99 910 q 90 944 90 923 l 90 1012 q 98 1038 90 1033 q 126 1042 106 1042 l 627 1042 q 651 1036 646 1042 q 656 1011 656 1031 l 656 937 q 651 915 656 919 q 628 910 646 910 l 519 910 q 494 904 497 910 q 493 879 490 899 l 583 332 q 592 258 592 283 q 603 232 593 232 q 630 258 614 232 q 668 319 646 283 l 1026 881 q 1034 906 1038 901 q 998 910 1029 910 l 941 910 q 916 915 922 910 q 910 939 910 920 l 910 1012 q 915 1036 910 1031 q 940 1042 920 1042 l 1313 1042 q 1334 1038 1328 1042 q 1340 1016 1340 1033 l 1340 942 q 1335 916 1340 922 q 1310 910 1331 910 l 1240 910 q 1208 906 1215 910 q 1192 889 1201 903 l 619 6 q 600 -15 610 -9 q 565 -21 590 -21 l 453 -21 q 422 -15 428 -21 q 411 10 415 -9 "},"W":{"ha":1721,"x_min":90,"x_max":1832,"o":"m 614 360 l 885 778 q 901 803 894 792 q 904 835 907 814 l 899 891 q 893 907 897 904 q 875 910 890 910 l 792 910 q 771 914 776 910 q 765 935 765 919 l 765 1001 q 772 1035 765 1029 q 806 1042 779 1042 l 1208 1042 q 1231 1037 1225 1042 q 1238 1014 1238 1033 l 1238 940 q 1231 914 1238 918 q 1202 910 1224 910 l 1151 910 q 1125 903 1128 910 q 1124 877 1122 897 l 1169 424 q 1172 362 1174 388 q 1172 322 1171 335 q 1181 308 1172 308 q 1197 320 1188 308 q 1214 352 1205 333 q 1233 388 1223 371 l 1513 877 q 1524 905 1526 899 q 1485 910 1523 910 l 1433 910 q 1408 916 1413 910 q 1403 941 1403 922 l 1403 1019 q 1407 1039 1403 1036 q 1428 1042 1412 1042 l 1796 1042 q 1825 1036 1817 1042 q 1832 1009 1832 1031 l 1832 939 q 1827 916 1832 922 q 1803 910 1822 910 l 1703 910 q 1678 904 1683 910 q 1666 885 1674 898 l 1163 18 q 1144 -6 1153 3 q 1108 -14 1135 -14 l 1038 -14 q 1003 -8 1012 -14 q 991 22 994 -3 l 942 484 q 939 573 937 538 q 926 609 941 609 q 900 582 916 609 q 860 518 885 556 l 528 16 q 505 -7 516 -1 q 463 -14 494 -14 l 394 -14 q 364 -8 368 -14 q 357 19 360 -3 l 240 867 q 235 893 238 884 q 224 906 232 903 q 195 910 216 910 l 126 910 q 97 915 103 910 q 90 945 90 921 l 90 1008 q 94 1035 90 1029 q 119 1042 99 1042 l 569 1042 q 601 1036 592 1042 q 611 1007 611 1031 l 611 950 q 607 919 611 928 q 579 910 603 910 l 496 910 q 471 903 475 910 q 469 878 467 896 l 534 365 q 539 298 540 321 q 550 275 538 275 q 577 300 562 275 q 614 360 592 326 "},"Ŵ":{"ha":1721,"x_min":90,"x_max":1832,"o":"m 900 1156 l 869 1189 q 864 1200 863 1197 q 874 1211 865 1203 l 1039 1366 q 1055 1376 1047 1374 q 1078 1378 1063 1378 l 1172 1378 q 1191 1375 1185 1378 q 1201 1366 1197 1373 l 1298 1210 q 1300 1201 1301 1205 q 1293 1191 1299 1197 l 1258 1157 q 1246 1149 1249 1149 q 1235 1156 1243 1150 l 1126 1253 q 1092 1254 1111 1267 l 924 1152 q 910 1148 915 1147 q 900 1156 906 1150 m 614 360 l 885 778 q 901 803 894 792 q 904 835 907 814 l 899 891 q 893 907 897 904 q 875 910 890 910 l 792 910 q 771 914 776 910 q 765 935 765 919 l 765 1001 q 772 1035 765 1029 q 806 1042 779 1042 l 1208 1042 q 1231 1037 1225 1042 q 1238 1014 1238 1033 l 1238 940 q 1231 914 1238 918 q 1202 910 1224 910 l 1151 910 q 1125 903 1128 910 q 1124 877 1122 897 l 1169 424 q 1172 362 1174 388 q 1172 322 1171 335 q 1181 308 1172 308 q 1197 320 1188 308 q 1214 352 1205 333 q 1233 388 1223 371 l 1513 877 q 1524 905 1526 899 q 1485 910 1523 910 l 1433 910 q 1408 916 1413 910 q 1403 941 1403 922 l 1403 1019 q 1407 1039 1403 1036 q 1428 1042 1412 1042 l 1796 1042 q 1825 1036 1817 1042 q 1832 1009 1832 1031 l 1832 939 q 1827 916 1832 922 q 1803 910 1822 910 l 1703 910 q 1678 904 1683 910 q 1666 885 1674 898 l 1163 18 q 1144 -6 1153 3 q 1108 -14 1135 -14 l 1038 -14 q 1003 -8 1012 -14 q 991 22 994 -3 l 942 484 q 939 573 937 538 q 926 609 941 609 q 900 582 916 609 q 860 518 885 556 l 528 16 q 505 -7 516 -1 q 463 -14 494 -14 l 394 -14 q 364 -8 368 -14 q 357 19 360 -3 l 240 867 q 235 893 238 884 q 224 906 232 903 q 195 910 216 910 l 126 910 q 97 915 103 910 q 90 945 90 921 l 90 1008 q 94 1035 90 1029 q 119 1042 99 1042 l 569 1042 q 601 1036 592 1042 q 611 1007 611 1031 l 611 950 q 607 919 611 928 q 579 910 603 910 l 496 910 q 471 903 475 910 q 469 878 467 896 l 534 365 q 539 298 540 321 q 550 275 538 275 q 577 300 562 275 q 614 360 592 326 "},"Ẁ":{"ha":1721,"x_min":90,"x_max":1832,"o":"m 865 1382 q 909 1413 882 1404 q 963 1416 935 1422 q 1009 1390 991 1411 l 1158 1224 q 1158 1199 1170 1211 l 1107 1146 q 1098 1138 1101 1140 q 1086 1142 1094 1137 l 888 1251 q 843 1308 849 1272 q 865 1382 837 1344 m 614 360 l 885 778 q 901 803 894 792 q 904 835 907 814 l 899 891 q 893 907 897 904 q 875 910 890 910 l 792 910 q 771 914 776 910 q 765 935 765 919 l 765 1001 q 772 1035 765 1029 q 806 1042 779 1042 l 1208 1042 q 1231 1037 1225 1042 q 1238 1014 1238 1033 l 1238 940 q 1231 914 1238 918 q 1202 910 1224 910 l 1151 910 q 1125 903 1128 910 q 1124 877 1122 897 l 1169 424 q 1172 362 1174 388 q 1172 322 1171 335 q 1181 308 1172 308 q 1197 320 1188 308 q 1214 352 1205 333 q 1233 388 1223 371 l 1513 877 q 1524 905 1526 899 q 1485 910 1523 910 l 1433 910 q 1408 916 1413 910 q 1403 941 1403 922 l 1403 1019 q 1407 1039 1403 1036 q 1428 1042 1412 1042 l 1796 1042 q 1825 1036 1817 1042 q 1832 1009 1832 1031 l 1832 939 q 1827 916 1832 922 q 1803 910 1822 910 l 1703 910 q 1678 904 1683 910 q 1666 885 1674 898 l 1163 18 q 1144 -6 1153 3 q 1108 -14 1135 -14 l 1038 -14 q 1003 -8 1012 -14 q 991 22 994 -3 l 942 484 q 939 573 937 538 q 926 609 941 609 q 900 582 916 609 q 860 518 885 556 l 528 16 q 505 -7 516 -1 q 463 -14 494 -14 l 394 -14 q 364 -8 368 -14 q 357 19 360 -3 l 240 867 q 235 893 238 884 q 224 906 232 903 q 195 910 216 910 l 126 910 q 97 915 103 910 q 90 945 90 921 l 90 1008 q 94 1035 90 1029 q 119 1042 99 1042 l 569 1042 q 601 1036 592 1042 q 611 1007 611 1031 l 611 950 q 607 919 611 928 q 579 910 603 910 l 496 910 q 471 903 475 910 q 469 878 467 896 l 534 365 q 539 298 540 321 q 550 275 538 275 q 577 300 562 275 q 614 360 592 326 "},"Ẃ":{"ha":1721,"x_min":90,"x_max":1832,"o":"m 1293 1382 q 1314 1307 1322 1344 q 1271 1251 1307 1271 l 1075 1144 q 1062 1139 1067 1138 q 1051 1147 1058 1140 l 1000 1199 q 1000 1223 988 1212 l 1149 1390 q 1196 1417 1169 1412 q 1250 1413 1224 1422 q 1293 1382 1277 1404 m 614 360 l 885 778 q 901 803 894 792 q 904 835 907 814 l 899 891 q 893 907 897 904 q 875 910 890 910 l 792 910 q 771 914 776 910 q 765 935 765 919 l 765 1001 q 772 1035 765 1029 q 806 1042 779 1042 l 1208 1042 q 1231 1037 1225 1042 q 1238 1014 1238 1033 l 1238 940 q 1231 914 1238 918 q 1202 910 1224 910 l 1151 910 q 1125 903 1128 910 q 1124 877 1122 897 l 1169 424 q 1172 362 1174 388 q 1172 322 1171 335 q 1181 308 1172 308 q 1197 320 1188 308 q 1214 352 1205 333 q 1233 388 1223 371 l 1513 877 q 1524 905 1526 899 q 1485 910 1523 910 l 1433 910 q 1408 916 1413 910 q 1403 941 1403 922 l 1403 1019 q 1407 1039 1403 1036 q 1428 1042 1412 1042 l 1796 1042 q 1825 1036 1817 1042 q 1832 1009 1832 1031 l 1832 939 q 1827 916 1832 922 q 1803 910 1822 910 l 1703 910 q 1678 904 1683 910 q 1666 885 1674 898 l 1163 18 q 1144 -6 1153 3 q 1108 -14 1135 -14 l 1038 -14 q 1003 -8 1012 -14 q 991 22 994 -3 l 942 484 q 939 573 937 538 q 926 609 941 609 q 900 582 916 609 q 860 518 885 556 l 528 16 q 505 -7 516 -1 q 463 -14 494 -14 l 394 -14 q 364 -8 368 -14 q 357 19 360 -3 l 240 867 q 235 893 238 884 q 224 906 232 903 q 195 910 216 910 l 126 910 q 97 915 103 910 q 90 945 90 921 l 90 1008 q 94 1035 90 1029 q 119 1042 99 1042 l 569 1042 q 601 1036 592 1042 q 611 1007 611 1031 l 611 950 q 607 919 611 928 q 579 910 603 910 l 496 910 q 471 903 475 910 q 469 878 467 896 l 534 365 q 539 298 540 321 q 550 275 538 275 q 577 300 562 275 q 614 360 592 326 "},"Ẅ":{"ha":1721,"x_min":90,"x_max":1832,"o":"m 1239 1174 q 1168 1203 1198 1174 q 1139 1274 1139 1233 q 1168 1345 1139 1315 q 1239 1374 1198 1374 q 1310 1345 1281 1374 q 1339 1274 1339 1315 q 1310 1203 1339 1233 q 1239 1174 1281 1174 m 933 1174 q 863 1203 892 1174 q 833 1274 833 1233 q 863 1345 833 1315 q 933 1374 892 1374 q 1004 1345 975 1374 q 1033 1274 1033 1315 q 1004 1203 1033 1233 q 933 1174 975 1174 m 614 360 l 885 778 q 901 803 894 792 q 904 835 907 814 l 899 891 q 893 907 897 904 q 875 910 890 910 l 792 910 q 771 914 776 910 q 765 935 765 919 l 765 1001 q 772 1035 765 1029 q 806 1042 779 1042 l 1208 1042 q 1231 1037 1225 1042 q 1238 1014 1238 1033 l 1238 940 q 1231 914 1238 918 q 1202 910 1224 910 l 1151 910 q 1125 903 1128 910 q 1124 877 1122 897 l 1169 424 q 1172 362 1174 388 q 1172 322 1171 335 q 1181 308 1172 308 q 1197 320 1188 308 q 1214 352 1205 333 q 1233 388 1223 371 l 1513 877 q 1524 905 1526 899 q 1485 910 1523 910 l 1433 910 q 1408 916 1413 910 q 1403 941 1403 922 l 1403 1019 q 1407 1039 1403 1036 q 1428 1042 1412 1042 l 1796 1042 q 1825 1036 1817 1042 q 1832 1009 1832 1031 l 1832 939 q 1827 916 1832 922 q 1803 910 1822 910 l 1703 910 q 1678 904 1683 910 q 1666 885 1674 898 l 1163 18 q 1144 -6 1153 3 q 1108 -14 1135 -14 l 1038 -14 q 1003 -8 1012 -14 q 991 22 994 -3 l 942 484 q 939 573 937 538 q 926 609 941 609 q 900 582 916 609 q 860 518 885 556 l 528 16 q 505 -7 516 -1 q 463 -14 494 -14 l 394 -14 q 364 -8 368 -14 q 357 19 360 -3 l 240 867 q 235 893 238 884 q 224 906 232 903 q 195 910 216 910 l 126 910 q 97 915 103 910 q 90 945 90 921 l 90 1008 q 94 1035 90 1029 q 119 1042 99 1042 l 569 1042 q 601 1036 592 1042 q 611 1007 611 1031 l 611 950 q 607 919 611 928 q 579 910 603 910 l 496 910 q 471 903 475 910 q 469 878 467 896 l 534 365 q 539 298 540 321 q 550 275 538 275 q 577 300 562 275 q 614 360 592 326 "},"Ẇ":{"ha":1721,"x_min":90,"x_max":1832,"o":"m 1101 1201 q 1024 1233 1056 1201 q 992 1309 992 1265 q 1024 1386 992 1354 q 1101 1418 1056 1418 q 1177 1386 1146 1418 q 1209 1309 1209 1354 q 1177 1233 1209 1265 q 1101 1201 1146 1201 m 614 360 l 885 778 q 901 803 894 792 q 904 835 907 814 l 899 891 q 893 907 897 904 q 875 910 890 910 l 792 910 q 771 914 776 910 q 765 935 765 919 l 765 1001 q 772 1035 765 1029 q 806 1042 779 1042 l 1208 1042 q 1231 1037 1225 1042 q 1238 1014 1238 1033 l 1238 940 q 1231 914 1238 918 q 1202 910 1224 910 l 1151 910 q 1125 903 1128 910 q 1124 877 1122 897 l 1169 424 q 1172 362 1174 388 q 1172 322 1171 335 q 1181 308 1172 308 q 1197 320 1188 308 q 1214 352 1205 333 q 1233 388 1223 371 l 1513 877 q 1524 905 1526 899 q 1485 910 1523 910 l 1433 910 q 1408 916 1413 910 q 1403 941 1403 922 l 1403 1019 q 1407 1039 1403 1036 q 1428 1042 1412 1042 l 1796 1042 q 1825 1036 1817 1042 q 1832 1009 1832 1031 l 1832 939 q 1827 916 1832 922 q 1803 910 1822 910 l 1703 910 q 1678 904 1683 910 q 1666 885 1674 898 l 1163 18 q 1144 -6 1153 3 q 1108 -14 1135 -14 l 1038 -14 q 1003 -8 1012 -14 q 991 22 994 -3 l 942 484 q 939 573 937 538 q 926 609 941 609 q 900 582 916 609 q 860 518 885 556 l 528 16 q 505 -7 516 -1 q 463 -14 494 -14 l 394 -14 q 364 -8 368 -14 q 357 19 360 -3 l 240 867 q 235 893 238 884 q 224 906 232 903 q 195 910 216 910 l 126 910 q 97 915 103 910 q 90 945 90 921 l 90 1008 q 94 1035 90 1029 q 119 1042 99 1042 l 569 1042 q 601 1036 592 1042 q 611 1007 611 1031 l 611 950 q 607 919 611 928 q 579 910 603 910 l 496 910 q 471 903 475 910 q 469 878 467 896 l 534 365 q 539 298 540 321 q 550 275 538 275 q 577 300 562 275 q 614 360 592 326 "},"Ẉ":{"ha":1721,"x_min":90,"x_max":1832,"o":"m 731 -334 q 654 -302 686 -334 q 622 -226 622 -270 q 654 -149 622 -181 q 731 -117 686 -117 q 807 -149 776 -117 q 839 -226 839 -181 q 807 -302 839 -270 q 731 -334 776 -334 m 614 360 l 885 778 q 901 803 894 792 q 904 835 907 814 l 899 891 q 893 907 897 904 q 875 910 890 910 l 792 910 q 771 914 776 910 q 765 935 765 919 l 765 1001 q 772 1035 765 1029 q 806 1042 779 1042 l 1208 1042 q 1231 1037 1225 1042 q 1238 1014 1238 1033 l 1238 940 q 1231 914 1238 918 q 1202 910 1224 910 l 1151 910 q 1125 903 1128 910 q 1124 877 1122 897 l 1169 424 q 1172 362 1174 388 q 1172 322 1171 335 q 1181 308 1172 308 q 1197 320 1188 308 q 1214 352 1205 333 q 1233 388 1223 371 l 1513 877 q 1524 905 1526 899 q 1485 910 1523 910 l 1433 910 q 1408 916 1413 910 q 1403 941 1403 922 l 1403 1019 q 1407 1039 1403 1036 q 1428 1042 1412 1042 l 1796 1042 q 1825 1036 1817 1042 q 1832 1009 1832 1031 l 1832 939 q 1827 916 1832 922 q 1803 910 1822 910 l 1703 910 q 1678 904 1683 910 q 1666 885 1674 898 l 1163 18 q 1144 -6 1153 3 q 1108 -14 1135 -14 l 1038 -14 q 1003 -8 1012 -14 q 991 22 994 -3 l 942 484 q 939 573 937 538 q 926 609 941 609 q 900 582 916 609 q 860 518 885 556 l 528 16 q 505 -7 516 -1 q 463 -14 494 -14 l 394 -14 q 364 -8 368 -14 q 357 19 360 -3 l 240 867 q 235 893 238 884 q 224 906 232 903 q 195 910 216 910 l 126 910 q 97 915 103 910 q 90 945 90 921 l 90 1008 q 94 1035 90 1029 q 119 1042 99 1042 l 569 1042 q 601 1036 592 1042 q 611 1007 611 1031 l 611 950 q 607 919 611 928 q 579 910 603 910 l 496 910 q 471 903 475 910 q 469 878 467 896 l 534 365 q 539 298 540 321 q 550 275 538 275 q 577 300 562 275 q 614 360 592 326 "},"X":{"ha":1194,"x_min":-104,"x_max":1285,"o":"m 221 910 l 154 910 q 124 916 130 910 q 118 947 118 923 l 118 1013 q 126 1037 118 1032 q 153 1042 135 1042 l 642 1042 q 668 1037 662 1042 q 674 1011 674 1032 l 674 944 q 669 916 674 923 q 642 910 664 910 l 566 910 q 531 904 538 910 q 538 880 525 898 l 645 702 q 662 673 658 684 q 677 663 667 663 q 700 675 687 663 q 733 705 713 687 l 923 883 q 940 897 933 891 q 942 907 947 903 q 914 910 938 910 l 858 910 q 831 914 836 910 q 826 940 826 919 l 826 1008 q 832 1036 826 1031 q 861 1042 838 1042 l 1247 1042 q 1277 1036 1270 1042 q 1285 1006 1285 1031 l 1285 944 q 1279 915 1285 921 q 1249 910 1273 910 l 1177 910 q 1134 905 1146 910 q 1106 885 1122 899 l 804 610 q 766 575 781 590 q 751 547 751 560 q 765 519 751 534 q 796 478 778 505 l 997 165 q 1018 140 1008 149 q 1056 132 1028 132 l 1140 132 q 1163 126 1159 132 q 1166 101 1166 119 l 1166 35 q 1159 5 1166 10 q 1128 0 1153 0 l 630 0 q 604 4 611 0 q 597 28 597 8 l 597 102 q 603 127 597 123 q 630 132 609 132 l 713 132 q 741 142 741 132 q 729 169 741 151 l 605 376 q 585 414 590 399 q 570 428 579 428 q 548 416 562 428 q 515 388 534 405 l 284 169 q 267 151 274 160 q 264 137 260 142 q 286 132 267 132 l 328 132 q 355 128 348 132 q 361 103 361 124 l 361 38 q 355 7 361 14 q 324 0 348 0 l -65 0 q -95 5 -86 0 q -104 32 -104 10 l -104 97 q -99 125 -104 119 q -69 132 -93 132 l 18 132 q 60 138 49 132 q 86 159 71 144 l 435 485 q 473 520 459 506 q 486 547 486 534 q 471 581 486 563 q 435 629 456 599 l 278 883 q 258 904 267 899 q 221 910 249 910 "},"Y":{"ha":1122,"x_min":90,"x_max":1229,"o":"m 214 28 l 214 103 q 220 128 214 124 q 247 132 227 132 l 357 132 q 386 141 383 132 q 393 171 388 151 l 439 369 q 445 420 447 402 q 431 465 444 438 l 235 881 q 221 905 227 899 q 187 910 215 910 l 123 910 q 96 915 102 910 q 90 942 90 921 l 90 1012 q 96 1037 90 1032 q 121 1042 101 1042 l 564 1042 q 591 1037 585 1042 q 597 1010 597 1032 l 597 950 q 591 916 597 923 q 558 910 585 910 l 499 910 q 470 903 474 910 q 475 880 467 897 l 594 622 q 607 577 606 596 q 623 558 609 558 q 643 573 633 558 q 668 605 654 589 l 906 879 q 919 903 922 897 q 882 910 917 910 l 817 910 q 790 915 795 910 q 785 942 785 920 l 785 1009 q 790 1036 785 1031 q 816 1042 796 1042 l 1197 1042 q 1223 1038 1217 1042 q 1229 1015 1229 1035 l 1229 937 q 1224 915 1229 919 q 1201 910 1219 910 l 1133 910 q 1103 906 1112 910 q 1085 891 1095 902 l 726 484 q 700 451 710 466 q 683 407 690 437 l 630 172 q 630 140 624 147 q 667 132 636 132 l 747 132 q 783 126 775 132 q 790 92 790 121 l 790 39 q 781 6 790 12 q 746 0 772 0 l 248 0 q 221 4 228 0 q 214 28 214 8 "},"Ý":{"ha":1122,"x_min":90,"x_max":1229,"o":"m 939 1382 q 960 1307 967 1344 q 917 1251 953 1271 l 721 1144 q 708 1139 713 1138 q 697 1147 703 1140 l 646 1199 q 646 1223 634 1212 l 795 1390 q 842 1417 815 1412 q 896 1413 869 1422 q 939 1382 923 1404 m 214 28 l 214 103 q 220 128 214 124 q 247 132 227 132 l 357 132 q 386 141 383 132 q 393 171 388 151 l 439 369 q 445 420 447 402 q 431 465 444 438 l 235 881 q 221 905 227 899 q 187 910 215 910 l 123 910 q 96 915 102 910 q 90 942 90 921 l 90 1012 q 96 1037 90 1032 q 121 1042 101 1042 l 564 1042 q 591 1037 585 1042 q 597 1010 597 1032 l 597 950 q 591 916 597 923 q 558 910 585 910 l 499 910 q 470 903 474 910 q 475 880 467 897 l 594 622 q 607 577 606 596 q 623 558 609 558 q 643 573 633 558 q 668 605 654 589 l 906 879 q 919 903 922 897 q 882 910 917 910 l 817 910 q 790 915 795 910 q 785 942 785 920 l 785 1009 q 790 1036 785 1031 q 816 1042 796 1042 l 1197 1042 q 1223 1038 1217 1042 q 1229 1015 1229 1035 l 1229 937 q 1224 915 1229 919 q 1201 910 1219 910 l 1133 910 q 1103 906 1112 910 q 1085 891 1095 902 l 726 484 q 700 451 710 466 q 683 407 690 437 l 630 172 q 630 140 624 147 q 667 132 636 132 l 747 132 q 783 126 775 132 q 790 92 790 121 l 790 39 q 781 6 790 12 q 746 0 772 0 l 248 0 q 221 4 228 0 q 214 28 214 8 "},"Ŷ":{"ha":1122,"x_min":90,"x_max":1229,"o":"m 546 1156 l 515 1189 q 510 1200 508 1197 q 519 1211 511 1203 l 685 1366 q 701 1376 693 1374 q 724 1378 708 1378 l 817 1378 q 837 1375 831 1378 q 847 1366 843 1373 l 944 1210 q 946 1201 947 1205 q 939 1191 945 1197 l 904 1157 q 892 1149 895 1149 q 881 1156 889 1150 l 772 1253 q 738 1254 757 1267 l 570 1152 q 556 1148 561 1147 q 546 1156 551 1150 m 214 28 l 214 103 q 220 128 214 124 q 247 132 227 132 l 357 132 q 386 141 383 132 q 393 171 388 151 l 439 369 q 445 420 447 402 q 431 465 444 438 l 235 881 q 221 905 227 899 q 187 910 215 910 l 123 910 q 96 915 102 910 q 90 942 90 921 l 90 1012 q 96 1037 90 1032 q 121 1042 101 1042 l 564 1042 q 591 1037 585 1042 q 597 1010 597 1032 l 597 950 q 591 916 597 923 q 558 910 585 910 l 499 910 q 470 903 474 910 q 475 880 467 897 l 594 622 q 607 577 606 596 q 623 558 609 558 q 643 573 633 558 q 668 605 654 589 l 906 879 q 919 903 922 897 q 882 910 917 910 l 817 910 q 790 915 795 910 q 785 942 785 920 l 785 1009 q 790 1036 785 1031 q 816 1042 796 1042 l 1197 1042 q 1223 1038 1217 1042 q 1229 1015 1229 1035 l 1229 937 q 1224 915 1229 919 q 1201 910 1219 910 l 1133 910 q 1103 906 1112 910 q 1085 891 1095 902 l 726 484 q 700 451 710 466 q 683 407 690 437 l 630 172 q 630 140 624 147 q 667 132 636 132 l 747 132 q 783 126 775 132 q 790 92 790 121 l 790 39 q 781 6 790 12 q 746 0 772 0 l 248 0 q 221 4 228 0 q 214 28 214 8 "},"Ÿ":{"ha":1122,"x_min":90,"x_max":1229,"o":"m 885 1174 q 814 1203 844 1174 q 785 1274 785 1233 q 814 1345 785 1315 q 885 1374 844 1374 q 956 1345 926 1374 q 985 1274 985 1315 q 956 1203 985 1233 q 885 1174 926 1174 m 579 1174 q 509 1203 538 1174 q 479 1274 479 1233 q 509 1345 479 1315 q 579 1374 538 1374 q 650 1345 621 1374 q 679 1274 679 1315 q 650 1203 679 1233 q 579 1174 621 1174 m 214 28 l 214 103 q 220 128 214 124 q 247 132 227 132 l 357 132 q 386 141 383 132 q 393 171 388 151 l 439 369 q 445 420 447 402 q 431 465 444 438 l 235 881 q 221 905 227 899 q 187 910 215 910 l 123 910 q 96 915 102 910 q 90 942 90 921 l 90 1012 q 96 1037 90 1032 q 121 1042 101 1042 l 564 1042 q 591 1037 585 1042 q 597 1010 597 1032 l 597 950 q 591 916 597 923 q 558 910 585 910 l 499 910 q 470 903 474 910 q 475 880 467 897 l 594 622 q 607 577 606 596 q 623 558 609 558 q 643 573 633 558 q 668 605 654 589 l 906 879 q 919 903 922 897 q 882 910 917 910 l 817 910 q 790 915 795 910 q 785 942 785 920 l 785 1009 q 790 1036 785 1031 q 816 1042 796 1042 l 1197 1042 q 1223 1038 1217 1042 q 1229 1015 1229 1035 l 1229 937 q 1224 915 1229 919 q 1201 910 1219 910 l 1133 910 q 1103 906 1112 910 q 1085 891 1095 902 l 726 484 q 700 451 710 466 q 683 407 690 437 l 630 172 q 630 140 624 147 q 667 132 636 132 l 747 132 q 783 126 775 132 q 790 92 790 121 l 790 39 q 781 6 790 12 q 746 0 772 0 l 248 0 q 221 4 228 0 q 214 28 214 8 "},"Ỳ":{"ha":1122,"x_min":90,"x_max":1229,"o":"m 511 1382 q 555 1413 528 1404 q 609 1416 581 1422 q 655 1390 637 1411 l 803 1224 q 804 1199 816 1211 l 753 1146 q 743 1138 747 1140 q 732 1142 740 1137 l 533 1251 q 489 1308 495 1272 q 511 1382 483 1344 m 214 28 l 214 103 q 220 128 214 124 q 247 132 227 132 l 357 132 q 386 141 383 132 q 393 171 388 151 l 439 369 q 445 420 447 402 q 431 465 444 438 l 235 881 q 221 905 227 899 q 187 910 215 910 l 123 910 q 96 915 102 910 q 90 942 90 921 l 90 1012 q 96 1037 90 1032 q 121 1042 101 1042 l 564 1042 q 591 1037 585 1042 q 597 1010 597 1032 l 597 950 q 591 916 597 923 q 558 910 585 910 l 499 910 q 470 903 474 910 q 475 880 467 897 l 594 622 q 607 577 606 596 q 623 558 609 558 q 643 573 633 558 q 668 605 654 589 l 906 879 q 919 903 922 897 q 882 910 917 910 l 817 910 q 790 915 795 910 q 785 942 785 920 l 785 1009 q 790 1036 785 1031 q 816 1042 796 1042 l 1197 1042 q 1223 1038 1217 1042 q 1229 1015 1229 1035 l 1229 937 q 1224 915 1229 919 q 1201 910 1219 910 l 1133 910 q 1103 906 1112 910 q 1085 891 1095 902 l 726 484 q 700 451 710 466 q 683 407 690 437 l 630 172 q 630 140 624 147 q 667 132 636 132 l 747 132 q 783 126 775 132 q 790 92 790 121 l 790 39 q 781 6 790 12 q 746 0 772 0 l 248 0 q 221 4 228 0 q 214 28 214 8 "},"Z":{"ha":1056,"x_min":-69,"x_max":1049,"o":"m -69 41 l -69 133 q -61 172 -69 163 q -38 193 -53 181 l 677 828 q 701 845 686 836 q 732 865 717 855 q 759 884 748 875 q 769 901 769 894 q 752 910 769 911 q 712 910 735 910 l 500 910 q 356 890 412 910 q 267 825 301 871 q 209 699 233 778 q 197 669 203 679 q 165 660 190 660 l 115 660 q 86 669 88 660 q 87 698 83 678 l 147 1010 q 158 1036 151 1030 q 190 1042 165 1042 l 1010 1042 q 1042 1036 1035 1042 q 1049 1006 1049 1031 l 1049 911 q 1041 871 1049 880 q 1018 849 1034 863 l 300 212 q 265 188 286 200 q 228 165 244 176 q 212 146 212 154 q 231 132 212 133 q 284 132 249 132 l 563 132 q 709 153 652 132 q 802 226 765 174 q 865 371 838 278 q 876 400 871 391 q 909 410 882 410 l 957 410 q 987 401 985 410 q 986 372 990 393 l 924 37 q 911 6 919 12 q 874 0 904 0 l -28 0 q -63 7 -56 0 q -69 41 -69 13 "},"Ź":{"ha":1056,"x_min":-69,"x_max":1049,"o":"m 856 1382 q 877 1307 884 1344 q 833 1251 869 1271 l 638 1144 q 625 1139 629 1138 q 613 1147 620 1140 l 563 1199 q 563 1223 551 1212 l 712 1390 q 759 1417 731 1412 q 813 1413 786 1422 q 856 1382 840 1404 m -69 41 l -69 133 q -61 172 -69 163 q -38 193 -53 181 l 677 828 q 701 845 686 836 q 732 865 717 855 q 759 884 748 875 q 769 901 769 894 q 752 910 769 911 q 712 910 735 910 l 500 910 q 356 890 412 910 q 267 825 301 871 q 209 699 233 778 q 197 669 203 679 q 165 660 190 660 l 115 660 q 86 669 88 660 q 87 698 83 678 l 147 1010 q 158 1036 151 1030 q 190 1042 165 1042 l 1010 1042 q 1042 1036 1035 1042 q 1049 1006 1049 1031 l 1049 911 q 1041 871 1049 880 q 1018 849 1034 863 l 300 212 q 265 188 286 200 q 228 165 244 176 q 212 146 212 154 q 231 132 212 133 q 284 132 249 132 l 563 132 q 709 153 652 132 q 802 226 765 174 q 865 371 838 278 q 876 400 871 391 q 909 410 882 410 l 957 410 q 987 401 985 410 q 986 372 990 393 l 924 37 q 911 6 919 12 q 874 0 904 0 l -28 0 q -63 7 -56 0 q -69 41 -69 13 "},"Ż":{"ha":1056,"x_min":-69,"x_max":1049,"o":"m 663 1201 q 587 1233 619 1201 q 555 1309 555 1265 q 587 1386 555 1354 q 663 1418 619 1418 q 740 1386 708 1418 q 772 1309 772 1354 q 740 1233 772 1265 q 663 1201 708 1201 m -69 41 l -69 133 q -61 172 -69 163 q -38 193 -53 181 l 677 828 q 701 845 686 836 q 732 865 717 855 q 759 884 748 875 q 769 901 769 894 q 752 910 769 911 q 712 910 735 910 l 500 910 q 356 890 412 910 q 267 825 301 871 q 209 699 233 778 q 197 669 203 679 q 165 660 190 660 l 115 660 q 86 669 88 660 q 87 698 83 678 l 147 1010 q 158 1036 151 1030 q 190 1042 165 1042 l 1010 1042 q 1042 1036 1035 1042 q 1049 1006 1049 1031 l 1049 911 q 1041 871 1049 880 q 1018 849 1034 863 l 300 212 q 265 188 286 200 q 228 165 244 176 q 212 146 212 154 q 231 132 212 133 q 284 132 249 132 l 563 132 q 709 153 652 132 q 802 226 765 174 q 865 371 838 278 q 876 400 871 391 q 909 410 882 410 l 957 410 q 987 401 985 410 q 986 372 990 393 l 924 37 q 911 6 919 12 q 874 0 904 0 l -28 0 q -63 7 -56 0 q -69 41 -69 13 "},"Ž":{"ha":1056,"x_min":-69,"x_max":1049,"o":"m 552 1173 l 462 1322 q 458 1334 457 1329 q 468 1346 459 1339 l 506 1376 q 520 1384 517 1385 q 533 1376 524 1383 l 636 1290 q 661 1280 649 1280 q 690 1290 673 1279 l 837 1381 q 852 1386 848 1388 q 863 1376 857 1384 l 886 1349 q 893 1336 893 1340 q 883 1322 893 1331 l 722 1171 q 707 1159 714 1163 q 683 1156 699 1156 l 592 1156 q 566 1160 574 1156 q 552 1173 558 1165 m -69 41 l -69 133 q -61 172 -69 163 q -38 193 -53 181 l 677 828 q 701 845 686 836 q 732 865 717 855 q 759 884 748 875 q 769 901 769 894 q 752 910 769 911 q 712 910 735 910 l 500 910 q 356 890 412 910 q 267 825 301 871 q 209 699 233 778 q 197 669 203 679 q 165 660 190 660 l 115 660 q 86 669 88 660 q 87 698 83 678 l 147 1010 q 158 1036 151 1030 q 190 1042 165 1042 l 1010 1042 q 1042 1036 1035 1042 q 1049 1006 1049 1031 l 1049 911 q 1041 871 1049 880 q 1018 849 1034 863 l 300 212 q 265 188 286 200 q 228 165 244 176 q 212 146 212 154 q 231 132 212 133 q 284 132 249 132 l 563 132 q 709 153 652 132 q 802 226 765 174 q 865 371 838 278 q 876 400 871 391 q 909 410 882 410 l 957 410 q 987 401 985 410 q 986 372 990 393 l 924 37 q 911 6 919 12 q 874 0 904 0 l -28 0 q -63 7 -56 0 q -69 41 -69 13 "},"Æ":{"ha":1856,"x_min":-69,"x_max":1922,"o":"m 1021 910 q 982 906 997 910 q 956 893 967 902 q 928 867 944 884 l 558 457 q 540 433 544 443 q 568 424 535 424 l 997 424 l 987 299 l 442 299 q 416 297 425 299 q 400 285 408 294 l 287 156 q 281 139 278 146 q 306 132 285 132 l 390 132 q 407 128 401 132 q 413 113 413 125 l 413 26 q 408 5 413 9 q 385 0 403 0 l -50 0 q -68 4 -66 0 q -69 24 -69 8 l -69 106 q -67 126 -69 121 q -49 132 -64 132 l 61 132 q 88 139 81 132 q 103 156 94 145 l 883 1022 q 901 1036 891 1031 q 929 1042 912 1042 l 964 1042 l 1021 910 m 1218 467 l 1150 169 q 1149 139 1145 147 q 1183 132 1153 132 l 1348 132 q 1503 152 1438 132 q 1613 223 1569 172 q 1686 371 1658 275 q 1697 396 1692 389 q 1728 403 1702 403 l 1772 403 q 1800 397 1797 403 q 1799 372 1803 390 l 1725 38 q 1711 7 1719 14 q 1672 0 1703 0 l 754 0 q 732 4 738 0 q 726 26 726 8 l 726 95 q 732 126 726 120 q 762 132 738 132 l 866 132 q 901 137 894 132 q 913 165 908 142 l 1074 876 q 1075 903 1079 897 q 1044 910 1071 910 l 952 910 q 925 915 932 910 q 919 941 919 920 l 919 1019 q 926 1038 919 1035 q 949 1042 934 1042 l 1883 1042 q 1919 1033 1915 1042 q 1917 1001 1922 1025 l 1853 706 q 1842 675 1848 683 q 1807 667 1837 667 l 1760 667 q 1738 677 1738 667 q 1740 703 1738 687 q 1740 827 1753 782 q 1683 891 1726 872 q 1563 910 1640 910 l 1356 910 q 1323 904 1330 910 q 1310 877 1315 899 l 1251 610 q 1251 592 1247 596 q 1271 588 1255 588 l 1302 588 q 1413 616 1370 588 q 1478 694 1456 644 q 1492 722 1487 710 q 1524 733 1497 733 l 1558 733 q 1585 727 1582 733 q 1584 702 1588 722 l 1508 369 q 1499 344 1504 351 q 1471 338 1494 338 l 1431 338 q 1409 347 1410 338 q 1409 372 1408 356 q 1383 458 1413 426 q 1288 490 1353 490 l 1247 490 q 1225 486 1229 490 q 1218 467 1221 482 "},"Ð":{"ha":1233,"x_min":-62,"x_max":1178,"o":"m 78 604 l 651 604 q 670 601 667 604 q 674 585 674 597 l 674 509 q 670 491 674 497 q 649 486 667 486 l 77 486 q 56 490 60 486 q 53 507 53 494 l 53 585 q 58 600 53 597 q 78 604 64 604 m -62 30 l -62 103 q -53 128 -62 124 q -24 132 -44 132 l 83 132 q 112 139 106 132 q 122 163 119 145 l 273 869 q 274 904 279 898 q 233 910 268 910 l 157 910 q 127 916 133 910 q 121 946 121 922 l 121 1004 q 128 1035 121 1028 q 159 1042 136 1042 l 706 1042 q 934 1007 843 1042 q 1079 916 1025 973 q 1155 788 1133 858 q 1178 646 1178 718 q 1121 371 1178 491 q 967 168 1064 251 q 748 43 870 85 q 497 0 626 0 l -30 0 q -55 5 -48 0 q -62 30 -62 10 m 393 132 l 497 132 q 662 171 585 132 q 797 282 739 210 q 888 454 856 354 q 921 674 921 553 q 909 773 921 730 q 871 848 897 817 q 800 894 844 878 q 692 910 756 910 l 558 910 q 523 905 530 910 q 510 876 516 900 l 359 165 q 360 138 354 144 q 393 132 366 132 "},"Ø":{"ha":1236,"x_min":56,"x_max":1181,"o":"m 715 1063 q 961 1014 856 1063 q 1123 867 1066 965 q 1181 625 1181 769 q 1131 376 1181 493 q 991 170 1081 260 q 781 30 901 81 q 521 -21 660 -21 l 528 104 q 661 136 600 104 q 772 223 723 169 q 854 346 820 278 q 906 489 888 415 q 924 632 924 563 q 904 792 924 724 q 838 899 885 861 q 708 938 791 938 l 715 1063 m 521 -21 q 275 28 380 -21 q 113 175 171 78 q 56 417 56 272 q 106 665 56 549 q 246 872 156 782 q 456 1012 336 961 q 715 1063 576 1063 l 708 938 q 577 906 638 938 q 468 819 517 874 q 384 695 419 764 q 331 553 349 627 q 313 410 313 479 q 332 249 313 318 q 398 142 351 181 q 528 104 445 104 l 521 -21 m 949 1153 l 1003 1153 q 1030 1145 1028 1153 q 1022 1124 1031 1138 l 324 -115 q 308 -134 316 -129 q 277 -139 301 -139 l 235 -139 q 198 -132 204 -139 q 201 -106 191 -124 l 903 1126 q 918 1147 912 1141 q 949 1153 925 1153 "},"Þ":{"ha":1031,"x_min":-62,"x_max":992,"o":"m 435 647 l 383 408 q 383 388 380 394 q 408 381 387 381 l 520 381 q 631 401 580 381 q 712 461 681 421 q 742 561 742 501 q 732 613 742 588 q 696 653 722 638 q 624 669 670 669 l 465 669 q 442 665 447 669 q 435 647 438 661 m -62 24 l -62 112 q -57 129 -62 126 q -38 132 -51 132 l 63 132 q 90 136 85 132 q 99 159 95 141 l 256 881 q 255 905 260 900 q 227 910 251 910 l 140 910 q 119 915 123 910 q 116 937 116 920 l 116 1017 q 120 1037 116 1033 q 140 1042 125 1042 l 647 1042 q 667 1037 663 1042 q 671 1016 671 1032 l 671 936 q 666 914 671 918 q 642 910 660 910 l 514 910 q 492 905 494 910 q 485 885 489 900 l 472 820 q 472 804 469 808 q 492 801 474 801 l 656 801 q 858 772 785 801 q 962 691 932 744 q 992 568 992 639 q 955 411 992 473 q 853 313 918 349 q 703 263 788 278 q 524 249 618 249 l 372 249 q 352 246 357 249 q 345 234 347 244 l 330 162 q 331 136 326 141 q 362 132 336 132 l 469 132 q 495 127 490 132 q 500 101 500 122 l 500 31 q 495 6 500 12 q 472 0 491 0 l -35 0 q -57 4 -51 0 q -62 24 -62 8 "},"Đ":{"ha":1136,"x_min":-62,"x_max":1178,"o":"m -62 30 l -62 103 q -53 128 -62 124 q -24 132 -44 132 l 83 132 q 112 139 106 132 q 122 163 119 145 l 273 869 q 274 904 279 898 q 233 910 268 910 l 157 910 q 127 916 133 910 q 121 946 121 922 l 121 1004 q 128 1035 121 1028 q 159 1042 136 1042 l 706 1042 q 934 1007 843 1042 q 1079 916 1025 973 q 1155 788 1133 858 q 1178 646 1178 718 q 1121 371 1178 491 q 967 168 1064 251 q 748 43 870 85 q 497 0 626 0 l -30 0 q -55 5 -48 0 q -62 30 -62 10 m 393 132 l 497 132 q 662 171 585 132 q 797 282 739 210 q 888 454 856 354 q 921 674 921 553 q 909 773 921 730 q 871 848 897 817 q 800 894 844 878 q 692 910 756 910 l 558 910 q 523 905 530 910 q 510 876 516 900 l 359 165 q 360 138 354 144 q 393 132 366 132 m 78 604 l 651 604 q 670 601 667 604 q 674 585 674 597 l 674 509 q 670 491 674 497 q 649 486 667 486 l 77 486 q 56 490 60 486 q 53 507 53 494 l 53 585 q 58 600 53 597 q 78 604 64 604 "},"Ħ":{"ha":1306,"x_min":-62,"x_max":1368,"o":"m 144 823 l 1272 823 q 1311 819 1303 823 q 1319 803 1319 816 l 1319 728 q 1311 710 1319 715 q 1269 705 1303 705 l 142 705 q 101 709 108 705 q 94 726 94 713 l 94 803 q 106 819 94 815 q 144 823 117 823 m -62 31 l -62 100 q -55 127 -62 122 q -27 132 -48 132 l 67 132 q 107 138 98 132 q 122 170 116 144 l 274 883 q 273 905 277 901 q 248 910 269 910 l 153 910 q 128 914 134 910 q 122 938 122 918 l 122 1008 q 127 1036 122 1031 q 156 1042 133 1042 l 645 1042 q 666 1036 663 1042 q 670 1013 670 1031 l 670 940 q 664 915 670 919 q 638 910 658 910 l 549 910 q 519 904 525 910 q 508 878 513 899 l 456 633 q 455 607 452 614 q 483 601 458 601 l 874 601 q 899 606 896 601 q 906 627 903 610 l 960 882 q 961 904 965 899 q 938 910 958 910 l 856 910 q 831 915 836 910 q 826 940 826 921 l 826 1017 q 832 1037 826 1033 q 852 1042 837 1042 l 1338 1042 q 1363 1039 1358 1042 q 1368 1015 1368 1035 l 1368 940 q 1363 915 1368 920 q 1340 910 1358 910 l 1238 910 q 1207 905 1213 910 q 1197 880 1201 900 l 1044 167 q 1043 138 1039 144 q 1076 132 1047 132 l 1161 132 q 1186 127 1181 132 q 1191 102 1191 122 l 1191 29 q 1186 5 1191 10 q 1162 0 1181 0 l 674 0 q 651 5 656 0 q 646 29 646 10 l 646 106 q 652 128 646 124 q 676 132 659 132 l 768 132 q 799 138 794 132 q 808 164 803 143 l 867 445 q 867 471 872 466 q 835 476 863 476 l 450 476 q 424 470 427 476 q 417 447 420 465 l 356 163 q 355 139 352 146 q 380 132 357 132 l 463 132 q 488 126 483 132 q 493 101 493 121 l 493 31 q 487 5 493 10 q 460 0 481 0 l -29 0 q -56 5 -50 0 q -62 31 -62 10 "},"Ĳ":{"ha":1615,"x_min":-42,"x_max":1710,"o":"m -42 24 l -42 112 q -36 129 -42 126 q -17 132 -31 132 l 112 132 q 139 136 134 132 q 148 159 144 141 l 308 881 q 307 905 312 900 q 279 910 303 910 l 170 910 q 150 915 153 910 q 147 937 147 920 l 147 1017 q 151 1037 147 1033 q 170 1042 156 1042 l 692 1042 q 712 1037 708 1042 q 716 1016 716 1032 l 716 936 q 711 914 716 918 q 688 910 706 910 l 566 910 q 544 905 547 910 q 538 885 541 900 l 378 162 q 380 136 374 141 q 410 132 385 132 l 511 132 q 537 127 532 132 q 542 101 542 122 l 542 31 q 537 6 542 12 q 513 0 533 0 l -15 0 q -36 4 -31 0 q -42 24 -42 8 m 653 250 q 676 354 653 310 q 738 421 700 398 q 822 444 776 444 q 917 410 879 444 q 956 321 956 375 q 942 258 956 280 q 910 225 928 237 q 878 202 892 213 q 865 172 865 191 q 872 148 865 163 q 902 120 880 133 q 967 108 924 108 q 1086 161 1031 108 q 1168 333 1141 215 l 1292 881 q 1292 905 1297 901 q 1263 910 1287 910 l 1142 910 q 1118 914 1124 910 q 1113 935 1113 917 l 1113 1014 q 1119 1038 1113 1033 q 1144 1042 1125 1042 l 1673 1042 q 1701 1037 1692 1042 q 1710 1012 1710 1033 l 1710 944 q 1705 915 1710 921 q 1676 910 1699 910 l 1565 910 q 1534 904 1538 910 q 1525 877 1530 898 l 1404 375 q 1317 166 1375 254 q 1173 31 1260 78 q 967 -17 1085 -17 q 795 21 865 -17 q 689 120 725 59 q 653 250 653 181 "},"Ŀ":{"ha":1053,"x_min":-62,"x_max":982,"o":"m -62 31 l -62 108 q -57 127 -62 123 q -37 132 -51 132 l 78 132 q 112 137 106 132 q 123 165 118 142 l 276 880 q 275 906 281 901 q 244 910 270 910 l 153 910 q 129 915 134 910 q 124 939 124 919 l 124 1017 q 128 1038 124 1033 q 149 1042 133 1042 l 660 1042 q 682 1037 677 1042 q 688 1014 688 1032 l 688 938 q 684 915 688 921 q 663 910 680 910 l 549 910 q 520 905 525 910 q 511 880 516 900 l 360 172 q 360 140 355 147 q 397 132 366 132 l 550 132 q 699 155 641 132 q 795 233 758 178 q 859 388 832 289 q 870 411 864 405 q 899 417 876 417 l 955 417 q 977 412 972 417 q 978 392 982 407 l 897 26 q 886 5 892 9 q 858 0 879 0 l -28 0 q -56 5 -49 0 q -62 31 -62 9 m 690 699 q 707 762 690 734 q 752 807 724 790 q 815 824 780 824 q 877 807 849 824 q 923 762 906 790 q 940 699 940 734 q 923 637 940 665 q 877 591 906 608 q 815 574 849 574 q 752 591 780 574 q 707 637 724 608 q 690 699 690 665 "},"Ł":{"ha":1010,"x_min":-62,"x_max":982,"o":"m 62 511 l 641 791 q 658 799 652 797 q 664 783 664 801 l 664 693 q 661 673 664 678 q 648 660 659 667 l 66 378 q 50 371 56 372 q 45 388 45 370 l 45 483 q 49 502 45 499 q 62 511 53 506 m -62 31 l -62 108 q -57 127 -62 123 q -37 132 -51 132 l 78 132 q 112 137 106 132 q 123 165 118 142 l 276 880 q 275 906 281 901 q 244 910 270 910 l 153 910 q 129 915 134 910 q 124 939 124 919 l 124 1017 q 128 1038 124 1033 q 149 1042 133 1042 l 660 1042 q 682 1037 677 1042 q 688 1014 688 1032 l 688 938 q 684 915 688 921 q 663 910 680 910 l 549 910 q 520 905 525 910 q 511 880 516 900 l 360 172 q 360 140 355 147 q 397 132 366 132 l 550 132 q 699 155 641 132 q 795 233 758 178 q 859 388 832 289 q 870 411 864 405 q 899 417 876 417 l 955 417 q 977 412 972 417 q 978 392 982 407 l 897 26 q 886 5 892 9 q 858 0 879 0 l -28 0 q -56 5 -49 0 q -62 31 -62 9 "},"Ŋ":{"ha":1306,"x_min":-53,"x_max":1188,"o":"m 178 1042 l 517 1042 q 545 1037 540 1042 q 546 1014 550 1032 l 505 865 q 502 832 498 834 q 530 862 507 829 q 615 956 565 910 q 732 1031 665 1001 q 883 1061 799 1061 q 1027 1046 965 1061 q 1126 995 1088 1031 q 1176 900 1165 960 q 1169 752 1188 841 l 1008 8 q 934 -184 985 -101 q 800 -314 883 -267 q 599 -361 717 -361 q 467 -336 519 -361 q 389 -270 415 -310 q 363 -185 363 -230 q 383 -115 363 -145 q 435 -69 403 -85 q 503 -53 467 -53 q 590 -79 557 -53 q 624 -153 624 -106 q 614 -195 624 -181 q 593 -219 603 -210 q 583 -240 583 -228 q 593 -259 583 -250 q 625 -268 603 -268 q 683 -244 659 -268 q 723 -179 706 -220 q 752 -85 740 -138 q 776 27 765 -32 q 801 144 788 85 l 939 780 q 925 894 955 851 q 802 937 894 937 q 682 898 741 937 q 571 797 622 860 q 484 661 520 734 q 433 519 448 588 l 328 34 q 317 8 324 15 q 286 0 310 0 l -34 0 q -50 5 -47 0 q -53 22 -53 10 l -53 112 q -51 127 -53 123 q -38 132 -49 132 l 89 132 q 106 135 103 132 q 110 150 108 139 l 274 878 q 274 905 279 900 q 242 910 269 910 l 180 910 q 156 916 160 910 q 151 942 151 922 l 151 1013 q 156 1036 151 1031 q 178 1042 160 1042 "},"Œ":{"ha":1669,"x_min":38,"x_max":1735,"o":"m 833 1042 l 817 910 l 674 910 q 517 865 585 910 q 401 734 449 821 q 326 521 353 647 q 309 308 300 394 q 365 176 319 221 q 496 132 412 132 l 628 132 l 612 0 l 459 0 q 207 69 304 0 q 74 255 109 138 q 69 521 38 373 q 150 727 93 632 q 288 892 206 822 q 469 1002 369 963 q 681 1042 569 1042 l 833 1042 m 1031 467 l 963 169 q 962 139 958 147 q 996 132 966 132 l 1161 132 q 1317 152 1252 132 q 1426 223 1382 172 q 1499 371 1471 275 q 1510 396 1505 389 q 1541 403 1516 403 l 1585 403 q 1614 397 1610 403 q 1613 372 1617 390 l 1538 38 q 1525 7 1533 14 q 1485 0 1517 0 l 567 0 q 545 4 551 0 q 539 26 539 8 l 539 95 q 545 126 539 120 q 575 132 551 132 l 679 132 q 715 137 708 132 q 726 165 722 142 l 888 876 q 888 903 892 897 q 857 910 884 910 l 765 910 q 739 915 745 910 q 732 941 732 920 l 732 1019 q 740 1038 732 1035 q 762 1042 747 1042 l 1697 1042 q 1732 1033 1728 1042 q 1731 1001 1735 1025 l 1667 706 q 1656 675 1661 683 q 1620 667 1650 667 l 1574 667 q 1551 677 1551 667 q 1553 703 1551 687 q 1553 827 1567 782 q 1497 891 1540 872 q 1376 910 1453 910 l 1169 910 q 1136 904 1144 910 q 1124 877 1129 899 l 1064 610 q 1064 592 1060 596 q 1084 588 1068 588 l 1116 588 q 1226 616 1183 588 q 1292 694 1269 644 q 1305 722 1300 710 q 1338 733 1310 733 l 1371 733 q 1398 727 1395 733 q 1397 702 1401 722 l 1322 369 q 1313 344 1317 351 q 1284 338 1308 338 l 1244 338 q 1223 347 1224 338 q 1222 372 1222 356 q 1197 458 1227 426 q 1101 490 1166 490 l 1060 490 q 1039 486 1042 490 q 1031 467 1035 482 "},"Ŧ":{"ha":1079,"x_min":66,"x_max":1151,"o":"m 268 572 l 840 572 q 859 569 856 572 q 863 553 863 565 l 863 477 q 859 459 863 465 q 838 454 856 454 l 266 454 q 246 458 249 454 q 242 475 242 462 l 242 553 q 248 568 242 565 q 268 572 253 572 m 158 33 l 158 106 q 163 127 158 123 q 185 132 167 132 l 299 132 q 333 139 326 132 q 344 168 339 145 l 500 899 q 499 913 503 910 q 481 917 494 917 l 453 917 q 328 895 376 917 q 248 823 279 874 q 191 685 217 772 q 179 658 185 666 q 148 649 172 649 l 101 649 q 69 657 72 649 q 71 687 66 665 l 145 1010 q 157 1036 149 1031 q 190 1042 164 1042 l 1106 1042 q 1145 1035 1139 1042 q 1144 998 1151 1028 l 1069 678 q 1061 655 1065 661 q 1034 649 1056 649 l 980 649 q 947 658 949 649 q 949 689 944 666 q 959 826 966 776 q 915 896 953 876 q 801 917 878 917 l 751 917 q 728 910 733 917 q 719 890 723 904 l 567 174 q 565 141 563 150 q 599 132 567 132 l 700 132 q 726 126 721 132 q 731 98 731 120 l 731 40 q 723 6 731 12 q 690 0 716 0 l 188 0 q 163 6 167 0 q 158 33 158 12 "},"ẞ":{"ha":1411,"x_min":-62,"x_max":1414,"o":"m -62 0 l -46 111 l 81 111 l 186 613 q 276 799 208 717 q 447 938 344 881 q 676 1025 549 995 q 943 1056 803 1056 q 1117 1039 1037 1056 q 1259 997 1197 1022 q 1360 947 1321 972 q 1414 904 1400 922 l 1055 567 q 1217 501 1157 544 q 1300 403 1276 458 q 1317 288 1324 348 q 1271 165 1309 221 q 1174 68 1233 108 q 1042 5 1115 27 q 892 -17 969 -17 q 754 -2 818 -17 q 642 40 690 13 q 570 104 594 67 q 552 185 547 141 q 578 251 558 222 q 628 297 598 281 q 693 314 658 314 q 768 281 740 314 q 790 198 797 249 q 777 160 788 178 q 751 133 766 143 q 811 107 774 115 q 882 99 849 99 q 995 126 947 99 q 1072 200 1044 154 q 1104 299 1099 246 q 1086 400 1110 357 q 1001 471 1063 443 q 831 510 939 499 l 840 589 l 1142 867 q 1045 922 1106 901 q 915 942 985 942 q 723 920 810 942 q 567 856 635 899 q 456 748 500 813 q 393 598 411 683 l 289 111 l 413 111 l 397 0 l -62 0 "},"Δ":{"ha":1257,"x_min":-1,"x_max":1044,"o":"m 733 132 q 760 139 756 132 q 763 162 765 147 l 669 792 q 659 811 666 814 q 642 792 653 809 l 240 164 q 230 140 229 147 q 252 132 231 132 l 733 132 m 996 0 l 32 0 q 4 7 8 0 q 7 27 -1 14 l 672 1048 q 684 1060 679 1058 q 704 1063 689 1063 l 836 1063 q 858 1059 853 1063 q 864 1044 863 1055 l 1041 37 q 1035 9 1044 19 q 996 0 1026 0 "},"Ω":{"ha":1136,"x_min":-13,"x_max":1110,"o":"m 882 243 l 995 243 l 941 0 l 546 0 l 617 317 q 768 427 712 353 q 851 625 824 501 q 840 861 885 775 q 672 947 796 947 q 466 861 548 947 q 351 625 384 775 q 345 424 323 501 q 447 310 368 347 l 378 0 l -13 0 l 41 243 l 151 243 q 147 181 144 210 q 167 132 149 151 q 219 113 184 113 l 293 113 l 319 234 q 232 294 274 257 q 160 381 190 331 q 118 492 129 431 q 122 625 106 553 q 234 861 153 765 q 433 1006 315 957 q 696 1056 551 1056 q 938 1006 841 1056 q 1073 861 1035 957 q 1080 625 1110 765 q 1025 493 1064 553 q 934 383 987 432 q 824 298 882 334 q 710 240 765 262 l 683 113 l 756 113 q 818 132 792 113 q 859 181 843 151 q 882 243 875 210 "},"a":{"ha":993,"x_min":21,"x_max":955,"o":"m 577 444 q 569 535 577 493 q 541 602 561 576 q 482 627 520 627 q 405 595 444 627 q 333 508 366 563 q 280 387 300 454 q 260 250 260 320 q 286 134 260 173 q 360 94 312 94 q 433 124 395 94 q 503 205 471 154 q 557 318 536 256 q 577 444 577 381 m 946 202 q 822 38 898 100 q 652 -24 746 -24 q 569 -1 601 -24 q 523 54 536 22 q 518 72 520 65 q 515 83 516 78 q 503 90 510 92 q 485 76 497 88 q 390 6 443 33 q 274 -21 337 -21 q 151 3 208 -21 q 57 85 93 27 q 21 243 21 142 q 58 444 21 353 q 156 602 96 535 q 285 705 216 669 q 419 742 355 742 q 535 714 492 742 q 602 635 578 687 q 617 613 612 613 q 628 640 622 613 l 642 702 q 650 718 644 713 q 672 722 656 722 l 828 722 q 856 717 852 722 q 855 693 860 711 l 722 167 q 719 153 720 161 q 718 140 718 146 q 740 117 718 117 q 779 133 758 117 q 820 178 800 149 q 858 244 840 207 q 871 263 865 261 q 892 259 876 265 l 934 241 q 953 227 951 233 q 946 202 955 221 "},"à":{"ha":993,"x_min":21,"x_max":955,"o":"m 355 1063 q 398 1093 372 1085 q 453 1097 425 1102 q 499 1070 481 1092 l 647 904 q 648 879 660 892 l 597 826 q 587 819 591 820 q 576 822 583 817 l 377 932 q 333 989 339 953 q 355 1063 326 1024 m 577 444 q 569 535 577 493 q 541 602 561 576 q 482 627 520 627 q 405 595 444 627 q 333 508 366 563 q 280 387 300 454 q 260 250 260 320 q 286 134 260 173 q 360 94 312 94 q 433 124 395 94 q 503 205 471 154 q 557 318 536 256 q 577 444 577 381 m 946 202 q 822 38 898 100 q 652 -24 746 -24 q 569 -1 601 -24 q 523 54 536 22 q 518 72 520 65 q 515 83 516 78 q 503 90 510 92 q 485 76 497 88 q 390 6 443 33 q 274 -21 337 -21 q 151 3 208 -21 q 57 85 93 27 q 21 243 21 142 q 58 444 21 353 q 156 602 96 535 q 285 705 216 669 q 419 742 355 742 q 535 714 492 742 q 602 635 578 687 q 617 613 612 613 q 628 640 622 613 l 642 702 q 650 718 644 713 q 672 722 656 722 l 828 722 q 856 717 852 722 q 855 693 860 711 l 722 167 q 719 153 720 161 q 718 140 718 146 q 740 117 718 117 q 779 133 758 117 q 820 178 800 149 q 858 244 840 207 q 871 263 865 261 q 892 259 876 265 l 934 241 q 953 227 951 233 q 946 202 955 221 "},"á":{"ha":993,"x_min":21,"x_max":955,"o":"m 783 1063 q 804 988 811 1024 q 760 932 797 951 l 565 824 q 552 819 556 819 q 540 827 547 820 l 490 880 q 490 903 478 892 l 639 1070 q 686 1098 658 1092 q 740 1094 713 1103 q 783 1063 767 1085 m 577 444 q 569 535 577 493 q 541 602 561 576 q 482 627 520 627 q 405 595 444 627 q 333 508 366 563 q 280 387 300 454 q 260 250 260 320 q 286 134 260 173 q 360 94 312 94 q 433 124 395 94 q 503 205 471 154 q 557 318 536 256 q 577 444 577 381 m 946 202 q 822 38 898 100 q 652 -24 746 -24 q 569 -1 601 -24 q 523 54 536 22 q 518 72 520 65 q 515 83 516 78 q 503 90 510 92 q 485 76 497 88 q 390 6 443 33 q 274 -21 337 -21 q 151 3 208 -21 q 57 85 93 27 q 21 243 21 142 q 58 444 21 353 q 156 602 96 535 q 285 705 216 669 q 419 742 355 742 q 535 714 492 742 q 602 635 578 687 q 617 613 612 613 q 628 640 622 613 l 642 702 q 650 718 644 713 q 672 722 656 722 l 828 722 q 856 717 852 722 q 855 693 860 711 l 722 167 q 719 153 720 161 q 718 140 718 146 q 740 117 718 117 q 779 133 758 117 q 820 178 800 149 q 858 244 840 207 q 871 263 865 261 q 892 259 876 265 l 934 241 q 953 227 951 233 q 946 202 955 221 "},"â":{"ha":993,"x_min":21,"x_max":955,"o":"m 390 837 l 359 869 q 353 880 352 877 q 363 892 355 883 l 528 1047 q 544 1057 537 1055 q 567 1058 552 1058 l 661 1058 q 681 1056 675 1058 q 691 1047 687 1053 l 788 891 q 790 882 791 885 q 783 872 789 878 l 748 838 q 736 830 739 829 q 725 837 733 831 l 616 934 q 581 935 601 947 l 414 833 q 400 829 405 827 q 390 837 395 831 m 577 444 q 569 535 577 493 q 541 602 561 576 q 482 627 520 627 q 405 595 444 627 q 333 508 366 563 q 280 387 300 454 q 260 250 260 320 q 286 134 260 173 q 360 94 312 94 q 433 124 395 94 q 503 205 471 154 q 557 318 536 256 q 577 444 577 381 m 946 202 q 822 38 898 100 q 652 -24 746 -24 q 569 -1 601 -24 q 523 54 536 22 q 518 72 520 65 q 515 83 516 78 q 503 90 510 92 q 485 76 497 88 q 390 6 443 33 q 274 -21 337 -21 q 151 3 208 -21 q 57 85 93 27 q 21 243 21 142 q 58 444 21 353 q 156 602 96 535 q 285 705 216 669 q 419 742 355 742 q 535 714 492 742 q 602 635 578 687 q 617 613 612 613 q 628 640 622 613 l 642 702 q 650 718 644 713 q 672 722 656 722 l 828 722 q 856 717 852 722 q 855 693 860 711 l 722 167 q 719 153 720 161 q 718 140 718 146 q 740 117 718 117 q 779 133 758 117 q 820 178 800 149 q 858 244 840 207 q 871 263 865 261 q 892 259 876 265 l 934 241 q 953 227 951 233 q 946 202 955 221 "},"ã":{"ha":993,"x_min":21,"x_max":955,"o":"m 688 830 q 611 846 638 830 q 565 881 585 863 q 529 912 547 899 q 483 926 512 926 q 440 910 458 926 q 412 871 422 895 q 392 861 404 861 l 335 861 q 323 866 324 861 q 326 882 322 872 q 367 966 340 926 q 433 1030 394 1006 q 517 1055 471 1055 q 592 1039 567 1055 q 635 1003 617 1023 q 671 973 652 987 q 715 959 690 959 q 753 971 737 959 q 781 1008 770 983 q 789 1020 785 1016 q 801 1024 792 1024 l 861 1024 q 872 1020 871 1024 q 871 1008 873 1017 q 832 917 858 957 q 770 853 806 876 q 688 830 733 830 m 577 444 q 569 535 577 493 q 541 602 561 576 q 482 627 520 627 q 405 595 444 627 q 333 508 366 563 q 280 387 300 454 q 260 250 260 320 q 286 134 260 173 q 360 94 312 94 q 433 124 395 94 q 503 205 471 154 q 557 318 536 256 q 577 444 577 381 m 946 202 q 822 38 898 100 q 652 -24 746 -24 q 569 -1 601 -24 q 523 54 536 22 q 518 72 520 65 q 515 83 516 78 q 503 90 510 92 q 485 76 497 88 q 390 6 443 33 q 274 -21 337 -21 q 151 3 208 -21 q 57 85 93 27 q 21 243 21 142 q 58 444 21 353 q 156 602 96 535 q 285 705 216 669 q 419 742 355 742 q 535 714 492 742 q 602 635 578 687 q 617 613 612 613 q 628 640 622 613 l 642 702 q 650 718 644 713 q 672 722 656 722 l 828 722 q 856 717 852 722 q 855 693 860 711 l 722 167 q 719 153 720 161 q 718 140 718 146 q 740 117 718 117 q 779 133 758 117 q 820 178 800 149 q 858 244 840 207 q 871 263 865 261 q 892 259 876 265 l 934 241 q 953 227 951 233 q 946 202 955 221 "},"ä":{"ha":993,"x_min":21,"x_max":955,"o":"m 728 854 q 658 884 688 854 q 628 954 628 913 q 658 1025 628 996 q 728 1055 688 1055 q 799 1025 770 1055 q 828 954 828 996 q 799 884 828 913 q 728 854 770 854 m 423 854 q 352 884 382 854 q 323 954 323 913 q 352 1025 323 996 q 423 1055 382 1055 q 494 1025 465 1055 q 523 954 523 996 q 494 884 523 913 q 423 854 465 854 m 577 444 q 569 535 577 493 q 541 602 561 576 q 482 627 520 627 q 405 595 444 627 q 333 508 366 563 q 280 387 300 454 q 260 250 260 320 q 286 134 260 173 q 360 94 312 94 q 433 124 395 94 q 503 205 471 154 q 557 318 536 256 q 577 444 577 381 m 946 202 q 822 38 898 100 q 652 -24 746 -24 q 569 -1 601 -24 q 523 54 536 22 q 518 72 520 65 q 515 83 516 78 q 503 90 510 92 q 485 76 497 88 q 390 6 443 33 q 274 -21 337 -21 q 151 3 208 -21 q 57 85 93 27 q 21 243 21 142 q 58 444 21 353 q 156 602 96 535 q 285 705 216 669 q 419 742 355 742 q 535 714 492 742 q 602 635 578 687 q 617 613 612 613 q 628 640 622 613 l 642 702 q 650 718 644 713 q 672 722 656 722 l 828 722 q 856 717 852 722 q 855 693 860 711 l 722 167 q 719 153 720 161 q 718 140 718 146 q 740 117 718 117 q 779 133 758 117 q 820 178 800 149 q 858 244 840 207 q 871 263 865 261 q 892 259 876 265 l 934 241 q 953 227 951 233 q 946 202 955 221 "},"å":{"ha":993,"x_min":21,"x_max":955,"o":"m 578 916 q 629 935 607 916 q 657 983 651 955 q 651 1033 664 1013 q 609 1053 638 1053 q 559 1033 581 1053 q 530 983 537 1013 q 537 935 524 955 q 578 916 550 916 m 567 833 q 464 877 496 833 q 444 982 431 922 q 479 1057 453 1023 q 541 1111 504 1091 q 619 1132 578 1132 q 724 1088 691 1132 q 742 982 756 1043 q 708 908 733 942 q 645 854 682 874 q 567 833 609 833 m 577 444 q 569 535 577 493 q 541 602 561 576 q 482 627 520 627 q 405 595 444 627 q 333 508 366 563 q 280 387 300 454 q 260 250 260 320 q 286 134 260 173 q 360 94 312 94 q 433 124 395 94 q 503 205 471 154 q 557 318 536 256 q 577 444 577 381 m 946 202 q 822 38 898 100 q 652 -24 746 -24 q 569 -1 601 -24 q 523 54 536 22 q 518 72 520 65 q 515 83 516 78 q 503 90 510 92 q 485 76 497 88 q 390 6 443 33 q 274 -21 337 -21 q 151 3 208 -21 q 57 85 93 27 q 21 243 21 142 q 58 444 21 353 q 156 602 96 535 q 285 705 216 669 q 419 742 355 742 q 535 714 492 742 q 602 635 578 687 q 617 613 612 613 q 628 640 622 613 l 642 702 q 650 718 644 713 q 672 722 656 722 l 828 722 q 856 717 852 722 q 855 693 860 711 l 722 167 q 719 153 720 161 q 718 140 718 146 q 740 117 718 117 q 779 133 758 117 q 820 178 800 149 q 858 244 840 207 q 871 263 865 261 q 892 259 876 265 l 934 241 q 953 227 951 233 q 946 202 955 221 "},"ā":{"ha":993,"x_min":21,"x_max":955,"o":"m 406 852 l 406 910 q 409 924 406 919 q 420 928 411 928 l 716 928 q 734 925 729 928 q 740 907 740 921 l 740 851 q 738 835 740 840 q 724 830 735 830 l 431 830 q 412 834 417 830 q 406 852 406 838 m 577 444 q 569 535 577 493 q 541 602 561 576 q 482 627 520 627 q 405 595 444 627 q 333 508 366 563 q 280 387 300 454 q 260 250 260 320 q 286 134 260 173 q 360 94 312 94 q 433 124 395 94 q 503 205 471 154 q 557 318 536 256 q 577 444 577 381 m 946 202 q 822 38 898 100 q 652 -24 746 -24 q 569 -1 601 -24 q 523 54 536 22 q 518 72 520 65 q 515 83 516 78 q 503 90 510 92 q 485 76 497 88 q 390 6 443 33 q 274 -21 337 -21 q 151 3 208 -21 q 57 85 93 27 q 21 243 21 142 q 58 444 21 353 q 156 602 96 535 q 285 705 216 669 q 419 742 355 742 q 535 714 492 742 q 602 635 578 687 q 617 613 612 613 q 628 640 622 613 l 642 702 q 650 718 644 713 q 672 722 656 722 l 828 722 q 856 717 852 722 q 855 693 860 711 l 722 167 q 719 153 720 161 q 718 140 718 146 q 740 117 718 117 q 779 133 758 117 q 820 178 800 149 q 858 244 840 207 q 871 263 865 261 q 892 259 876 265 l 934 241 q 953 227 951 233 q 946 202 955 221 "},"ă":{"ha":993,"x_min":21,"x_max":955,"o":"m 579 826 q 477 851 511 826 q 436 920 443 875 q 442 1027 428 965 q 460 1040 444 1040 l 505 1040 q 515 1029 516 1040 q 530 975 512 996 q 598 955 547 955 q 673 973 646 955 q 713 1020 700 991 q 719 1035 717 1030 q 734 1040 722 1040 l 784 1040 q 796 1037 795 1040 q 794 1024 797 1034 q 721 880 772 933 q 579 826 670 826 m 577 444 q 569 535 577 493 q 541 602 561 576 q 482 627 520 627 q 405 595 444 627 q 333 508 366 563 q 280 387 300 454 q 260 250 260 320 q 286 134 260 173 q 360 94 312 94 q 433 124 395 94 q 503 205 471 154 q 557 318 536 256 q 577 444 577 381 m 946 202 q 822 38 898 100 q 652 -24 746 -24 q 569 -1 601 -24 q 523 54 536 22 q 518 72 520 65 q 515 83 516 78 q 503 90 510 92 q 485 76 497 88 q 390 6 443 33 q 274 -21 337 -21 q 151 3 208 -21 q 57 85 93 27 q 21 243 21 142 q 58 444 21 353 q 156 602 96 535 q 285 705 216 669 q 419 742 355 742 q 535 714 492 742 q 602 635 578 687 q 617 613 612 613 q 628 640 622 613 l 642 702 q 650 718 644 713 q 672 722 656 722 l 828 722 q 856 717 852 722 q 855 693 860 711 l 722 167 q 719 153 720 161 q 718 140 718 146 q 740 117 718 117 q 779 133 758 117 q 820 178 800 149 q 858 244 840 207 q 871 263 865 261 q 892 259 876 265 l 934 241 q 953 227 951 233 q 946 202 955 221 "},"ą":{"ha":993,"x_min":21,"x_max":955,"o":"m 626 -291 q 543 -280 579 -291 q 490 -243 508 -268 q 478 -178 473 -219 q 510 -109 483 -141 q 576 -49 537 -76 q 655 2 615 -22 q 728 44 696 25 q 754 48 741 51 q 771 40 767 45 q 781 23 781 30 q 772 6 782 16 q 726 -33 752 -12 q 679 -80 700 -55 q 651 -133 658 -105 q 658 -176 645 -160 q 701 -192 670 -192 q 745 -182 726 -192 q 778 -157 765 -171 q 800 -152 792 -144 l 822 -173 q 827 -181 828 -178 q 821 -192 826 -185 q 746 -261 791 -231 q 626 -291 701 -291 m 577 444 q 569 535 577 493 q 541 602 561 576 q 482 627 520 627 q 405 595 444 627 q 333 508 366 563 q 280 387 300 454 q 260 250 260 320 q 286 134 260 173 q 360 94 312 94 q 433 124 395 94 q 503 205 471 154 q 557 318 536 256 q 577 444 577 381 m 946 202 q 822 38 898 100 q 652 -24 746 -24 q 569 -1 601 -24 q 523 54 536 22 q 518 72 520 65 q 515 83 516 78 q 503 90 510 92 q 485 76 497 88 q 390 6 443 33 q 274 -21 337 -21 q 151 3 208 -21 q 57 85 93 27 q 21 243 21 142 q 58 444 21 353 q 156 602 96 535 q 285 705 216 669 q 419 742 355 742 q 535 714 492 742 q 602 635 578 687 q 617 613 612 613 q 628 640 622 613 l 642 702 q 650 718 644 713 q 672 722 656 722 l 828 722 q 856 717 852 722 q 855 693 860 711 l 722 167 q 719 153 720 161 q 718 140 718 146 q 740 117 718 117 q 779 133 758 117 q 820 178 800 149 q 858 244 840 207 q 871 263 865 261 q 892 259 876 265 l 934 241 q 953 227 951 233 q 946 202 955 221 "},"b":{"ha":874,"x_min":24,"x_max":811,"o":"m 240 172 q 270 116 248 137 q 331 95 293 95 q 421 126 378 95 q 500 209 465 156 q 555 330 535 262 q 575 472 575 398 q 559 582 575 539 q 502 626 543 626 q 413 596 458 626 q 332 513 368 567 q 278 385 295 458 l 240 218 q 237 195 238 206 q 240 172 237 184 m 30 206 l 198 940 q 199 966 203 960 q 169 972 195 972 l 107 972 q 88 979 92 972 q 85 1001 85 986 l 85 1058 q 89 1078 85 1074 q 107 1083 92 1083 l 407 1083 q 432 1079 428 1083 q 432 1057 436 1074 l 342 664 q 341 633 337 639 q 366 647 344 626 q 461 716 410 690 q 565 742 511 742 q 743 673 674 742 q 811 458 811 604 q 774 272 811 360 q 670 118 737 185 q 515 14 604 51 q 322 -24 426 -24 q 189 -3 244 -24 q 98 52 134 17 q 40 129 63 87 q 26 165 28 151 q 30 206 24 180 "},"c":{"ha":855,"x_min":21,"x_max":792,"o":"m 792 527 q 772 445 792 476 q 721 400 752 415 q 656 385 690 385 q 579 413 611 385 q 547 494 547 440 q 559 541 547 523 q 585 570 572 558 q 598 597 598 583 q 584 630 598 617 q 535 643 571 643 q 435 613 486 643 q 342 530 385 583 q 274 405 300 476 q 248 250 248 333 q 259 164 248 199 q 293 110 270 128 q 353 92 316 92 q 434 109 394 92 q 508 155 474 126 q 569 219 543 184 q 583 235 576 230 q 609 240 590 240 l 674 240 q 703 235 695 240 q 701 214 710 229 q 610 102 665 156 q 482 14 556 48 q 313 -21 408 -21 q 163 6 229 -21 q 59 93 97 33 q 21 250 21 153 q 61 444 21 354 q 169 601 101 533 q 324 706 238 668 q 505 743 410 743 q 658 716 593 743 q 757 640 722 688 q 792 527 792 591 "},"ç":{"ha":855,"x_min":21,"x_max":792,"o":"m 122 -347 l 124 -308 q 133 -293 126 -296 q 149 -289 139 -290 q 210 -281 178 -287 q 265 -265 242 -276 q 294 -233 289 -253 q 280 -196 299 -209 q 230 -178 261 -183 q 168 -169 199 -172 q 147 -163 149 -167 q 153 -149 144 -158 l 295 1 q 317 8 301 8 l 359 8 q 379 6 375 8 q 375 -6 383 3 l 313 -74 q 302 -89 301 -85 q 321 -94 303 -92 q 413 -128 382 -99 q 431 -215 444 -157 q 389 -293 420 -263 q 315 -338 358 -322 q 226 -360 272 -354 q 139 -367 180 -366 q 122 -347 120 -368 m 792 527 q 772 445 792 476 q 721 400 752 415 q 656 385 690 385 q 579 413 611 385 q 547 494 547 440 q 559 541 547 523 q 585 570 572 558 q 598 597 598 583 q 584 630 598 617 q 535 643 571 643 q 435 613 486 643 q 342 530 385 583 q 274 405 300 476 q 248 250 248 333 q 259 164 248 199 q 293 110 270 128 q 353 92 316 92 q 434 109 394 92 q 508 155 474 126 q 569 219 543 184 q 583 235 576 230 q 609 240 590 240 l 674 240 q 703 235 695 240 q 701 214 710 229 q 610 102 665 156 q 482 14 556 48 q 313 -21 408 -21 q 163 6 229 -21 q 59 93 97 33 q 21 250 21 153 q 61 444 21 354 q 169 601 101 533 q 324 706 238 668 q 505 743 410 743 q 658 716 593 743 q 757 640 722 688 q 792 527 792 591 "},"ć":{"ha":855,"x_min":21,"x_max":792,"o":"m 751 1063 q 772 988 779 1024 q 728 932 765 951 l 533 824 q 520 819 524 819 q 508 827 515 820 l 458 880 q 458 903 446 892 l 607 1070 q 654 1098 626 1092 q 708 1094 681 1103 q 751 1063 735 1085 m 792 527 q 772 445 792 476 q 721 400 752 415 q 656 385 690 385 q 579 413 611 385 q 547 494 547 440 q 559 541 547 523 q 585 570 572 558 q 598 597 598 583 q 584 630 598 617 q 535 643 571 643 q 435 613 486 643 q 342 530 385 583 q 274 405 300 476 q 248 250 248 333 q 259 164 248 199 q 293 110 270 128 q 353 92 316 92 q 434 109 394 92 q 508 155 474 126 q 569 219 543 184 q 583 235 576 230 q 609 240 590 240 l 674 240 q 703 235 695 240 q 701 214 710 229 q 610 102 665 156 q 482 14 556 48 q 313 -21 408 -21 q 163 6 229 -21 q 59 93 97 33 q 21 250 21 153 q 61 444 21 354 q 169 601 101 533 q 324 706 238 668 q 505 743 410 743 q 658 716 593 743 q 757 640 722 688 q 792 527 792 591 "},"ĉ":{"ha":855,"x_min":21,"x_max":792,"o":"m 358 837 l 327 869 q 322 880 320 877 q 331 892 323 883 l 497 1047 q 513 1057 505 1055 q 535 1058 520 1058 l 629 1058 q 649 1056 643 1058 q 659 1047 655 1053 l 756 891 q 758 882 759 885 q 751 872 757 878 l 716 838 q 704 830 707 829 q 693 837 701 831 l 584 934 q 549 935 569 947 l 382 833 q 368 829 373 827 q 358 837 363 831 m 792 527 q 772 445 792 476 q 721 400 752 415 q 656 385 690 385 q 579 413 611 385 q 547 494 547 440 q 559 541 547 523 q 585 570 572 558 q 598 597 598 583 q 584 630 598 617 q 535 643 571 643 q 435 613 486 643 q 342 530 385 583 q 274 405 300 476 q 248 250 248 333 q 259 164 248 199 q 293 110 270 128 q 353 92 316 92 q 434 109 394 92 q 508 155 474 126 q 569 219 543 184 q 583 235 576 230 q 609 240 590 240 l 674 240 q 703 235 695 240 q 701 214 710 229 q 610 102 665 156 q 482 14 556 48 q 313 -21 408 -21 q 163 6 229 -21 q 59 93 97 33 q 21 250 21 153 q 61 444 21 354 q 169 601 101 533 q 324 706 238 668 q 505 743 410 743 q 658 716 593 743 q 757 640 722 688 q 792 527 792 591 "},"ċ":{"ha":855,"x_min":21,"x_max":792,"o":"m 558 881 q 482 914 514 881 q 450 990 450 946 q 482 1067 450 1035 q 558 1099 514 1099 q 635 1067 603 1099 q 667 990 667 1035 q 635 914 667 946 q 558 881 603 881 m 792 527 q 772 445 792 476 q 721 400 752 415 q 656 385 690 385 q 579 413 611 385 q 547 494 547 440 q 559 541 547 523 q 585 570 572 558 q 598 597 598 583 q 584 630 598 617 q 535 643 571 643 q 435 613 486 643 q 342 530 385 583 q 274 405 300 476 q 248 250 248 333 q 259 164 248 199 q 293 110 270 128 q 353 92 316 92 q 434 109 394 92 q 508 155 474 126 q 569 219 543 184 q 583 235 576 230 q 609 240 590 240 l 674 240 q 703 235 695 240 q 701 214 710 229 q 610 102 665 156 q 482 14 556 48 q 313 -21 408 -21 q 163 6 229 -21 q 59 93 97 33 q 21 250 21 153 q 61 444 21 354 q 169 601 101 533 q 324 706 238 668 q 505 743 410 743 q 658 716 593 743 q 757 640 722 688 q 792 527 792 591 "},"č":{"ha":855,"x_min":21,"x_max":792,"o":"m 447 853 l 357 1002 q 353 1015 352 1010 q 363 1026 354 1019 l 401 1057 q 416 1064 412 1065 q 428 1056 419 1063 l 531 971 q 556 960 544 960 q 585 970 568 960 l 732 1062 q 748 1066 743 1068 q 758 1056 752 1065 l 781 1029 q 788 1016 788 1021 q 778 1003 788 1012 l 617 851 q 602 840 609 843 q 578 837 594 837 l 487 837 q 461 841 469 837 q 447 853 453 845 m 792 527 q 772 445 792 476 q 721 400 752 415 q 656 385 690 385 q 579 413 611 385 q 547 494 547 440 q 559 541 547 523 q 585 570 572 558 q 598 597 598 583 q 584 630 598 617 q 535 643 571 643 q 435 613 486 643 q 342 530 385 583 q 274 405 300 476 q 248 250 248 333 q 259 164 248 199 q 293 110 270 128 q 353 92 316 92 q 434 109 394 92 q 508 155 474 126 q 569 219 543 184 q 583 235 576 230 q 609 240 590 240 l 674 240 q 703 235 695 240 q 701 214 710 229 q 610 102 665 156 q 482 14 556 48 q 313 -21 408 -21 q 163 6 229 -21 q 59 93 97 33 q 21 250 21 153 q 61 444 21 354 q 169 601 101 533 q 324 706 238 668 q 505 743 410 743 q 658 716 593 743 q 757 640 722 688 q 792 527 792 591 "},"d":{"ha":994,"x_min":21,"x_max":956,"o":"m 577 444 q 570 535 577 493 q 544 602 564 576 q 482 627 524 627 q 404 595 444 627 q 330 508 364 563 q 274 387 295 454 q 253 250 253 320 q 276 134 253 173 q 347 94 298 94 q 421 124 381 94 q 497 205 461 154 q 555 318 532 256 q 577 444 577 381 m 949 207 q 824 39 901 102 q 652 -24 747 -24 q 564 1 597 -24 q 518 65 531 26 q 516 84 516 76 q 515 95 515 91 q 508 107 514 108 q 489 92 501 106 q 386 10 443 42 q 260 -21 328 -21 q 140 3 194 -21 q 53 85 86 27 q 21 243 21 142 q 46 407 21 331 q 114 545 72 483 q 208 650 156 606 q 315 718 260 694 q 419 742 370 742 q 534 716 491 742 q 599 644 576 690 q 617 619 610 621 q 629 640 624 618 l 700 944 q 701 966 703 959 q 678 972 698 972 l 595 972 q 573 977 578 972 q 567 1000 567 983 l 567 1056 q 570 1078 567 1072 q 590 1083 574 1083 l 900 1083 q 938 1078 931 1083 q 939 1048 944 1072 l 722 167 q 719 153 720 161 q 718 140 718 146 q 740 117 718 117 q 802 155 769 117 q 862 253 835 192 q 871 266 867 264 q 887 262 876 267 l 937 239 q 953 227 951 233 q 949 207 956 222 "},"ď":{"ha":1210,"x_min":21,"x_max":1282,"o":"m 1003 961 q 1042 1050 1003 1016 q 1138 1083 1082 1083 q 1208 1066 1175 1083 q 1262 1010 1241 1049 q 1283 911 1283 972 q 1255 808 1283 855 q 1182 728 1227 762 q 1082 675 1136 694 q 976 651 1028 655 q 959 653 963 651 q 955 669 955 656 l 955 721 q 960 733 955 732 q 974 735 965 735 q 1054 755 1010 740 q 1133 797 1098 771 q 1177 856 1167 823 q 1179 871 1185 870 q 1161 865 1172 872 q 1135 854 1149 858 q 1101 850 1120 850 q 1028 881 1054 850 q 1003 961 1003 912 m 577 444 q 570 535 577 493 q 544 602 564 576 q 482 627 524 627 q 404 595 444 627 q 330 508 364 563 q 274 387 295 454 q 253 250 253 320 q 276 134 253 173 q 347 94 298 94 q 421 124 381 94 q 497 205 461 154 q 555 318 532 256 q 577 444 577 381 m 949 207 q 824 39 901 102 q 652 -24 747 -24 q 564 1 597 -24 q 518 65 531 26 q 516 84 516 76 q 515 95 515 91 q 508 107 514 108 q 489 92 501 106 q 386 10 443 42 q 260 -21 328 -21 q 140 3 194 -21 q 53 85 86 27 q 21 243 21 142 q 46 407 21 331 q 114 545 72 483 q 208 650 156 606 q 315 718 260 694 q 419 742 370 742 q 534 716 491 742 q 599 644 576 690 q 617 619 610 621 q 629 640 624 618 l 700 944 q 701 966 703 959 q 678 972 698 972 l 595 972 q 573 977 578 972 q 567 1000 567 983 l 567 1056 q 570 1078 567 1072 q 590 1083 574 1083 l 900 1083 q 938 1078 931 1083 q 939 1048 944 1072 l 722 167 q 719 153 720 161 q 718 140 718 146 q 740 117 718 117 q 802 155 769 117 q 862 253 835 192 q 871 266 867 264 q 887 262 876 267 l 937 239 q 953 227 951 233 q 949 207 956 222 "},"e":{"ha":826,"x_min":21,"x_max":792,"o":"m 21 250 q 61 438 21 349 q 173 596 102 527 q 334 704 243 665 q 524 743 424 743 q 724 697 656 743 q 792 566 792 651 q 758 458 792 503 q 669 381 725 413 q 545 331 613 350 q 408 301 478 311 q 278 285 338 290 q 254 275 260 284 q 248 245 248 267 q 276 130 248 168 q 360 92 305 92 q 440 110 401 92 q 512 156 478 127 q 570 222 545 185 q 585 236 578 232 q 611 240 592 240 l 674 240 q 705 234 700 240 q 698 209 710 228 q 609 99 662 151 q 484 13 556 47 q 319 -21 413 -21 q 169 6 236 -21 q 61 93 101 33 q 21 250 21 153 m 292 378 q 395 397 344 384 q 490 432 447 410 q 559 486 533 453 q 585 567 585 519 q 568 625 585 607 q 513 642 551 642 q 420 615 467 642 q 334 537 373 588 q 272 413 295 485 q 268 383 265 391 q 292 378 271 375 "},"è":{"ha":826,"x_min":21,"x_max":792,"o":"m 305 1063 q 348 1093 322 1085 q 403 1097 375 1102 q 449 1070 431 1092 l 597 904 q 598 879 610 892 l 547 826 q 537 819 541 820 q 526 822 533 817 l 327 932 q 283 989 289 953 q 305 1063 276 1024 m 21 250 q 61 438 21 349 q 173 596 102 527 q 334 704 243 665 q 524 743 424 743 q 724 697 656 743 q 792 566 792 651 q 758 458 792 503 q 669 381 725 413 q 545 331 613 350 q 408 301 478 311 q 278 285 338 290 q 254 275 260 284 q 248 245 248 267 q 276 130 248 168 q 360 92 305 92 q 440 110 401 92 q 512 156 478 127 q 570 222 545 185 q 585 236 578 232 q 611 240 592 240 l 674 240 q 705 234 700 240 q 698 209 710 228 q 609 99 662 151 q 484 13 556 47 q 319 -21 413 -21 q 169 6 236 -21 q 61 93 101 33 q 21 250 21 153 m 292 378 q 395 397 344 384 q 490 432 447 410 q 559 486 533 453 q 585 567 585 519 q 568 625 585 607 q 513 642 551 642 q 420 615 467 642 q 334 537 373 588 q 272 413 295 485 q 268 383 265 391 q 292 378 271 375 "},"é":{"ha":826,"x_min":21,"x_max":792,"o":"m 733 1063 q 754 988 761 1024 q 710 932 747 951 l 515 824 q 502 819 506 819 q 490 827 497 820 l 440 880 q 440 903 428 892 l 589 1070 q 636 1098 608 1092 q 690 1094 663 1103 q 733 1063 717 1085 m 21 250 q 61 438 21 349 q 173 596 102 527 q 334 704 243 665 q 524 743 424 743 q 724 697 656 743 q 792 566 792 651 q 758 458 792 503 q 669 381 725 413 q 545 331 613 350 q 408 301 478 311 q 278 285 338 290 q 254 275 260 284 q 248 245 248 267 q 276 130 248 168 q 360 92 305 92 q 440 110 401 92 q 512 156 478 127 q 570 222 545 185 q 585 236 578 232 q 611 240 592 240 l 674 240 q 705 234 700 240 q 698 209 710 228 q 609 99 662 151 q 484 13 556 47 q 319 -21 413 -21 q 169 6 236 -21 q 61 93 101 33 q 21 250 21 153 m 292 378 q 395 397 344 384 q 490 432 447 410 q 559 486 533 453 q 585 567 585 519 q 568 625 585 607 q 513 642 551 642 q 420 615 467 642 q 334 537 373 588 q 272 413 295 485 q 268 383 265 391 q 292 378 271 375 "},"ê":{"ha":826,"x_min":21,"x_max":792,"o":"m 340 837 l 309 869 q 303 880 302 877 q 313 892 305 883 l 478 1047 q 494 1057 487 1055 q 517 1058 502 1058 l 611 1058 q 631 1056 625 1058 q 641 1047 637 1053 l 738 891 q 740 882 741 885 q 733 872 739 878 l 698 838 q 686 830 689 829 q 675 837 683 831 l 566 934 q 531 935 551 947 l 364 833 q 350 829 355 827 q 340 837 345 831 m 21 250 q 61 438 21 349 q 173 596 102 527 q 334 704 243 665 q 524 743 424 743 q 724 697 656 743 q 792 566 792 651 q 758 458 792 503 q 669 381 725 413 q 545 331 613 350 q 408 301 478 311 q 278 285 338 290 q 254 275 260 284 q 248 245 248 267 q 276 130 248 168 q 360 92 305 92 q 440 110 401 92 q 512 156 478 127 q 570 222 545 185 q 585 236 578 232 q 611 240 592 240 l 674 240 q 705 234 700 240 q 698 209 710 228 q 609 99 662 151 q 484 13 556 47 q 319 -21 413 -21 q 169 6 236 -21 q 61 93 101 33 q 21 250 21 153 m 292 378 q 395 397 344 384 q 490 432 447 410 q 559 486 533 453 q 585 567 585 519 q 568 625 585 607 q 513 642 551 642 q 420 615 467 642 q 334 537 373 588 q 272 413 295 485 q 268 383 265 391 q 292 378 271 375 "},"ë":{"ha":826,"x_min":21,"x_max":792,"o":"m 678 854 q 608 884 638 854 q 578 954 578 913 q 608 1025 578 996 q 678 1055 638 1055 q 749 1025 720 1055 q 778 954 778 996 q 749 884 778 913 q 678 854 720 854 m 373 854 q 302 884 332 854 q 273 954 273 913 q 302 1025 273 996 q 373 1055 332 1055 q 444 1025 415 1055 q 473 954 473 996 q 444 884 473 913 q 373 854 415 854 m 21 250 q 61 438 21 349 q 173 596 102 527 q 334 704 243 665 q 524 743 424 743 q 724 697 656 743 q 792 566 792 651 q 758 458 792 503 q 669 381 725 413 q 545 331 613 350 q 408 301 478 311 q 278 285 338 290 q 254 275 260 284 q 248 245 248 267 q 276 130 248 168 q 360 92 305 92 q 440 110 401 92 q 512 156 478 127 q 570 222 545 185 q 585 236 578 232 q 611 240 592 240 l 674 240 q 705 234 700 240 q 698 209 710 228 q 609 99 662 151 q 484 13 556 47 q 319 -21 413 -21 q 169 6 236 -21 q 61 93 101 33 q 21 250 21 153 m 292 378 q 395 397 344 384 q 490 432 447 410 q 559 486 533 453 q 585 567 585 519 q 568 625 585 607 q 513 642 551 642 q 420 615 467 642 q 334 537 373 588 q 272 413 295 485 q 268 383 265 391 q 292 378 271 375 "},"ē":{"ha":826,"x_min":21,"x_max":792,"o":"m 346 852 l 346 910 q 348 924 346 919 q 360 928 351 928 l 656 928 q 674 925 669 928 q 679 907 679 921 l 679 851 q 677 835 679 840 q 664 830 675 830 l 370 830 q 351 834 357 830 q 346 852 346 838 m 21 250 q 61 438 21 349 q 173 596 102 527 q 334 704 243 665 q 524 743 424 743 q 724 697 656 743 q 792 566 792 651 q 758 458 792 503 q 669 381 725 413 q 545 331 613 350 q 408 301 478 311 q 278 285 338 290 q 254 275 260 284 q 248 245 248 267 q 276 130 248 168 q 360 92 305 92 q 440 110 401 92 q 512 156 478 127 q 570 222 545 185 q 585 236 578 232 q 611 240 592 240 l 674 240 q 705 234 700 240 q 698 209 710 228 q 609 99 662 151 q 484 13 556 47 q 319 -21 413 -21 q 169 6 236 -21 q 61 93 101 33 q 21 250 21 153 m 292 378 q 395 397 344 384 q 490 432 447 410 q 559 486 533 453 q 585 567 585 519 q 568 625 585 607 q 513 642 551 642 q 420 615 467 642 q 334 537 373 588 q 272 413 295 485 q 268 383 265 391 q 292 378 271 375 "},"ĕ":{"ha":826,"x_min":21,"x_max":792,"o":"m 519 826 q 417 851 451 826 q 375 920 383 875 q 381 1027 368 965 q 400 1040 384 1040 l 444 1040 q 455 1029 456 1040 q 469 975 451 996 q 538 955 487 955 q 613 973 585 955 q 652 1020 640 991 q 659 1035 656 1030 q 674 1040 661 1040 l 724 1040 q 736 1037 735 1040 q 734 1024 737 1034 q 660 880 711 933 q 519 826 610 826 m 21 250 q 61 438 21 349 q 173 596 102 527 q 334 704 243 665 q 524 743 424 743 q 724 697 656 743 q 792 566 792 651 q 758 458 792 503 q 669 381 725 413 q 545 331 613 350 q 408 301 478 311 q 278 285 338 290 q 254 275 260 284 q 248 245 248 267 q 276 130 248 168 q 360 92 305 92 q 440 110 401 92 q 512 156 478 127 q 570 222 545 185 q 585 236 578 232 q 611 240 592 240 l 674 240 q 705 234 700 240 q 698 209 710 228 q 609 99 662 151 q 484 13 556 47 q 319 -21 413 -21 q 169 6 236 -21 q 61 93 101 33 q 21 250 21 153 m 292 378 q 395 397 344 384 q 490 432 447 410 q 559 486 533 453 q 585 567 585 519 q 568 625 585 607 q 513 642 551 642 q 420 615 467 642 q 334 537 373 588 q 272 413 295 485 q 268 383 265 391 q 292 378 271 375 "}}}
